<svg width="18" height="18" viewBox="0 0 18 18" fill="none" xmlns="http://www.w3.org/2000/svg">
<path d="M17 5V13.8C17 14.9201 17.0002 15.4801 16.7822 15.908C16.5905 16.2843 16.2841 16.5902 15.9078 16.782C15.48 17 14.9203 17 13.8002 17H4.2002C3.08009 17 2.51962 17 2.0918 16.782C1.71547 16.5902 1.40973 16.2843 1.21799 15.908C1 15.4801 1 14.9201 1 13.8V5M17 5H1M17 5L15.6357 2.61237C15.3002 2.02513 15.1322 1.73149 14.8965 1.51788C14.6879 1.32889 14.442 1.18605 14.1744 1.09871C13.8719 1 13.5334 1 12.8571 1H5.14258C4.46623 1 4.12861 1 3.82617 1.09871C3.55859 1.18605 3.31195 1.32889 3.10336 1.51788C2.8676 1.7315 2.69993 2.02513 2.36437 2.61237L1 5M9 8L9 14M9 14L12 12M9 14L6 12" stroke="#5D5D62" stroke-width="2" stroke-linecap="round" stroke-linejoin="round"/>
</svg>
