<svg fill="none" xmlns="http://www.w3.org/2000/svg">
    <symbol id="ico_notebook" viewBox="0 0 24 24">
        <path d="M4.21799 5.09204L5.10899 5.54603L4.21799 5.09204ZM5.0918 4.21799L5.54579 5.10899L5.0918 4.21799ZM5.0918 19.782L5.54579 18.891H5.54579L5.0918 19.782ZM4.21799 18.908L3.32698 19.362H3.32698L4.21799 18.908ZM19.7822 18.908L18.8912 18.454L19.7822 18.908ZM18.9078 19.782L18.4538 18.891L18.9078 19.782ZM19.7822 5.09204L18.8912 5.54603V5.54603L19.7822 5.09204ZM18.9078 4.21799L19.3618 3.32698V3.32698L18.9078 4.21799ZM12 10C11.4477 10 11 10.4477 11 11C11 11.5523 11.4477 12 12 12V10ZM16 12C16.5523 12 17 11.5523 17 11C17 10.4477 16.5523 10 16 10V12ZM12 7C11.4477 7 11 7.44772 11 8C11 8.55228 11.4477 9 12 9V7ZM16 9C16.5523 9 17 8.55228 17 8C17 7.44772 16.5523 7 16 7V9ZM7 20C7 20.5523 7.44772 21 8 21C8.55228 21 9 20.5523 9 20H7ZM9 4C9 3.44772 8.55229 3 8 3C7.44772 3 7 3.44772 7 4L9 4ZM19 7.20001V16.8H21V7.20001H19ZM16.8002 19H7.2002V21H16.8002V19ZM5 16.8V7.20001H3V16.8H5ZM7.2002 5H16.8002V3H7.2002V5ZM5 7.20001C5 6.62346 5.00078 6.25119 5.02393 5.96785C5.04612 5.69619 5.0838 5.59548 5.10899 5.54603L3.32698 4.63805C3.13419 5.01643 3.06287 5.40964 3.03057 5.80499C2.99922 6.18866 3 6.65646 3 7.20001H5ZM7.2002 3C6.65663 3 6.18874 2.99922 5.80498 3.03057C5.40962 3.06286 5.01624 3.13416 4.63781 3.32698L5.54579 5.10899C5.59517 5.08383 5.69595 5.04613 5.9678 5.02393C6.25126 5.00078 6.62365 5 7.2002 5V3ZM5.10899 5.54603C5.205 5.35761 5.35788 5.20474 5.54579 5.10899L4.63781 3.32698C4.07306 3.61473 3.61447 4.07382 3.32698 4.63805L5.10899 5.54603ZM7.2002 19C6.62367 19 6.25127 18.9992 5.96782 18.9761C5.69598 18.9538 5.59519 18.9161 5.54579 18.891L4.63781 20.673C5.01623 20.8658 5.40959 20.9371 5.80496 20.9694C6.18873 21.0008 6.65662 21 7.2002 21V19ZM3 16.8C3 17.3436 2.99922 17.8114 3.03057 18.195C3.06287 18.5904 3.13419 18.9836 3.32698 19.362L5.10899 18.454C5.0838 18.4045 5.04612 18.3038 5.02393 18.0322C5.00078 17.7488 5 17.3766 5 16.8H3ZM5.54579 18.891C5.35784 18.7952 5.20498 18.6424 5.10899 18.454L3.32698 19.362C3.61449 19.9262 4.0731 20.3853 4.63781 20.673L5.54579 18.891ZM19 16.8C19 17.3767 18.9993 17.7489 18.9762 18.0323C18.954 18.304 18.9164 18.4046 18.8912 18.454L20.6732 19.362C20.8661 18.9835 20.9373 18.5902 20.9695 18.1949C21.0008 17.8113 21 17.3435 21 16.8H19ZM16.8002 21C17.3438 21 17.8115 21.0008 18.1951 20.9694C18.5904 20.9371 18.9835 20.8657 19.3618 20.673L18.4538 18.891C18.4043 18.9162 18.3036 18.9539 18.0321 18.9761C17.7489 18.9992 17.3767 19 16.8002 19V21ZM18.8912 18.454C18.7956 18.6417 18.6424 18.7949 18.4538 18.891L19.3618 20.673C19.9258 20.3856 20.3854 19.9269 20.6732 19.362L18.8912 18.454ZM21 7.20001C21 6.65656 21.0008 6.18875 20.9696 5.80515C20.9373 5.40986 20.8661 5.01654 20.6732 4.63805L18.8912 5.54603C18.9164 5.59536 18.954 5.69598 18.9762 5.96769C18.9993 6.2511 19 6.62336 19 7.20001H21ZM16.8002 5C17.3768 5 17.7489 5.00078 18.0321 5.02393C18.3036 5.04611 18.4043 5.08377 18.4538 5.10899L19.3618 3.32698C18.9835 3.13421 18.5904 3.06288 18.1951 3.03057C17.8115 2.99922 17.3437 3 16.8002 3V5ZM20.6732 4.63805C20.3854 4.07315 19.9259 3.61439 19.3618 3.32698L18.4538 5.10899C18.6424 5.20508 18.7956 5.35828 18.8912 5.54603L20.6732 4.63805ZM12 12H16V10H12V12ZM12 9H16V7H12V9ZM9 20L9 4L7 4L7 20H9Z"/>
    </symbol>
    <symbol id="ico_creditCard" viewBox="0 0 24 24">
        <path d="M3.21799 6.09204L4.10899 6.54603L3.21799 6.09204ZM4.0918 5.21799L4.54579 6.10899L4.0918 5.21799ZM4.0918 18.782L4.54579 17.891H4.54579L4.0918 18.782ZM3.21799 17.908L2.32698 18.362H2.32698L3.21799 17.908ZM20.7822 17.908L19.8912 17.454L20.7822 17.908ZM19.9078 18.782L19.4538 17.891L19.9078 18.782ZM20.7822 6.09204L19.8912 6.54603V6.54603L20.7822 6.09204ZM19.9078 5.21799L20.3618 4.32698V4.32698L19.9078 5.21799ZM7 14C6.44772 14 6 14.4477 6 15C6 15.5523 6.44772 16 7 16V14ZM11 16C11.5523 16 12 15.5523 12 15C12 14.4477 11.5523 14 11 14V16ZM3 10C2.44772 10 2 10.4477 2 11C2 11.5523 2.44772 12 3 12V10ZM21 12C21.5523 12 22 11.5523 22 11C22 10.4477 21.5523 10 21 10V12ZM3 8C2.44772 8 2 8.44772 2 9C2 9.55228 2.44772 10 3 10V8ZM21 10C21.5523 10 22 9.55228 22 9C22 8.44772 21.5523 8 21 8V10ZM20 8.19995V15.8H22V8.19995H20ZM17.8002 18H6.2002V20H17.8002V18ZM4 15.8V8.19995H2V15.8H4ZM6.2002 6H17.8002V4H6.2002V6ZM4 8.19995C4 7.6234 4.00078 7.25114 4.02393 6.96783C4.04612 6.6962 4.0838 6.59549 4.10899 6.54603L2.32698 5.63805C2.13419 6.01642 2.06287 6.40961 2.03057 6.80495C1.99922 7.18861 2 7.6564 2 8.19995H4ZM6.2002 4C5.65663 4 5.18874 3.99922 4.80498 4.03057C4.40962 4.06286 4.01624 4.13416 3.63781 4.32698L4.54579 6.10899C4.59517 6.08383 4.69595 6.04613 4.9678 6.02393C5.25126 6.00078 5.62365 6 6.2002 6V4ZM4.10899 6.54603C4.205 6.35761 4.35788 6.20474 4.54579 6.10899L3.63781 4.32698C3.07306 4.61473 2.61447 5.07382 2.32698 5.63805L4.10899 6.54603ZM6.2002 18C5.62367 18 5.25127 17.9992 4.96782 17.9761C4.69598 17.9538 4.59519 17.9161 4.54579 17.891L3.63781 19.673C4.01623 19.8658 4.40959 19.9371 4.80496 19.9694C5.18873 20.0008 5.65662 20 6.2002 20V18ZM2 15.8C2 16.3435 1.99922 16.8113 2.03057 17.195C2.06287 17.5904 2.13418 17.9836 2.32698 18.362L4.10899 17.454C4.08381 17.4046 4.04613 17.3039 4.02393 17.0322C4.00078 16.7488 4 16.3765 4 15.8H2ZM4.54579 17.891C4.35778 17.7952 4.20494 17.6424 4.10899 17.454L2.32698 18.362C2.61452 18.9264 3.07317 19.3853 3.63781 19.673L4.54579 17.891ZM20 15.8C20 16.3766 19.9993 16.7489 19.9762 17.0323C19.954 17.3041 19.9163 17.4047 19.8912 17.454L21.6732 18.362C21.8661 17.9835 21.9373 17.5902 21.9696 17.1949C22.0008 16.8112 22 16.3434 22 15.8H20ZM17.8002 20C18.3438 20 18.8115 20.0008 19.1951 19.9694C19.5904 19.9371 19.9835 19.8657 20.3618 19.673L19.4538 17.891C19.4043 17.9162 19.3036 17.9539 19.0321 17.9761C18.7489 17.9992 18.3767 18 17.8002 18V20ZM19.8912 17.454C19.7956 17.6417 19.6425 17.7948 19.4538 17.891L20.3618 19.673C20.9257 19.3856 21.3854 18.927 21.6732 18.362L19.8912 17.454ZM22 8.19995C22 7.6565 22.0008 7.1887 21.9695 6.80511C21.9373 6.40983 21.8661 6.01653 21.6732 5.63805L19.8912 6.54603C19.9164 6.59537 19.954 6.69598 19.9762 6.96767C19.9993 7.25105 20 7.6233 20 8.19995H22ZM17.8002 6C18.3768 6 18.7489 6.00078 19.0321 6.02393C19.3036 6.04611 19.4043 6.08377 19.4538 6.10899L20.3618 4.32698C19.9835 4.13421 19.5904 4.06288 19.1951 4.03057C18.8115 3.99922 18.3437 4 17.8002 4V6ZM21.6732 5.63805C21.3854 5.07316 20.9259 4.61439 20.3618 4.32698L19.4538 6.10899C19.6424 6.20507 19.7956 6.35828 19.8912 6.54603L21.6732 5.63805ZM7 16H11V14H7V16ZM3 12H21V10H3V12ZM3 10H21V8H3V10Z">
    </symbol>
    <symbol id="ico_download" viewBox="0 0 24 24">
        <path d="M20 8V16.8C20 17.9201 20.0002 18.4801 19.7822 18.908C19.5905 19.2843 19.2841 19.5902 18.9078 19.782C18.48 20 17.9203 20 16.8002 20H7.2002C6.08009 20 5.51962 20 5.0918 19.782C4.71547 19.5902 4.40973 19.2843 4.21799 18.908C4 18.4801 4 17.9201 4 16.8V8M20 8H4M20 8L18.6357 5.61237C18.3002 5.02513 18.1322 4.73149 17.8965 4.51788C17.6879 4.32889 17.442 4.18605 17.1744 4.09871C16.8719 4 16.5334 4 15.8571 4H8.14258C7.46623 4 7.12861 4 6.82617 4.09871C6.55859 4.18605 6.31195 4.32889 6.10336 4.51788C5.8676 4.7315 5.69993 5.02513 5.36437 5.61237L4 8M12 11L12 17M12 17L15 15M12 17L9 15" stroke-width="2" stroke-linecap="round" stroke-linejoin="round"/>
    </symbol>
    <symbol id="ico_settings" viewBox="0 0 24 24">
        <path d="M20.35 8.923L19.9838 8.71927C19.9269 8.68763 19.8984 8.67176 19.871 8.65531C19.5979 8.49172 19.3679 8.26529 19.1999 7.99489C19.183 7.96768 19.1664 7.93956 19.1338 7.88317L19.1337 7.88295C19.1012 7.82663 19.0848 7.7983 19.0697 7.77005C18.919 7.48873 18.8379 7.17547 18.8331 6.85638C18.8326 6.82759 18.8331 6.79813 18.834 6.74528L18.8343 6.72624L18.8414 6.30924C18.8529 5.6232 18.8586 5.28024 18.7626 4.97269C18.6776 4.7006 18.5357 4.44977 18.3459 4.23709C18.1317 3.99711 17.8348 3.82601 17.2424 3.48461L17.2393 3.48283L16.7455 3.19827C16.1526 2.85664 15.8561 2.6859 15.5414 2.62076C15.2629 2.56313 14.9754 2.56543 14.698 2.62772C14.3851 2.69794 14.0926 2.8731 13.5086 3.22282L13.5041 3.2255L13.1503 3.43736C13.0943 3.47086 13.066 3.48757 13.038 3.50316C12.7597 3.65788 12.4485 3.74397 12.1303 3.75418C12.0982 3.75521 12.0656 3.75521 12.0004 3.75521H11.9995C11.9347 3.75521 11.9025 3.75521 11.8705 3.75418C11.5516 3.74392 11.2394 3.65745 10.9607 3.50209C10.9336 3.487 10.9067 3.47085 10.8546 3.43958L10.8486 3.43597L10.4925 3.2222L10.4899 3.22059C9.9023 2.86784 9.60823 2.6913 9.29382 2.62076C9.01525 2.55826 8.72629 2.55616 8.44683 2.61453C8.13092 2.68052 7.83353 2.85309 7.239 3.19815L6.75134 3.48119C6.1599 3.82445 5.8646 3.99601 5.65124 4.23616C5.46248 4.44862 5.32109 4.69888 5.23664 4.97025C5.14119 5.27698 5.14657 5.61891 5.15807 6.30264L5.16522 6.7273C5.1663 6.79161 5.16702 6.82379 5.16655 6.85542C5.16182 7.17516 5.0804 7.48909 4.92929 7.77091C4.91434 7.79878 4.89824 7.82665 4.86608 7.88232C4.8339 7.93803 4.81783 7.96582 4.80114 7.99271C4.63242 8.26456 4.40094 8.49205 4.12613 8.65592C4.09895 8.67212 4.07104 8.68771 4.01476 8.7189L3.65319 8.91927L3.65307 8.91934C3.05158 9.25266 2.7509 9.41929 2.5321 9.65669C2.33853 9.86672 2.19195 10.1158 2.10269 10.3871C2.00192 10.6934 2.0027 11.0368 2.00426 11.7228L2.00427 11.7255L2.00554 12.2876L2.00556 12.2937C2.0071 12.9728 2.00787 13.3133 2.1087 13.617C2.19816 13.8865 2.344 14.1338 2.53649 14.3426C2.75383 14.5783 3.05212 14.7442 3.64782 15.0756L3.64977 15.0767L4.00811 15.276L4.01309 15.2788C4.07079 15.3109 4.10054 15.3275 4.12914 15.3447C4.40145 15.5087 4.63043 15.7352 4.79772 16.0055C4.81579 16.0347 4.83314 16.065 4.86781 16.1256L4.86784 16.1256C4.9021 16.1855 4.91943 16.2154 4.93528 16.2454C5.08195 16.5231 5.16121 16.8314 5.16657 17.1454C5.16715 17.1793 5.16661 17.2139 5.16544 17.2829L5.15856 17.6904L5.15854 17.6919C5.14697 18.377 5.14119 18.7197 5.23713 19.027C5.32208 19.2991 5.46438 19.5499 5.65417 19.7626C5.86869 20.003 6.1656 20.1744 6.76013 20.517L7.25383 20.8015C7.84668 21.1431 8.14354 21.3139 8.45828 21.379C8.73673 21.4366 9.02419 21.4343 9.30163 21.372C9.61457 21.3017 9.90718 21.1265 10.4917 20.7765L10.4955 20.7743L10.8493 20.5624C10.9053 20.5289 10.9334 20.5122 10.9615 20.4966C11.2398 20.3419 11.5508 20.2558 11.869 20.2456C11.9011 20.2445 11.9337 20.2445 11.9989 20.2445C12.0643 20.2445 12.0975 20.2445 12.1296 20.2456C12.4485 20.2558 12.7602 20.3422 13.0389 20.4976C13.067 20.5132 13.0952 20.5301 13.1512 20.5638L13.5073 20.7775L13.508 20.7779C14.0969 21.1315 14.3913 21.3083 14.7061 21.3789C14.9847 21.4414 15.2731 21.4436 15.5526 21.3852C15.8685 21.3193 16.1661 21.1467 16.7606 20.8016L17.2483 20.5186C17.8397 20.1753 18.1351 20.0037 18.3484 19.7636C18.5372 19.5511 18.6786 19.3009 18.7631 19.0295C18.8585 18.7228 18.853 18.3809 18.8415 17.6972L18.8343 17.2725L18.834 17.251C18.8331 17.2006 18.8326 17.1723 18.833 17.1444C18.8378 16.8247 18.9191 16.5107 19.0702 16.2289C19.0851 16.2011 19.1012 16.1732 19.1333 16.1177L19.1334 16.1175C19.1656 16.0618 19.1819 16.0339 19.1986 16.007C19.3674 15.7351 19.5986 15.5078 19.8734 15.3439C19.8997 15.3282 19.9271 15.3131 19.9797 15.2839L19.9852 15.2808L20.3468 15.0805C20.9484 14.7471 21.2489 14.5805 21.4677 14.3431C21.6613 14.133 21.8076 13.884 21.8968 13.6127C21.9977 13.306 21.9973 12.9621 21.9958 12.2743L21.9945 11.7122C21.993 11.029 21.9921 10.6873 21.891 10.3827C21.8015 10.1132 21.6556 9.86592 21.4631 9.65716C21.2455 9.42119 20.947 9.25512 20.35 8.923Z" stroke-width="2" stroke-linecap="round" stroke-linejoin="round"/>
    </symbol>
    <symbol id="ico_search" viewBox="0 0 24 24">
        <path d="M13.7071 12.2929C13.3166 11.9024 12.6834 11.9024 12.2929 12.2929C11.9024 12.6834 11.9024 13.3166 12.2929 13.7071L13.7071 12.2929ZM18.2929 19.7071C18.6834 20.0976 19.3166 20.0976 19.7071 19.7071C20.0976 19.3166 20.0976 18.6834 19.7071 18.2929L18.2929 19.7071ZM8 14C4.68629 14 2 11.3137 2 8H0C0 12.4183 3.58172 16 8 16V14ZM2 8C2 4.68629 4.68629 2 8 2V0C3.58172 0 0 3.58172 0 8H2ZM8 2C11.3137 2 14 4.68629 14 8H16C16 3.58172 12.4183 0 8 0V2ZM14 8C14 11.3137 11.3137 14 8 14V16C12.4183 16 16 12.4183 16 8H14ZM12.2929 13.7071L18.2929 19.7071L19.7071 18.2929L13.7071 12.2929L12.2929 13.7071Z" />
    </symbol>
    <symbol id="ico_plus" viewBox="0 0 24 24">
        <path d="M6 12H18M12 18L12 6" stroke-width="2" stroke-linecap="round" stroke-linejoin="round"/>
    </symbol>
    <symbol id="ico_support" viewBox="0 0 24 24">
        <path d="M12 20C7.58172 20 4 16.4183 4 12H2C2 17.5228 6.47715 22 12 22V20ZM4 12C4 7.58172 7.58172 4 12 4V2C6.47715 2 2 6.47715 2 12H4ZM12 4C16.4183 4 20 7.58172 20 12H22C22 6.47715 17.5228 2 12 2V4ZM20 12C20 16.4183 16.4183 20 12 20V22C17.5228 22 22 17.5228 22 12H20Z" fill="#8C8D92"/>
        <path d="M11.7781 13.4497C11.2424 13.4497 10.7891 13.0119 10.8709 12.4826C10.8837 12.4 10.8984 12.3274 10.9151 12.2694C10.9863 12.0215 11.0918 11.8229 11.2315 11.6736C11.3712 11.5218 11.5425 11.3852 11.7452 11.2638C11.9205 11.1575 12.0767 11.055 12.2137 10.9564C12.3534 10.8577 12.463 10.7527 12.5425 10.6414C12.6247 10.53 12.6658 10.4035 12.6658 10.2619C12.6658 10.1354 12.6329 10.024 12.5671 9.92789C12.5014 9.83175 12.4123 9.75712 12.3 9.70399C12.1877 9.65085 12.063 9.62429 11.926 9.62429C11.7781 9.62429 11.6411 9.65591 11.5151 9.71917C11.3918 9.78242 11.2918 9.8697 11.2151 9.98102C11.0901 10.169 10.9211 10.3681 10.6954 10.3681H10.0099C9.45376 10.3681 8.96653 9.89223 9.19128 9.38353C9.25068 9.24908 9.32391 9.12566 9.41096 9.01328C9.67945 8.66414 10.0356 8.4086 10.4795 8.24668C10.9233 8.08223 11.411 8 11.9425 8C12.5288 8 13.0521 8.0797 13.5123 8.23909C13.9726 8.39595 14.3356 8.63378 14.6014 8.95256C14.8671 9.26882 15 9.66477 15 10.1404C15 10.4466 14.9425 10.716 14.8274 10.9488C14.7151 11.179 14.5575 11.3827 14.3548 11.5598C14.1548 11.7343 13.9205 11.8937 13.6521 12.038C13.4548 12.1442 13.289 12.2543 13.1548 12.3681C13.0205 12.4794 12.9192 12.6072 12.8507 12.7514C12.6801 13.1042 12.4303 13.4497 12.0384 13.4497H11.7781ZM11.811 16C11.4932 16 11.2205 15.8975 10.9932 15.6926C10.7685 15.4851 10.6575 15.2334 10.6603 14.9374C10.6575 14.649 10.7685 14.4023 10.9932 14.1973C11.2205 13.9924 11.4932 13.8899 11.811 13.8899C12.1123 13.8899 12.3781 13.9924 12.6082 14.1973C12.8411 14.4023 12.9589 14.649 12.9616 14.9374C12.9589 15.1347 12.9027 15.3144 12.7932 15.4763C12.6863 15.6357 12.5466 15.7634 12.374 15.8596C12.2014 15.9532 12.0137 16 11.811 16Z" />
    </symbol>
    <symbol id="ico_messages" viewBox="0 0 24 24">
        <path d="M4.41406 14.5858L4.80357 14.1963C4.92924 14.0706 5 13.9002 5 13.7224V10C5 6.13401 8.13401 3.00001 12 3C15.866 2.99999 19 6.134 19 10V13.7224C19 13.9001 19.0706 14.0706 19.1963 14.1963L19.5858 14.5858C19.7051 14.7051 19.7649 14.7648 19.8124 14.831C19.9023 14.9561 19.9619 15.1003 19.9868 15.2523C20 15.3328 20.0002 15.4171 20.0002 15.5858C20.0002 15.9714 20.0002 16.1642 19.9478 16.3197C19.848 16.6155 19.6156 16.8477 19.3198 16.9475C19.1643 17 18.9712 17 18.5856 17H5.41406C5.02852 17 4.83568 17 4.68018 16.9475C4.38431 16.8477 4.15225 16.6155 4.05245 16.3196C4 16.1641 4 15.9714 4 15.5858C4 15.4171 4 15.3328 4.0132 15.2523C4.03815 15.1003 4.09766 14.9561 4.1875 14.831C4.23504 14.7648 4.29476 14.7051 4.41406 14.5858ZM15 17V18C15 19.6569 13.6569 21 12 21C10.3431 21 9 19.6569 9 18V17H15Z" stroke-width="2" stroke-linecap="round" stroke-linejoin="round"/>
    </symbol>
    <symbol id="ico_chevronDrop" viewBox="0 0 24 24">
        <path d="M15 11L12 14L9 11" stroke-width="2" stroke-linecap="round" stroke-linejoin="round"/>
    </symbol>
    <symbol id="ico_chart" viewBox="0 0 24 24">
        <path d="M9 20V11H4.59961C4.03956 11 3.75981 11 3.5459 11.109C3.35774 11.2049 3.20487 11.3579 3.10899 11.546C3 11.7599 3 12.0399 3 12.6V20H9ZM9 20H15M9 20V5.59998C9 5.03992 9 4.75993 9.10899 4.54602C9.20487 4.35786 9.35774 4.20487 9.5459 4.10899C9.75981 4 10.0396 4 10.5996 4H13.3996C13.9597 4 14.2405 4 14.4544 4.10899C14.6425 4.20487 14.7948 4.35786 14.8906 4.54602C14.9996 4.75993 15 5.03992 15 5.59998V20M15 20L21 20V9.59998C21 9.03992 20.9996 8.75993 20.8906 8.54602C20.7948 8.35786 20.6425 8.20487 20.4544 8.10899C20.2405 8 19.9601 8 19.4 8H15V20Z"  stroke-width="2" stroke-linecap="round" stroke-linejoin="round"/>
    </symbol>
    <symbol id="ico_fileDocument" viewBox="0 0 24 24">
        <path d="M9 17H15M9 14H15M18.9996 9H14.5996C14.0396 9 13.7598 8.99998 13.5459 8.89099C13.3577 8.79512 13.2049 8.64218 13.109 8.45401C13 8.2401 13 7.96005 13 7.4V3M19 17.8V9.65399C19 9.19048 19.0002 8.95872 18.9502 8.73932C18.9059 8.54475 18.8328 8.35788 18.7332 8.18499C18.6208 7.99002 18.4632 7.81997 18.1483 7.47986L14.9502 4.02588C14.6002 3.64789 14.425 3.45888 14.2168 3.32343C14.0322 3.20337 13.8286 3.11464 13.6151 3.06077C13.3743 3 13.1172 3 12.6021 3H8.2002C7.08009 3 6.51962 3 6.0918 3.21799C5.71547 3.40973 5.40973 3.71572 5.21799 4.09204C5 4.51986 5 5.07991 5 6.20001V17.8C5 18.9201 5 19.4801 5.21799 19.908C5.40973 20.2843 5.71547 20.5902 6.0918 20.782C6.51962 21 7.08009 21 8.2002 21H15.8002C16.9203 21 17.48 21 17.9078 20.782C18.2841 20.5902 18.5905 20.2843 18.7822 19.908C19.0002 19.4801 19 18.9201 19 17.8Z" stroke-width="2" stroke-linecap="round" stroke-linejoin="round"/>
    </symbol>
    <symbol id="ico_suitcase" viewBox="0 0 24 24">
        <path d="M16 8C16 5.79086 14.2091 4 12 4C9.79086 4 8 5.79086 8 8M21 11.2V16.8C21 17.9201 21.0002 18.4802 20.7822 18.908C20.5905 19.2844 20.2841 19.5902 19.9078 19.782C19.48 20 18.9203 20 17.8002 20H6.2002C5.08009 20 4.51962 20 4.0918 19.782C3.71547 19.5902 3.40973 19.2844 3.21799 18.908C3 18.4802 3 17.9201 3 16.8V11.2C3 10.0798 3 9.51986 3.21799 9.09204C3.40973 8.71572 3.71547 8.40973 4.0918 8.21799C4.51962 8 5.08009 8 6.2002 8H17.8002C18.9203 8 19.48 8 19.9078 8.21799C20.2841 8.40973 20.5905 8.71572 20.7822 9.09204C21.0002 9.51986 21 10.0798 21 11.2Z" stroke-width="2" stroke-linecap="round" stroke-linejoin="round"/>
    </symbol>
    <symbol id="ico_usersGroup" viewBox="0 0 24 24">
        <path d="M17 20C17 18.3431 14.7614 17 12 17C9.23858 17 7 18.3431 7 20M21 16.9999C21 15.7697 19.7659 14.7124 18 14.2495M3 16.9999C3 15.7697 4.2341 14.7124 6 14.2495M18 10.2361C18.6137 9.68679 19 8.8885 19 8C19 6.34315 17.6569 5 16 5C15.2316 5 14.5308 5.28885 14 5.76389M6 10.2361C5.38625 9.68679 5 8.8885 5 8C5 6.34315 6.34315 5 8 5C8.76835 5 9.46924 5.28885 10 5.76389M12 14C10.3431 14 9 12.6569 9 11C9 9.34315 10.3431 8 12 8C13.6569 8 15 9.34315 15 11C15 12.6569 13.6569 14 12 14Z" stroke="#8C8D92" stroke-width="2" stroke-linecap="round" stroke-linejoin="round"/>
    </symbol>
    <symbol id="ico_chartPie" viewBox="0 0 24 24">
        <path d="M17.2652 19.1783C17.6398 19.5841 18.2725 19.6094 18.6783 19.2348C19.0841 18.8602 19.1094 18.2275 18.7348 17.8217L17.2652 19.1783ZM12 12H11C11 12.2514 11.0947 12.4936 11.2652 12.6783L12 12ZM12 20C7.58172 20 4 16.4183 4 12H2C2 17.5228 6.47715 22 12 22V20ZM4 12C4 7.58172 7.58172 4 12 4V2C6.47715 2 2 6.47715 2 12H4ZM12 4C16.4183 4 20 7.58172 20 12H22C22 6.47715 17.5228 2 12 2V4ZM20 12C20 16.4183 16.4183 20 12 20V22C17.5228 22 22 17.5228 22 12H20ZM18.7348 17.8217L12.7348 11.3217L11.2652 12.6783L17.2652 19.1783L18.7348 17.8217ZM13 12V3H11V12H13ZM12 13H21V11H12V13Z"/>
    </symbol>
    <symbol id="ico_orderUser" viewBox="0 0 24 24">
        <path fill-rule="evenodd" clip-rule="evenodd" d="M11.66 4.00625C10.6825 4.15214 9.96485 4.50387 9.31154 5.15718C8.73902 5.7297 8.38938 6.37497 8.21694 7.17723C8.14835 7.49632 8.13888 8.30255 8.20008 8.61135C8.31285 9.18034 8.52436 9.69707 8.83428 10.1607C9.00259 10.4124 9.3907 10.8314 9.64089 11.0315L9.77968 11.1424L9.50015 11.2832C9.16756 11.4506 8.75187 11.7208 8.40752 11.9934C8.08962 12.2451 7.53095 12.8064 7.25606 13.1505C5.98697 14.7389 5.239 16.9064 5.22186 19.0456C5.2178 19.5545 5.2208 19.5823 5.29182 19.6966C5.33264 19.7623 5.42308 19.8537 5.49282 19.8999L5.6196 19.9838L12.0523 19.9919L18.485 20L18.6522 19.9126C18.7882 19.8416 18.8364 19.7933 18.91 19.6543L19.0005 19.4834L18.9805 18.9987C18.8782 16.5127 18.0841 14.4286 16.6077 12.7712C16.1019 12.2033 15.3274 11.6002 14.6985 11.2843L14.4159 11.1424L14.5547 11.0315C14.7831 10.8488 15.1641 10.4389 15.3345 10.1924C16.4079 8.63968 16.2465 6.58141 14.9442 5.21291C14.6219 4.87418 14.2316 4.58984 13.8179 4.39223C13.2365 4.11458 12.8541 4.02257 12.2073 4.00475C11.9579 3.99787 11.7116 3.99855 11.66 4.00625ZM12.7858 5.32993C13.527 5.52552 14.1758 6.06161 14.5104 6.75504C14.7179 7.18486 14.7799 7.45851 14.7799 7.94344C14.7799 8.26077 14.7652 8.40491 14.7128 8.60018C14.4478 9.58724 13.6814 10.3342 12.6867 10.575C12.4002 10.6443 11.7954 10.6443 11.509 10.575C11.0198 10.4566 10.5903 10.2207 10.2264 9.8707C9.30147 8.98109 9.13353 7.5963 9.81749 6.49897C10.0122 6.18649 10.3807 5.82509 10.6993 5.63404C10.9668 5.47363 11.3628 5.32211 11.6458 5.27186C11.9137 5.22429 12.4984 5.25406 12.7858 5.32993ZM12.7795 12.5352L13.0986 13.1551L12.9246 13.489L12.7505 13.8229L12.095 13.8313L11.4394 13.8397L11.2691 13.4946L11.0988 13.1495L11.2805 12.7825C11.3804 12.5807 11.5252 12.299 11.6023 12.1566L11.7425 11.8976L12.1015 11.9064L12.4604 11.9152L12.7795 12.5352ZM9.93623 12.6787C9.83538 12.8717 9.78562 13.0085 9.77461 13.1233C9.75913 13.2843 9.76779 13.3068 10.0817 13.9187L10.4047 14.5484L10.0836 15.8744C9.90702 16.6037 9.67801 17.5487 9.57468 17.9744L9.38682 18.7485H7.93103H6.47522L6.49705 18.4595C6.57457 17.4323 6.90054 16.2576 7.3758 15.2927C7.97128 14.0838 8.73495 13.209 9.74925 12.5742C9.90236 12.4783 10.0399 12.3999 10.0548 12.3999C10.0697 12.3999 10.0164 12.5254 9.93623 12.6787ZM14.4844 12.597C16.1685 13.65 17.3639 15.7511 17.6634 18.1846C17.6898 18.3991 17.7114 18.6137 17.7114 18.6615V18.7485H16.2593C14.9033 18.7485 14.8061 18.7448 14.7911 18.6937C14.7386 18.5158 13.8022 14.607 13.8022 14.566C13.8022 14.5385 13.9372 14.2554 14.1022 13.9368C14.4899 13.188 14.4933 13.1637 14.2731 12.7168C14.0912 12.3478 14.0884 12.3494 14.4844 12.597ZM13.0638 16.8799C13.3025 17.8646 13.5045 18.6879 13.5126 18.7094C13.5243 18.7403 13.2288 18.7485 12.0991 18.7485C10.7534 18.7485 10.6716 18.7453 10.6866 18.6937C10.7189 18.5831 11.5507 15.1356 11.5506 15.1129C11.5505 15.1 11.7934 15.0895 12.0901 15.0895H12.6298L13.0638 16.8799Z"/>
    </symbol>
    <symbol id="ico_orderDate" viewBox="0 0 24 24">
        <path fill-rule="evenodd" clip-rule="evenodd" d="M8.09619 4.0326C7.9421 4.08644 7.80961 4.20364 7.73979 4.34785C7.68466 4.46176 7.67406 4.54169 7.67406 4.84409V5.20455L7.18118 5.22394C6.49627 5.25092 6.14237 5.3331 5.6624 5.57662C4.87468 5.97626 4.3109 6.6925 4.06792 7.60227L4 7.85654V12.6094V17.3622L4.07117 17.6418C4.14818 17.9442 4.35543 18.411 4.51693 18.6457C4.65833 18.8512 4.99784 19.2049 5.2116 19.3694C5.61102 19.6767 6.16857 19.9062 6.67769 19.9728C6.86055 19.9968 8.51037 20.0043 12.1611 19.9978L17.383 19.9885L17.6251 19.9196C18.1819 19.7612 18.6005 19.5354 18.965 19.1968C19.5095 18.691 19.8247 18.1212 19.9465 17.4228C20.018 17.0123 20.0178 8.20485 19.9462 7.79426C19.8351 7.15738 19.5489 6.61558 19.0711 6.13739C18.4145 5.48037 17.7113 5.21828 16.5966 5.21515L16.3105 5.21434L16.2995 4.8105C16.2889 4.42024 16.2854 4.40216 16.1948 4.2739C15.9215 3.88717 15.3575 3.92019 15.1405 4.33566C15.0601 4.4895 15.0535 4.52962 15.0535 4.85831V5.21434H11.9891H8.92481V4.85831C8.92481 4.52962 8.91812 4.4895 8.83776 4.33566C8.6962 4.06471 8.3772 3.93435 8.09619 4.0326ZM7.67406 7.13836C7.67406 7.85705 7.6911 7.95782 7.83972 8.11714C8.15885 8.45925 8.76937 8.32114 8.89216 7.87903C8.90992 7.81508 8.92453 7.47075 8.92462 7.11391L8.92481 6.46509H11.9891H15.0535L15.0536 7.11391C15.0537 7.47075 15.0683 7.81508 15.0861 7.87903C15.2089 8.32114 15.8194 8.45925 16.1385 8.11714C16.2873 7.95764 16.3042 7.85739 16.3042 7.13377V6.45589L16.7498 6.47415C16.9995 6.48435 17.2767 6.5143 17.3804 6.54226C17.8774 6.67615 18.3247 7.04878 18.5546 7.52028C18.6916 7.80107 18.742 8.06952 18.7426 8.52101L18.7432 8.90405H11.9891H5.23511L5.23564 8.52101C5.2363 8.06952 5.2867 7.80107 5.42363 7.52028C5.69632 6.96095 6.2125 6.58891 6.84473 6.49598C6.93109 6.48329 7.15306 6.47112 7.33793 6.469L7.67406 6.46509V7.13836ZM18.7432 13.6363C18.7432 17.0178 18.7414 17.1248 18.6805 17.3628C18.5254 17.9692 18.0589 18.4655 17.4596 18.6618L17.2266 18.7381H11.9891H6.75164L6.51869 18.6618C6.24174 18.5711 5.88265 18.3393 5.7032 18.1355C5.51697 17.9239 5.36925 17.6422 5.29755 17.3619C5.23699 17.125 5.23511 17.0137 5.23511 13.6363V10.1548H11.9891H18.7432V13.6363ZM14.8346 15.7392C14.3143 15.9646 14.3185 16.6735 14.8414 16.8916C14.9353 16.9308 15.0976 16.94 15.6856 16.9394C16.5056 16.9386 16.5778 16.9233 16.7644 16.7109C17.0316 16.4066 16.9383 15.9491 16.5718 15.7665C16.4201 15.6909 16.402 15.6894 15.6805 15.6906C15.0934 15.6915 14.9218 15.7014 14.8346 15.7392Z"/>
    </symbol>
    <symbol id="ico_documentCopy" viewBox="0 0 20 20">
        <path d="M6.66602 3.33341V13.3334C6.66602 13.7754 6.84161 14.1994 7.15417 14.5119C7.46673 14.8245 7.89065 15.0001 8.33268 15.0001H14.9993C15.4414 15.0001 15.8653 14.8245 16.1779 14.5119C16.4904 14.1994 16.666 13.7754 16.666 13.3334V6.03508C16.666 5.81305 16.6216 5.59326 16.5354 5.38862C16.4493 5.18398 16.3231 4.99862 16.1643 4.84341L13.4018 2.14175C13.0905 1.8373 12.6723 1.6668 12.2368 1.66675H8.33268C7.89065 1.66675 7.46673 1.84234 7.15417 2.1549C6.84161 2.46746 6.66602 2.89139 6.66602 3.33341V3.33341Z" stroke-width="1.5" stroke-linecap="round" stroke-linejoin="round"/>
        <path d="M13.333 15.0002V16.6668C13.333 17.1089 13.1574 17.5328 12.8449 17.8453C12.5323 18.1579 12.1084 18.3335 11.6663 18.3335H4.99967C4.55765 18.3335 4.13372 18.1579 3.82116 17.8453C3.5086 17.5328 3.33301 17.1089 3.33301 16.6668V7.50016C3.33301 7.05814 3.5086 6.63421 3.82116 6.32165C4.13372 6.00909 4.55765 5.8335 4.99967 5.8335H6.66634" stroke-width="1.5" stroke-linecap="round" stroke-linejoin="round"/>
    </symbol>
    <symbol id="ico_documentImport" viewBox="0 0 21 20">
        <path fill-rule="evenodd" clip-rule="evenodd" d="M6.79345 2.06183L6.55712 2.11394C6.5478 2.116 6.53864 2.11871 6.52971 2.12208L6.2928 2.21127L6.05833 2.29959C6.04778 2.30356 6.03758 2.30842 6.02785 2.31412L5.75089 2.47612L5.48153 2.63367C5.46677 2.6423 5.45318 2.65279 5.44109 2.66488L5.12508 2.9809L4.809 3.29698C4.79695 3.30902 4.78649 3.32256 4.77787 3.33726L4.61133 3.62139L4.44161 3.91086C4.43506 3.92204 4.42961 3.93383 4.42534 3.94606L4.29842 4.30933L4.17624 4.65895C4.16882 4.68016 4.16504 4.70246 4.16504 4.72493V9.98953V15.2574C4.16504 15.2777 4.16814 15.2979 4.17422 15.3173L4.26283 15.5995L4.35581 15.8956C4.35902 15.9058 4.36303 15.9158 4.36782 15.9253L4.48679 16.1627L4.60611 16.4009C4.61066 16.41 4.61591 16.4187 4.6218 16.427L4.79056 16.6649L4.95634 16.8985C4.9642 16.9096 4.97317 16.9198 4.98312 16.9291L5.17155 17.1047L5.36392 17.2839C5.37126 17.2907 5.3791 17.297 5.38738 17.3026L5.56269 17.4225L5.75043 17.5508L6.00221 17.6775L6.23948 17.797C6.24914 17.8019 6.25919 17.806 6.26951 17.8092L6.56544 17.9021L6.84764 17.9907C6.86703 17.9968 6.88723 17.9999 6.90755 17.9999H10.8195H14.7315C14.7518 17.9999 14.772 17.9968 14.7914 17.9907L15.0736 17.9021L15.3697 17.8091C15.3799 17.8059 15.3898 17.8019 15.3994 17.7971L15.6368 17.6782L15.8749 17.5589C15.884 17.5543 15.8927 17.549 15.901 17.5432L16.1389 17.3744L16.3726 17.2086C16.3836 17.2008 16.3939 17.1918 16.4032 17.1818L16.5787 16.9934L16.7579 16.801C16.7647 16.7937 16.771 16.7859 16.7767 16.7776L16.8965 16.6023L17.0248 16.4145L17.1507 16.1642L17.2766 15.9139L17.3753 15.6218L17.4635 15.3606C17.4704 15.3402 17.474 15.3188 17.474 15.2973L17.4867 11.6375L17.4994 7.97358C17.4995 7.95476 17.4969 7.93603 17.4917 7.91793L17.4519 7.77833L17.4184 7.66114C17.4091 7.62854 17.3917 7.59885 17.3677 7.57484L14.7272 4.92613L12.0652 2.25585C12.0553 2.24588 12.0443 2.23699 12.0325 2.22932L11.8648 2.12041L11.7291 2.03233C11.6966 2.01123 11.6587 2.00003 11.6199 2.00008L9.36153 2.0033L7.06542 2.0066C7.05103 2.00662 7.03669 2.0082 7.02264 2.01129L6.79345 2.06183ZM10.829 4.6597L10.8443 5.95335C10.8445 5.97388 10.8479 5.99426 10.8543 6.01376L10.9412 6.27638L11.0331 6.55446C11.0362 6.56376 11.0399 6.57282 11.0443 6.58156L11.1636 6.81875L11.2895 7.06907L11.4178 7.25682L11.5377 7.43213C11.5433 7.4404 11.5496 7.44825 11.5564 7.45558L11.7356 7.64795L11.9112 7.83639C11.9204 7.84633 11.9307 7.8553 11.9418 7.86317L12.1754 8.02894L12.4132 8.19768C12.4216 8.20358 12.4303 8.20884 12.4395 8.21341L12.6761 8.33184L12.9134 8.45063C12.9221 8.45496 12.931 8.45865 12.9402 8.46168L13.2184 8.55367L13.4811 8.64048C13.5006 8.64693 13.5209 8.65033 13.5415 8.65057L14.8368 8.6659L15.9648 8.6792C16.0746 8.6805 16.1628 8.77012 16.1624 8.87995L16.151 11.8597L16.139 15.0031C16.1389 15.026 16.1349 15.0488 16.1272 15.0703L16.0418 15.3067L15.953 15.5529C15.9475 15.568 15.9403 15.5823 15.9315 15.5957L15.7991 15.7951L15.6681 15.9924C15.6583 16.0071 15.6467 16.0204 15.6334 16.0321L15.5072 16.1429L15.3728 16.2609C15.3649 16.2678 15.3565 16.2741 15.3476 16.2797L15.2075 16.3682L15.0719 16.4538C15.06 16.4613 15.0474 16.4675 15.0343 16.4723L14.7829 16.565L14.5453 16.6525C14.5231 16.6607 14.4997 16.6649 14.4761 16.6649H10.8195H7.16221C7.13906 16.6649 7.11608 16.6608 7.0943 16.653L6.85828 16.5678L6.61201 16.4789C6.59696 16.4735 6.58261 16.4663 6.56928 16.4574L6.36756 16.3235L6.16901 16.1917C6.15357 16.1815 6.13962 16.1691 6.12758 16.155L5.98227 15.985L5.83527 15.8131C5.82434 15.8003 5.81507 15.7862 5.80767 15.7711L5.70875 15.5691L5.60961 15.3665C5.60239 15.3517 5.59701 15.3361 5.5936 15.3201L5.5397 15.0659L5.48505 14.8079C5.48216 14.7943 5.4807 14.7804 5.4807 14.7665V10.0104V5.25431C5.4807 5.24038 5.48216 5.22649 5.48505 5.21286L5.5397 4.95492L5.5936 4.70072C5.59701 4.68464 5.60239 4.66905 5.60961 4.65429L5.70875 4.45172L5.80767 4.24972C5.81507 4.23461 5.82434 4.2205 5.83527 4.20772L5.98227 4.03577L6.12726 3.86613C6.13951 3.85179 6.15373 3.83926 6.16949 3.82891L6.36531 3.70029L6.56621 3.56834C6.5786 3.56021 6.59184 3.55347 6.60571 3.54827L6.77376 3.48518L6.94456 3.42106C6.95663 3.41653 6.96911 3.41318 6.98183 3.41105L7.1701 3.37954L7.36145 3.34756C7.37216 3.34577 7.38299 3.34485 7.39385 3.34482L9.09543 3.33999L10.6151 3.33563C10.7248 3.33532 10.8143 3.42351 10.8156 3.53326L10.829 4.6597ZM15.0862 7.33504L15.0363 7.3456C15.0205 7.34895 15.0043 7.35037 14.9881 7.34982L14.4075 7.33004L13.8323 7.31044C13.8126 7.30977 13.793 7.30618 13.7743 7.29978L13.5336 7.21735L13.289 7.13362C13.2729 7.12808 13.2575 7.12048 13.2432 7.11103L13.0429 6.97804L12.8443 6.84626C12.8289 6.83601 12.8149 6.82366 12.8029 6.80957L12.6576 6.63956L12.5106 6.46761C12.4997 6.45482 12.4904 6.44071 12.483 6.4256L12.3841 6.2236L12.2849 6.02104C12.2777 6.00628 12.2723 5.99068 12.2689 5.97461L12.215 5.72041L12.1603 5.46233C12.1575 5.44879 12.156 5.43499 12.156 5.42114L12.1553 4.87894L12.1552 4.79941C12.155 4.62114 12.3705 4.53168 12.4966 4.6577L13.6572 5.81766L15.1066 7.26613C15.1295 7.28906 15.1179 7.32831 15.0862 7.33504ZM7.80972 8.09783L7.70507 8.15849C7.67411 8.17643 7.64853 8.20236 7.631 8.23356L7.56983 8.34243L7.50751 8.45328C7.49068 8.48321 7.48184 8.51696 7.48184 8.5513V8.67532V8.79936C7.48184 8.83369 7.49068 8.86744 7.5075 8.89736L7.57021 9.00892L7.6311 9.11725C7.64907 9.14922 7.67548 9.17563 7.70744 9.1936L7.81577 9.25449L7.92734 9.3172C7.95726 9.33402 7.99101 9.34286 8.02534 9.34286H8.81691H9.60848C9.6428 9.34286 9.67655 9.33402 9.70648 9.3172L9.81804 9.25449L9.92637 9.1936C9.95833 9.17563 9.98475 9.14922 10.0027 9.11725L10.0636 9.00892L10.1263 8.89736C10.1431 8.86744 10.152 8.83369 10.152 8.79936V8.67532V8.55129C10.152 8.51696 10.1431 8.48321 10.1263 8.45329L10.0636 8.34172L10.0027 8.23339C9.98475 8.20143 9.95833 8.17502 9.92637 8.15705L9.81804 8.09616L9.70658 8.03351C9.67659 8.01665 9.64276 8.00781 9.60836 8.00785L8.81123 8.00875L8.01532 8.00965C7.98015 8.00969 7.94561 8.019 7.91519 8.03665L7.80972 8.09783ZM7.80972 10.768L7.70507 10.8286C7.67411 10.8466 7.64853 10.8725 7.631 10.9037L7.56983 11.0126L7.50751 11.1234C7.49068 11.1533 7.48184 11.1871 7.48184 11.2214V11.3455V11.4695C7.48184 11.5038 7.49068 11.5376 7.5075 11.5675L7.57021 11.6791L7.6311 11.7874C7.64907 11.8194 7.67548 11.8458 7.70744 11.8637L7.81577 11.9246L7.92734 11.9873C7.95726 12.0042 7.99101 12.013 8.02534 12.013H10.8195H13.6137C13.648 12.013 13.6817 12.0042 13.7117 11.9873L13.8232 11.9246L13.9316 11.8637C13.9635 11.8458 13.9899 11.8194 14.0079 11.7874L14.0688 11.6791L14.1315 11.5675C14.1483 11.5376 14.1572 11.5038 14.1572 11.4695V11.3455V11.2214C14.1572 11.1871 14.1483 11.1533 14.1315 11.1234L14.0688 11.0119L14.0079 10.9035C13.9899 10.8716 13.9635 10.8451 13.9316 10.8272L13.8232 10.7663L13.7117 10.7036C13.6818 10.6868 13.648 10.6779 13.6136 10.6779L10.8138 10.6789L8.0154 10.6798C7.98018 10.6798 7.94559 10.6891 7.91512 10.7068L7.80972 10.768ZM7.80972 13.4381L7.70507 13.4987C7.67411 13.5167 7.64853 13.5426 7.631 13.5738L7.56983 13.6827L7.50751 13.7935C7.49068 13.8235 7.48184 13.8572 7.48184 13.8916V14.0156V14.1396C7.48184 14.1739 7.49068 14.2077 7.5075 14.2376L7.57021 14.3492L7.6311 14.4575C7.64907 14.4895 7.67548 14.5159 7.70744 14.5339L7.81577 14.5948L7.92734 14.6575C7.95726 14.6743 7.99101 14.6831 8.02534 14.6831H10.8195H13.6137C13.648 14.6831 13.6817 14.6743 13.7117 14.6575L13.8232 14.5948L13.9316 14.5339C13.9635 14.5159 13.9899 14.4895 14.0079 14.4575L14.0688 14.3492L14.1315 14.2376C14.1483 14.2077 14.1572 14.1739 14.1572 14.1396V14.0156V13.8915C14.1572 13.8572 14.1483 13.8235 14.1315 13.7935L14.0688 13.682L14.0079 13.5737C13.9899 13.5417 13.9635 13.5153 13.9316 13.4973L13.8232 13.4364L13.7117 13.3737C13.6818 13.3569 13.648 13.3481 13.6136 13.3481L10.8138 13.349L8.0154 13.35C7.98018 13.35 7.94559 13.3593 7.91512 13.377L7.80972 13.4381Z"/>
    </symbol>
    <symbol id="ico_modalClose" viewBox="0 0 24 25">
        <path d="M17.9962 18.5L6.17383 6.5M17.9962 6.5L6.17383 18.5" stroke-width="2" stroke-linecap="round" stroke-linejoin="round"/>
    </symbol>
    <symbol id="ico_orderCart" viewBox="0 0 24 24">
        <path d="M6.45996 13.62V6.60999C6.45996 5.29999 7.51996 4.23999 8.82996 4.23999H16.35C17.66 4.23999 18.72 5.29999 18.72 6.60999V17.39C18.72 18.7 17.66 19.76 16.35 19.76H12.84" stroke="#8C8D92" stroke-width="1.35" stroke-miterlimit="10" stroke-linecap="round"/>
        <path d="M11.6797 7.91992H16.2097" stroke="#8C8D92" stroke-width="1.35" stroke-miterlimit="10" stroke-linecap="round"/>
        <path d="M11.6797 10.76H16.2097" stroke="#8C8D92" stroke-width="1.35" stroke-miterlimit="10" stroke-linecap="round"/>
        <path d="M11.6797 13.6101H16.2097" stroke="#8C8D92" stroke-width="1.35" stroke-miterlimit="10" stroke-linecap="round"/>
        <path d="M8.87012 7.91992H9.32012" stroke="#8C8D92" stroke-width="1.35" stroke-miterlimit="10" stroke-linecap="round"/>
        <path d="M8.87012 10.76H9.32012" stroke="#8C8D92" stroke-width="1.35" stroke-miterlimit="10" stroke-linecap="round"/>
        <path d="M8.87012 13.6101H9.32012" stroke="#8C8D92" stroke-width="1.35" stroke-miterlimit="10" stroke-linecap="round"/>
        <path d="M11.35 16.0999C11.29 15.9199 11.17 15.7699 11.01 15.6699C10.89 15.5999 10.77 15.5799 10.66 15.5699C10.56 15.5699 10.44 15.5699 10.31 15.5699H5.25996L5.19996 15.2299C5.17996 15.1499 5.16996 15.0599 5.14996 14.9899C5.12996 14.9099 5.09996 14.8299 5.03996 14.7399C4.95996 14.6199 4.83996 14.5299 4.70996 14.4699C4.61996 14.4299 4.52996 14.4099 4.44996 14.4099C4.37996 14.4099 4.28996 14.4099 4.19996 14.4099H3.59996C3.38996 14.4099 3.20996 14.5799 3.20996 14.7999C3.20996 15.0199 3.37996 15.1899 3.59996 15.1899H4.19996C4.29996 15.1899 4.34996 15.1899 4.38996 15.1899C4.38996 15.2299 4.40996 15.2799 4.42996 15.3699L5.26996 19.9199C5.29996 20.0999 5.45996 20.2399 5.64996 20.2399H9.69996C9.77996 20.2399 9.86996 20.2399 9.93996 20.2399C10.02 20.2399 10.1 20.2199 10.19 20.1799C10.32 20.1199 10.43 20.0399 10.51 19.9199C10.57 19.8399 10.6 19.7599 10.62 19.6799C10.64 19.6099 10.66 19.5299 10.68 19.4499L11.29 16.8099C11.32 16.6899 11.35 16.5699 11.36 16.4699C11.37 16.3699 11.38 16.2399 11.34 16.1099L11.35 16.0999ZM9.92996 19.2699C9.90996 19.3599 9.89996 19.4099 9.88996 19.4399C9.84996 19.4399 9.79996 19.4399 9.70996 19.4399H5.97996L5.40996 16.3299H10.32C10.46 16.3299 10.54 16.3299 10.6 16.3299C10.6 16.3899 10.57 16.4599 10.54 16.5999L9.92996 19.2399V19.2699Z" fill="#8B8C91" stroke="#8B8C91" stroke-width="0.5" stroke-miterlimit="10"/>
        <path d="M6.04004 22.1199C6.31618 22.1199 6.54004 21.896 6.54004 21.6199C6.54004 21.3437 6.31618 21.1199 6.04004 21.1199C5.7639 21.1199 5.54004 21.3437 5.54004 21.6199C5.54004 21.896 5.7639 22.1199 6.04004 22.1199Z" fill="#8B8C91" stroke="#8B8C91" stroke-width="0.35" stroke-miterlimit="10"/>
        <path d="M9.66992 22.1199C9.94606 22.1199 10.1699 21.896 10.1699 21.6199C10.1699 21.3437 9.94606 21.1199 9.66992 21.1199C9.39378 21.1199 9.16992 21.3437 9.16992 21.6199C9.16992 21.896 9.39378 22.1199 9.66992 22.1199Z" fill="#8B8C91" stroke="#8B8C91" stroke-width="0.35" stroke-miterlimit="10"/>
    </symbol>
    <symbol id="ico_orderSubject" viewBox="0 0 24 24">
        <path d="M6.45996 13.5599V6.53992C6.45996 5.22992 7.51996 4.16992 8.82996 4.16992H16.35C17.66 4.16992 18.72 5.22992 18.72 6.53992V17.3199C18.72 18.6299 17.66 19.6899 16.35 19.6899H14.61" stroke="#8C8D92" stroke-width="1.35" stroke-miterlimit="10" stroke-linecap="round"/>
        <path d="M11.6797 7.84985H16.2097" stroke="#8C8D92" stroke-width="1.35" stroke-miterlimit="10" stroke-linecap="round"/>
        <path d="M11.6797 10.6899H16.2097" stroke="#8C8D92" stroke-width="1.35" stroke-miterlimit="10" stroke-linecap="round"/>
        <path d="M11.6797 13.54H16.2097" stroke="#8C8D92" stroke-width="1.35" stroke-miterlimit="10" stroke-linecap="round"/>
        <path d="M8.87012 7.84985H9.32012" stroke="#8C8D92" stroke-width="1.35" stroke-miterlimit="10" stroke-linecap="round"/>
        <path d="M8.87012 10.6899H9.32012" stroke="#8C8D92" stroke-width="1.35" stroke-miterlimit="10" stroke-linecap="round"/>
        <path d="M8.87012 13.54H9.32012" stroke="#8C8D92" stroke-width="1.35" stroke-miterlimit="10" stroke-linecap="round"/>
        <path d="M6.20996 19.8699H5.20996C4.37996 19.8699 3.70996 19.1999 3.70996 18.3699C3.70996 17.5399 4.37996 16.8699 5.20996 16.8699H6.20996C6.48996 16.8699 6.70996 16.6499 6.70996 16.3699C6.70996 16.0899 6.48996 15.8699 6.20996 15.8699H5.20996C3.82996 15.8699 2.70996 16.9899 2.70996 18.3699C2.70996 19.7499 3.82996 20.8699 5.20996 20.8699H6.20996C6.48996 20.8699 6.70996 20.6499 6.70996 20.3699C6.70996 20.0899 6.48996 19.8699 6.20996 19.8699Z" fill="#8B8C91" stroke="#8B8C91" stroke-width="0.35" stroke-miterlimit="10"/>
        <path d="M10.21 15.8699H9.20996C8.92996 15.8699 8.70996 16.0899 8.70996 16.3699C8.70996 16.6499 8.92996 16.8699 9.20996 16.8699H10.21C11.04 16.8699 11.71 17.5399 11.71 18.3699C11.71 19.1999 11.04 19.8699 10.21 19.8699H9.20996C8.92996 19.8699 8.70996 20.0899 8.70996 20.3699C8.70996 20.6499 8.92996 20.8699 9.20996 20.8699H10.21C11.59 20.8699 12.71 19.7499 12.71 18.3699C12.71 16.9899 11.59 15.8699 10.21 15.8699Z" fill="#8B8C91" stroke="#8B8C91" stroke-width="0.35" stroke-miterlimit="10"/>
        <path d="M5.20996 18.3699C5.20996 18.6499 5.42996 18.8699 5.70996 18.8699H9.70996C9.98996 18.8699 10.21 18.6499 10.21 18.3699C10.21 18.0899 9.98996 17.8699 9.70996 17.8699H5.70996C5.42996 17.8699 5.20996 18.0899 5.20996 18.3699Z" fill="#8B8C91" stroke="#8B8C91" stroke-width="0.35" stroke-miterlimit="10"/>
    </symbol>
    <symbol id="ico_remark" viewBox="0 0 32 32">
        <path fill-rule="evenodd" clip-rule="evenodd" d="M11.3688 8.00534C11.343 8.01063 11.2163 8.03203 11.0872 8.05293C9.7717 8.26584 8.60078 9.28111 8.18284 10.5713C7.99619 11.1474 8.00495 10.8799 8.00495 16C8.00495 21.1095 7.99672 20.8542 8.17943 21.4184C8.48425 22.3596 9.17902 23.163 10.081 23.6172C10.3464 23.7509 10.7565 23.8894 11.0716 23.9518C11.3968 24.0162 19.4156 24.016 19.7395 23.9516C20.2178 23.8564 20.6946 23.6584 21.1049 23.3843C21.3801 23.2005 23.1538 21.4326 23.3565 21.1401C23.6481 20.7191 23.8523 20.2386 23.9516 19.7394C24.016 19.4155 24.0162 11.3967 23.9518 11.0715C23.6549 9.57288 22.5735 8.44821 21.0694 8.07377C20.805 8.00797 20.7745 8.00753 16.1096 8.00165C13.528 7.99842 11.3947 8.00008 11.3688 8.00534ZM20.8508 9.30928C21.36 9.46339 21.7131 9.66538 22.0253 9.98118C22.2447 10.2031 22.4818 10.5575 22.572 10.7986C22.754 11.2851 22.7419 11.0115 22.7517 14.8786L22.7607 18.4353L21.6725 18.4484C20.6739 18.4605 20.5637 18.4672 20.334 18.5301C19.4447 18.7735 18.7735 19.4447 18.5301 20.334C18.4672 20.5637 18.4605 20.6739 18.4484 21.6725L18.4353 22.7607L14.8786 22.7517C11.0115 22.7419 11.2851 22.754 10.7986 22.5719C10.2441 22.3645 9.63589 21.7562 9.42792 21.201C9.24489 20.7124 9.25663 21.069 9.25663 16C9.25663 10.9311 9.24489 11.2877 9.42792 10.7991C9.64537 10.2186 10.253 9.62842 10.8628 9.40541C11.313 9.24075 11.1406 9.24585 16.0783 9.25164C20.2746 9.25658 20.6934 9.26162 20.8508 9.30928ZM12.0952 11.7168C11.9471 11.7598 11.7548 11.9648 11.7115 12.1257C11.6366 12.4039 11.7479 12.6963 11.9848 12.8435L12.1042 12.9178H16.0001H19.8959L20.0154 12.8435C20.0811 12.8027 20.1726 12.7122 20.2188 12.6424C20.2887 12.5367 20.3027 12.4808 20.3027 12.3076C20.3027 12.1344 20.2887 12.0784 20.2188 11.9728C20.1726 11.903 20.0811 11.8125 20.0154 11.7716L19.8959 11.6974L16.047 11.6921C13.6743 11.6889 12.1586 11.6984 12.0952 11.7168ZM12.0952 15.4093C11.9471 15.4523 11.7548 15.6573 11.7115 15.8181C11.6366 16.0963 11.7479 16.3887 11.9848 16.536L12.1042 16.6102H16.0001H19.8959L20.0154 16.536C20.0811 16.4951 20.1726 16.4046 20.2188 16.3349C20.2887 16.2292 20.3027 16.1733 20.3027 16C20.3027 15.8268 20.2887 15.7709 20.2188 15.6652C20.1726 15.5955 20.0811 15.5049 20.0154 15.4641L19.8959 15.3899L16.047 15.3846C13.6743 15.3814 12.1586 15.3908 12.0952 15.4093ZM12.0952 19.1015C11.947 19.1449 11.7548 19.3499 11.7115 19.5106C11.6366 19.7888 11.7479 20.0812 11.9848 20.2284L12.1042 20.3027H14.1561H16.208L16.3349 20.2187C16.5302 20.0895 16.6103 19.9365 16.6103 19.6925C16.6103 19.4485 16.5302 19.2955 16.3349 19.1663L16.2081 19.0823L14.2031 19.0769C12.9928 19.0736 12.1573 19.0833 12.0952 19.1015ZM22.6515 19.7786C22.6132 19.9394 22.4244 20.302 22.281 20.4905C22.0939 20.7363 20.5963 22.2191 20.4038 22.3492C20.2376 22.4615 19.9107 22.6195 19.7786 22.6513L19.6925 22.672V21.7982C19.6925 21.3015 19.7072 20.8448 19.7266 20.74C19.8175 20.2483 20.2097 19.8409 20.6939 19.7353C20.8036 19.7113 21.1931 19.6968 21.769 19.6951L22.6721 19.6925L22.6515 19.7786Z"/>
    </symbol>
    <symbol id="ico_notebook" viewBox="0 0 24 24"></symbol>
    <symbol id="ico_notebook" viewBox="0 0 24 24"></symbol>
    <symbol id="ico_notebook" viewBox="0 0 24 24"></symbol>
    <symbol id="ico_notebook" viewBox="0 0 24 24"></symbol>
    <symbol id="ico_notebook" viewBox="0 0 24 24"></symbol>
    <symbol id="ico_notebook" viewBox="0 0 24 24"></symbol>
    <symbol id="ico_notebook" viewBox="0 0 24 24"></symbol>
    <symbol id="ico_notebook" viewBox="0 0 24 24"></symbol>
    <symbol id="ico_notebook" viewBox="0 0 24 24"></symbol>
    <symbol id="ico_notebook" viewBox="0 0 24 24"></symbol>
    <symbol id="ico_notebook" viewBox="0 0 24 24"></symbol>
    <symbol id="ico_notebook" viewBox="0 0 24 24"></symbol>
    <symbol id="ico_notebook" viewBox="0 0 24 24"></symbol>
    <symbol id="ico_notebook" viewBox="0 0 24 24"></symbol>
    <symbol id="ico_notebook" viewBox="0 0 24 24"></symbol>
    <symbol id="ico_notebook" viewBox="0 0 24 24"></symbol>
    <symbol id="ico_notebook" viewBox="0 0 24 24"></symbol>
    <symbol id="ico_notebook" viewBox="0 0 24 24"></symbol>
    <symbol id="ico_notebook" viewBox="0 0 24 24"></symbol>
    <symbol id="ico_notebook" viewBox="0 0 24 24"></symbol>
    <symbol id="ico_notebook" viewBox="0 0 24 24"></symbol>
    <symbol id="ico_notebook" viewBox="0 0 24 24"></symbol>
    <symbol id="ico_notebook" viewBox="0 0 24 24"></symbol>
</svg>
