<svg width="20" height="20" viewBox="0 0 20 20" fill="none" xmlns="http://www.w3.org/2000/svg">
<path d="M19 8.20001H20H19ZM19 12H18H19ZM18.8477 13.7654L17.9238 13.3827L18.8477 13.7654ZM16 14C15.4477 14 15 14.4477 15 15C15 15.5523 15.4477 16 16 16L16 14ZM17.7654 14.8478L17.3827 13.9239L17.7654 14.8478ZM17.9078 5.21799L18.3618 4.32698V4.32698L17.9078 5.21799ZM18.7822 6.09204L19.6732 5.63805L18.7822 6.09204ZM1.21799 6.09204L0.32698 5.63805L0.32698 5.63805L1.21799 6.09204ZM2.0918 5.21799L2.54579 6.10899H2.54579L2.0918 5.21799ZM4.00023 16C4.55251 16 5.00023 15.5523 5.00023 15C5.00023 14.4477 4.55251 14 4.00023 14L4.00023 16ZM2.23486 14.8478L1.85218 15.7717L2.23486 14.8478ZM1.15224 13.7654L2.07612 13.3827L2.07612 13.3827L1.15224 13.7654ZM13 19V20V19ZM7 19V18V19ZM15.9999 16H16.9999H15.9999ZM15.8477 17.7654L16.7715 18.1481L15.8477 17.7654ZM14.7654 18.8478L14.3827 17.9239L14.7654 18.8478ZM14.7654 13.1522L15.1481 12.2284H15.148L14.7654 13.1522ZM15.8477 14.2346L14.9238 14.6173L15.8477 14.2346ZM4.15224 14.2346L3.22836 13.8519V13.8519L4.15224 14.2346ZM5.23486 13.1522L5.61755 14.0761L5.23486 13.1522ZM4.15224 17.7654L5.07612 17.3827L5.07612 17.3827L4.15224 17.7654ZM5.23486 18.8478L5.61755 17.9239L5.23486 18.8478ZM8 8C7.44772 8 7 8.44772 7 9C7 9.55229 7.44772 10 8 10V8ZM12 10C12.5523 10 13 9.55229 13 9C13 8.44772 12.5523 8 12 8V10ZM4 5.00001H3C3 5.26523 3.10536 5.51958 3.29289 5.70712C3.48043 5.89466 3.73478 6.00001 4 6.00001V5.00001ZM16 4.20001H17H16ZM16 5.00001V6.00001C16.5523 6.00001 17 5.5523 17 5.00001H16ZM14.9078 1.21799L15.3618 0.32698V0.32698L14.9078 1.21799ZM15.7822 2.09204L16.6732 1.63805L15.7822 2.09204ZM4.21799 2.09204L3.32698 1.63805L3.32698 1.63805L4.21799 2.09204ZM5.0918 1.21799L5.54579 2.10899L5.54579 2.10899L5.0918 1.21799ZM2 12V8.20001H0V12H2ZM4.2002 6H15.8002V4H4.2002V6ZM18 8.20001V12H20V8.20001H18ZM18 12C18 12.4796 17.9994 12.7892 17.9832 13.0262C17.9677 13.2541 17.941 13.341 17.9238 13.3827L19.7715 14.1481C19.9065 13.8222 19.9561 13.4923 19.9786 13.1625C20.0005 12.8416 20 12.4523 20 12H18ZM16 16C16.4523 16 16.8415 16.0006 17.1624 15.9787C17.4922 15.9562 17.8221 15.9067 18.1481 15.7717L17.3827 13.9239C17.3411 13.9411 17.2542 13.9678 17.0262 13.9833C16.7893 13.9995 16.4796 14 16 14L16 16ZM17.9238 13.3827C17.8222 13.6278 17.6276 13.8225 17.3827 13.9239L18.1481 15.7717C18.8832 15.4671 19.4671 14.883 19.7715 14.1481L17.9238 13.3827ZM15.8002 6C16.3768 6 16.7489 6.00078 17.0321 6.02393C17.3036 6.04611 17.4043 6.08377 17.4538 6.10899L18.3618 4.32698C17.9834 4.13421 17.5904 4.06288 17.1951 4.03057C16.8115 3.99922 16.3437 4 15.8002 4V6ZM20 8.20001C20 7.65656 20.0008 7.18875 19.9696 6.80515C19.9373 6.40986 19.8661 6.01654 19.6732 5.63805L17.8912 6.54603C17.9164 6.59536 17.954 6.69598 17.9762 6.96769C17.9993 7.25109 18 7.62336 18 8.20001H20ZM17.4538 6.10899C17.6424 6.20508 17.7956 6.35828 17.8912 6.54603L19.6732 5.63805C19.3854 5.07315 18.9258 4.61439 18.3618 4.32698L17.4538 6.10899ZM2 8.20001C2 7.62346 2.00078 7.25119 2.02393 6.96785C2.04612 6.69619 2.0838 6.59548 2.10899 6.54603L0.32698 5.63805C0.134187 6.01643 0.0628706 6.40964 0.0305695 6.80499C-0.000777721 7.18866 0 7.65646 0 8.20001H2ZM4.2002 4C3.65663 4 3.18874 3.99922 2.80498 4.03057C2.40962 4.06286 2.01624 4.13416 1.63781 4.32698L2.54579 6.10899C2.59517 6.08383 2.69595 6.04613 2.9678 6.02393C3.25126 6.00078 3.62365 6 4.2002 6V4ZM2.10899 6.54603C2.205 6.35761 2.35788 6.20474 2.54579 6.10899L1.63781 4.32698C1.07306 4.61473 0.614469 5.07382 0.32698 5.63805L2.10899 6.54603ZM4.00023 14C3.5206 14 3.21097 13.9995 2.97399 13.9833C2.74599 13.9678 2.65916 13.9411 2.61755 13.9239L1.85218 15.7717C2.17811 15.9067 2.50802 15.9562 2.83785 15.9787C3.15869 16.0006 3.54797 16 4.00023 16L4.00023 14ZM0 12C0 12.4523 -0.000541568 12.8415 0.0213497 13.1624C0.0438539 13.4922 0.0933582 13.8221 0.228361 14.148L2.07612 13.3827C2.05888 13.3411 2.03227 13.2542 2.01671 13.0262C2.00054 12.7893 2 12.4796 2 12H0ZM2.61755 13.9239C2.37233 13.8223 2.17754 13.6275 2.07612 13.3827L0.228361 14.148C0.532922 14.8833 1.11728 15.4673 1.85218 15.7717L2.61755 13.9239ZM7 14H13V12H7V14ZM13 18H7V20H13V18ZM14.9999 16C14.9999 16.4796 14.9994 16.7893 14.9832 17.0262C14.9676 17.2542 14.941 17.3411 14.9238 17.3827L16.7715 18.1481C16.9065 17.8221 16.956 17.4922 16.9785 17.1624C17.0004 16.8415 16.9999 16.4523 16.9999 16H14.9999ZM13 20C13.4522 20 13.8415 20.0005 14.1624 19.9787C14.4922 19.9562 14.8221 19.9067 15.1481 19.7717L14.3827 17.9239C14.3411 17.9411 14.2543 17.9677 14.0263 17.9833C13.7893 17.9995 13.4796 18 13 18V20ZM14.9238 17.3827C14.8222 17.6278 14.6276 17.8225 14.3827 17.9239L15.1481 19.7717C15.8832 19.4671 16.4671 18.883 16.7715 18.1481L14.9238 17.3827ZM13 14C13.4796 14 13.7893 14.0005 14.0262 14.0167C14.2542 14.0323 14.3411 14.0589 14.3827 14.0761L15.148 12.2284C14.8221 12.0934 14.4922 12.0439 14.1624 12.0213C13.8415 11.9995 13.4523 12 13 12V14ZM16.9999 16C16.9999 15.5477 17.0004 15.1585 16.9785 14.8376C16.956 14.5078 16.9065 14.1779 16.7715 13.8519L14.9238 14.6173C14.941 14.6589 14.9676 14.7457 14.9832 14.9738C14.9994 15.2107 14.9999 15.5204 14.9999 16H16.9999ZM14.3827 14.0761C14.6276 14.1776 14.8222 14.3722 14.9238 14.6173L16.7715 13.8519C16.4671 13.1169 15.8832 12.5329 15.1481 12.2284L14.3827 14.0761ZM5 16C5 15.5204 5.00054 15.2107 5.01671 14.9737C5.03227 14.7457 5.05888 14.6589 5.07612 14.6173L3.22836 13.8519C3.09336 14.1779 3.04385 14.5078 3.02135 14.8376C2.99946 15.1585 3 15.5477 3 16H5ZM7 12C6.54775 12 6.15852 11.9995 5.83772 12.0214C5.5079 12.0439 5.17807 12.0934 4.85218 12.2284L5.61755 14.0761C5.65919 14.0589 5.74599 14.0323 5.97389 14.0167C6.2108 14.0005 6.52037 14 7 14V12ZM5.07612 14.6173C5.17752 14.3725 5.3723 14.1777 5.61755 14.0761L4.85218 12.2284C4.11732 12.5328 3.53293 13.1166 3.22836 13.8519L5.07612 14.6173ZM3 16C3 16.4522 2.99946 16.8415 3.02135 17.1624C3.04385 17.4922 3.09336 17.8221 3.22836 18.1481L5.07612 17.3827C5.05888 17.3411 5.03227 17.2542 5.01671 17.0262C5.00054 16.7893 5 16.4796 5 16H3ZM7 18C6.52036 18 6.21079 17.9995 5.97387 17.9833C5.74597 17.9678 5.65918 17.9411 5.61755 17.9239L4.85218 19.7717C5.17809 19.9067 5.50793 19.9562 5.83774 19.9787C6.15853 20.0005 6.54776 20 7 20V18ZM3.22836 18.1481C3.53292 18.8833 4.11729 19.4673 4.85218 19.7717L5.61755 17.9239C5.37233 17.8223 5.17754 17.6275 5.07612 17.3827L3.22836 18.1481ZM8 10H12V8H8V10ZM5 5.00001V4.20001H3V5.00001H5ZM7.2002 2H12.8002V0H7.2002V2ZM15 4.20001V5.00001H17V4.20001H15ZM16 4.00001L4 4.00001V6.00001L16 6.00001V4.00001ZM12.8002 2C13.3768 2 13.7489 2.00078 14.0321 2.02393C14.3036 2.04611 14.4043 2.08377 14.4538 2.10899L15.3618 0.32698C14.9835 0.134214 14.5904 0.06288 14.1951 0.0305714C13.8115 -0.000778198 13.3437 0 12.8002 0V2ZM17 4.20001C17 3.65656 17.0008 3.18875 16.9696 2.80515C16.9373 2.40986 16.8661 2.01654 16.6732 1.63805L14.8912 2.54603C14.9164 2.59536 14.954 2.69598 14.9762 2.96769C14.9993 3.2511 15 3.62336 15 4.20001H17ZM14.4538 2.10899C14.6424 2.20508 14.7956 2.35828 14.8912 2.54603L16.6732 1.63805C16.3854 1.07316 15.9259 0.614392 15.3618 0.32698L14.4538 2.10899ZM5 4.20001C5 3.62346 5.00078 3.25119 5.02393 2.96785C5.04612 2.69619 5.0838 2.59548 5.10899 2.54603L3.32698 1.63805C3.13419 2.01643 3.06287 2.40964 3.03057 2.80499C2.99922 3.18866 3 3.65646 3 4.20001H5ZM7.2002 0C6.65663 0 6.18874 -0.000777125 5.80498 0.0305674C5.40962 0.0628602 5.01624 0.134157 4.63781 0.326981L5.54579 2.10899C5.59517 2.08383 5.69595 2.04613 5.9678 2.02393C6.25126 2.00078 6.62365 2 7.2002 2V0ZM5.10899 2.54603C5.205 2.35761 5.35788 2.20474 5.54579 2.10899L4.63781 0.326981C4.07306 0.614732 3.61447 1.07382 3.32698 1.63805L5.10899 2.54603Z" fill="#8C8D92"/>
</svg>
