<svg width="14" height="4" viewBox="0 0 14 4" fill="none" xmlns="http://www.w3.org/2000/svg">
<path d="M11.1665 2.00008C11.1665 2.46032 11.5396 2.83341 11.9998 2.83341C12.4601 2.83341 12.8332 2.46032 12.8332 2.00008C12.8332 1.53984 12.4601 1.16675 11.9998 1.16675C11.5396 1.16675 11.1665 1.53984 11.1665 2.00008Z" stroke="#2E2F35" stroke-width="2" stroke-linecap="round" stroke-linejoin="round"/>
<path d="M6.1665 2.00008C6.1665 2.46032 6.5396 2.83341 6.99984 2.83341C7.46007 2.83341 7.83317 2.46032 7.83317 2.00008C7.83317 1.53984 7.46007 1.16675 6.99984 1.16675C6.5396 1.16675 6.1665 1.53984 6.1665 2.00008Z" stroke="#2E2F35" stroke-width="2" stroke-linecap="round" stroke-linejoin="round"/>
<path d="M1.1665 2.00008C1.1665 2.46032 1.5396 2.83341 1.99984 2.83341C2.46007 2.83341 2.83317 2.46032 2.83317 2.00008C2.83317 1.53984 2.46007 1.16675 1.99984 1.16675C1.5396 1.16675 1.1665 1.53984 1.1665 2.00008Z" stroke="#2E2F35" stroke-width="2" stroke-linecap="round" stroke-linejoin="round"/>
</svg>
