<svg width="25" height="24" viewBox="0 0 25 24" fill="none" xmlns="http://www.w3.org/2000/svg">
<path d="M4.08631 13.7789C5.86575 15.5479 8.96904 18 12.4997 18C16.0303 18 19.1333 15.5479 20.9128 13.7789L20.9136 13.778C21.3827 13.3117 21.6176 13.0782 21.767 12.6202C21.8736 12.2934 21.8736 11.7066 21.767 11.3798C21.6175 10.9218 21.3827 10.6883 20.9135 10.2219L20.9128 10.2211C19.1333 8.45208 16.0303 6 12.4997 6C8.96904 6 5.86575 8.45208 4.08631 10.2211C3.61665 10.688 3.3818 10.9215 3.23231 11.3798C3.12569 11.7066 3.12569 12.2934 3.23231 12.6202C3.38179 13.0785 3.61663 13.3119 4.08625 13.7788L4.08631 13.7789Z" stroke="#F56311" stroke-width="1.5" stroke-linecap="round" stroke-linejoin="round"/>
</svg>
