<svg width="533" height="245" viewBox="0 0 533 245" fill="none" xmlns="http://www.w3.org/2000/svg">
<line x1="50.6367" y1="223.5" x2="532.003" y2="223.5" stroke="#EDEDED"/>
<line x1="50.6367" y1="187.5" x2="532.003" y2="187.5" stroke="#EDEDED"/>
<line x1="50.6367" y1="151.5" x2="532.003" y2="151.5" stroke="#EDEDED"/>
<line x1="50.6367" y1="115.5" x2="532.003" y2="115.5" stroke="#EDEDED"/>
<line x1="50.6367" y1="79.5" x2="532.003" y2="79.4995" stroke="#EDEDED"/>
<line x1="50.6367" y1="43.5" x2="532.003" y2="43.4995" stroke="#EDEDED"/>
<line x1="50.6367" y1="7.50048" x2="532.003" y2="7.5" stroke="#EDEDED"/>
<path d="M74.6494 183.154C74.6494 180.945 76.4403 179.154 78.6494 179.154C80.8586 179.154 82.6494 180.945 82.6494 183.154V223.004H74.6494V183.154Z" fill="#F56311"/>
<path d="M113.371 43.0039C113.371 40.7948 115.162 39.0039 117.371 39.0039C119.58 39.0039 121.371 40.7948 121.371 43.0039V223.004H113.371V43.0039Z" fill="#F56311"/>
<path d="M307.202 200.654C307.202 198.445 308.993 196.654 311.202 196.654C313.411 196.654 315.202 198.445 315.202 200.654V223.004H307.202V200.654Z" fill="#F56311"/>
<path d="M345.961 176.689C345.961 174.48 347.752 172.689 349.961 172.689C352.17 172.689 353.961 174.48 353.961 176.689V223.004H345.961V176.689Z" fill="#F56311"/>
<path d="M152.167 168.154C152.167 165.945 153.958 164.154 156.167 164.154C158.376 164.154 160.167 165.945 160.167 168.154V223.004H152.167V168.154Z" fill="#F56311"/>
<path d="M384.72 127.154C384.72 124.945 386.511 123.154 388.72 123.154C390.929 123.154 392.72 124.945 392.72 127.154V223.004H384.72V127.154Z" fill="#F56311"/>
<path d="M190.926 132.154C190.926 129.945 192.717 128.154 194.926 128.154C197.135 128.154 198.926 129.945 198.926 132.154V223.004H190.926V132.154Z" fill="#F56311"/>
<path d="M423.479 144.654C423.479 142.445 425.269 140.654 427.479 140.654C429.688 140.654 431.479 142.445 431.479 144.654V223.004H423.479V144.654Z" fill="#F56311"/>
<path d="M229.685 164.654C229.685 162.445 231.475 160.654 233.685 160.654C235.894 160.654 237.685 162.445 237.685 164.654V223.004H229.685V164.654Z" fill="#F56311"/>
<path d="M462.237 133.618C462.237 131.409 464.028 129.618 466.237 129.618C468.446 129.618 470.237 131.409 470.237 133.618V223.004H462.237V133.618Z" fill="#F56311"/>
<path d="M268.443 147.154C268.443 144.945 270.234 143.154 272.443 143.154C274.652 143.154 276.443 144.945 276.443 147.154V223.004H268.443V147.154Z" fill="#F56311"/>
<path d="M500.996 212.689C500.996 210.48 502.787 208.689 504.996 208.689C507.205 208.689 508.996 210.48 508.996 212.689V223.004H500.996V212.689Z" fill="#F56311"/>
<path d="M29.0096 226.072V221.952H29.9996V225.112H30.5296C30.9562 225.112 31.3029 225.085 31.5696 225.032C31.8429 224.979 32.0529 224.879 32.1996 224.732C32.3529 224.579 32.4596 224.359 32.5196 224.072C32.5796 223.785 32.6096 223.409 32.6096 222.942V220.122H33.6896V222.942C33.6896 223.722 33.5929 224.342 33.3996 224.802C33.2062 225.262 32.8796 225.589 32.4196 225.782C31.9596 225.975 31.3296 226.072 30.5296 226.072H29.0096ZM27.1496 226.072V220.122H29.6896C30.1629 220.122 30.5529 220.192 30.8596 220.332C31.1729 220.465 31.4062 220.679 31.5596 220.972C31.7129 221.259 31.7896 221.629 31.7896 222.082V224.172H30.7996V222.262C30.7996 221.962 30.7529 221.729 30.6596 221.562C30.5729 221.389 30.4462 221.265 30.2796 221.192C30.1196 221.119 29.9329 221.082 29.7196 221.082H28.2196V226.072H27.1496ZM42.3413 222.492C42.3413 223.072 42.2946 223.589 42.2013 224.042C42.1146 224.495 41.9746 224.882 41.7813 225.202C41.5946 225.515 41.3446 225.755 41.0313 225.922C40.7246 226.089 40.3546 226.172 39.9213 226.172C39.3746 226.172 38.9246 226.025 38.5713 225.732C38.218 225.439 37.9546 225.019 37.7813 224.472C37.608 223.919 37.5213 223.259 37.5213 222.492C37.5213 221.719 37.598 221.059 37.7513 220.512C37.9113 219.965 38.168 219.549 38.5213 219.262C38.8746 218.969 39.3413 218.822 39.9213 218.822C40.468 218.822 40.918 218.969 41.2713 219.262C41.6313 219.549 41.898 219.965 42.0713 220.512C42.2513 221.059 42.3413 221.719 42.3413 222.492ZM38.5813 222.492C38.5813 223.112 38.6246 223.629 38.7113 224.042C38.798 224.455 38.938 224.765 39.1313 224.972C39.3313 225.179 39.5946 225.282 39.9213 225.282C40.248 225.282 40.508 225.182 40.7013 224.982C40.9013 224.775 41.0446 224.465 41.1313 224.052C41.2246 223.632 41.2713 223.112 41.2713 222.492C41.2713 221.872 41.2246 221.359 41.1313 220.952C41.0446 220.539 40.9013 220.229 40.7013 220.022C40.508 219.815 40.248 219.712 39.9213 219.712C39.5946 219.712 39.3313 219.815 39.1313 220.022C38.938 220.229 38.798 220.539 38.7113 220.952C38.6246 221.359 38.5813 221.872 38.5813 222.492Z" fill="#63646A"/>
<path d="M6.11895 190.154V186.034H7.10895V189.194H7.63895C8.06561 189.194 8.41228 189.167 8.67895 189.114C8.95228 189.06 9.16228 188.96 9.30895 188.814C9.46228 188.66 9.56895 188.44 9.62895 188.154C9.68895 187.867 9.71895 187.49 9.71895 187.024V184.204H10.7989V187.024C10.7989 187.804 10.7023 188.424 10.5089 188.884C10.3156 189.344 9.98895 189.67 9.52895 189.864C9.06895 190.057 8.43895 190.154 7.63895 190.154H6.11895ZM4.25895 190.154V184.204H6.79895C7.27228 184.204 7.66228 184.274 7.96895 184.414C8.28228 184.547 8.51561 184.76 8.66895 185.054C8.82228 185.34 8.89895 185.71 8.89895 186.164V188.254H7.90895V186.344C7.90895 186.044 7.86228 185.81 7.76895 185.644C7.68228 185.47 7.55561 185.347 7.38895 185.274C7.22895 185.2 7.04228 185.164 6.82895 185.164H5.32895V190.154H4.25895ZM17.9007 190.154H16.8507V185.414C16.8507 185.247 16.8507 185.094 16.8507 184.954C16.8573 184.807 16.864 184.667 16.8707 184.534C16.8773 184.394 16.884 184.26 16.8907 184.134C16.804 184.22 16.714 184.304 16.6207 184.384C16.5273 184.464 16.4207 184.557 16.3007 184.664L15.5207 185.294L14.9807 184.614L17.0207 183.014H17.9007V190.154ZM25.1733 186.574C25.1733 187.154 25.1267 187.67 25.0333 188.124C24.9467 188.577 24.8067 188.964 24.6133 189.284C24.4267 189.597 24.1767 189.837 23.8633 190.004C23.5567 190.17 23.1867 190.254 22.7533 190.254C22.2067 190.254 21.7567 190.107 21.4033 189.814C21.05 189.52 20.7867 189.1 20.6133 188.554C20.44 188 20.3533 187.34 20.3533 186.574C20.3533 185.8 20.43 185.14 20.5833 184.594C20.7433 184.047 21 183.63 21.3533 183.344C21.7067 183.05 22.1733 182.904 22.7533 182.904C23.3 182.904 23.75 183.05 24.1033 183.344C24.4633 183.63 24.73 184.047 24.9033 184.594C25.0833 185.14 25.1733 185.8 25.1733 186.574ZM21.4133 186.574C21.4133 187.194 21.4567 187.71 21.5433 188.124C21.63 188.537 21.77 188.847 21.9633 189.054C22.1633 189.26 22.4267 189.364 22.7533 189.364C23.08 189.364 23.34 189.264 23.5333 189.064C23.7333 188.857 23.8767 188.547 23.9633 188.134C24.0567 187.714 24.1033 187.194 24.1033 186.574C24.1033 185.954 24.0567 185.44 23.9633 185.034C23.8767 184.62 23.7333 184.31 23.5333 184.104C23.34 183.897 23.08 183.794 22.7533 183.794C22.4267 183.794 22.1633 183.897 21.9633 184.104C21.77 184.31 21.63 184.62 21.5433 185.034C21.4567 185.44 21.4133 185.954 21.4133 186.574ZM30.896 186.574C30.896 187.154 30.8493 187.67 30.756 188.124C30.6693 188.577 30.5293 188.964 30.336 189.284C30.1493 189.597 29.8993 189.837 29.586 190.004C29.2793 190.17 28.9093 190.254 28.476 190.254C27.9293 190.254 27.4793 190.107 27.126 189.814C26.7726 189.52 26.5093 189.1 26.336 188.554C26.1626 188 26.076 187.34 26.076 186.574C26.076 185.8 26.1526 185.14 26.306 184.594C26.466 184.047 26.7226 183.63 27.076 183.344C27.4293 183.05 27.896 182.904 28.476 182.904C29.0226 182.904 29.4726 183.05 29.826 183.344C30.186 183.63 30.4526 184.047 30.626 184.594C30.806 185.14 30.896 185.8 30.896 186.574ZM27.136 186.574C27.136 187.194 27.1793 187.71 27.266 188.124C27.3526 188.537 27.4926 188.847 27.686 189.054C27.886 189.26 28.1493 189.364 28.476 189.364C28.8026 189.364 29.0626 189.264 29.256 189.064C29.456 188.857 29.5993 188.547 29.686 188.134C29.7793 187.714 29.826 187.194 29.826 186.574C29.826 185.954 29.7793 185.44 29.686 185.034C29.5993 184.62 29.456 184.31 29.256 184.104C29.0626 183.897 28.8026 183.794 28.476 183.794C28.1493 183.794 27.886 183.897 27.686 184.104C27.4926 184.31 27.3526 184.62 27.266 185.034C27.1793 185.44 27.136 185.954 27.136 186.574ZM36.6186 186.574C36.6186 187.154 36.572 187.67 36.4786 188.124C36.392 188.577 36.252 188.964 36.0586 189.284C35.872 189.597 35.622 189.837 35.3086 190.004C35.002 190.17 34.632 190.254 34.1986 190.254C33.652 190.254 33.202 190.107 32.8486 189.814C32.4953 189.52 32.232 189.1 32.0586 188.554C31.8853 188 31.7986 187.34 31.7986 186.574C31.7986 185.8 31.8753 185.14 32.0286 184.594C32.1886 184.047 32.4453 183.63 32.7986 183.344C33.152 183.05 33.6186 182.904 34.1986 182.904C34.7453 182.904 35.1953 183.05 35.5486 183.344C35.9086 183.63 36.1753 184.047 36.3486 184.594C36.5286 185.14 36.6186 185.8 36.6186 186.574ZM32.8586 186.574C32.8586 187.194 32.902 187.71 32.9886 188.124C33.0753 188.537 33.2153 188.847 33.4086 189.054C33.6086 189.26 33.872 189.364 34.1986 189.364C34.5253 189.364 34.7853 189.264 34.9786 189.064C35.1786 188.857 35.322 188.547 35.4086 188.134C35.502 187.714 35.5486 187.194 35.5486 186.574C35.5486 185.954 35.502 185.44 35.4086 185.034C35.322 184.62 35.1786 184.31 34.9786 184.104C34.7853 183.897 34.5253 183.794 34.1986 183.794C33.872 183.794 33.6086 183.897 33.4086 184.104C33.2153 184.31 33.0753 184.62 32.9886 185.034C32.902 185.44 32.8586 185.954 32.8586 186.574ZM42.3413 186.574C42.3413 187.154 42.2946 187.67 42.2013 188.124C42.1146 188.577 41.9746 188.964 41.7813 189.284C41.5946 189.597 41.3446 189.837 41.0313 190.004C40.7246 190.17 40.3546 190.254 39.9213 190.254C39.3746 190.254 38.9246 190.107 38.5713 189.814C38.218 189.52 37.9546 189.1 37.7813 188.554C37.608 188 37.5213 187.34 37.5213 186.574C37.5213 185.8 37.598 185.14 37.7513 184.594C37.9113 184.047 38.168 183.63 38.5213 183.344C38.8746 183.05 39.3413 182.904 39.9213 182.904C40.468 182.904 40.918 183.05 41.2713 183.344C41.6313 183.63 41.898 184.047 42.0713 184.594C42.2513 185.14 42.3413 185.8 42.3413 186.574ZM38.5813 186.574C38.5813 187.194 38.6246 187.71 38.7113 188.124C38.798 188.537 38.938 188.847 39.1313 189.054C39.3313 189.26 39.5946 189.364 39.9213 189.364C40.248 189.364 40.508 189.264 40.7013 189.064C40.9013 188.857 41.0446 188.547 41.1313 188.134C41.2246 187.714 41.2713 187.194 41.2713 186.574C41.2713 185.954 41.2246 185.44 41.1313 185.034C41.0446 184.62 40.9013 184.31 40.7013 184.104C40.508 183.897 40.248 183.794 39.9213 183.794C39.5946 183.794 39.3313 183.897 39.1313 184.104C38.938 184.31 38.798 184.62 38.7113 185.034C38.6246 185.44 38.5813 185.954 38.5813 186.574Z" fill="#63646A"/>
<path d="M6.11895 155V150.88H7.10895V154.04H7.63895C8.06561 154.04 8.41228 154.013 8.67895 153.96C8.95228 153.906 9.16228 153.806 9.30895 153.66C9.46228 153.506 9.56895 153.286 9.62895 153C9.68895 152.713 9.71895 152.336 9.71895 151.87V149.05H10.7989V151.87C10.7989 152.65 10.7023 153.27 10.5089 153.73C10.3156 154.19 9.98895 154.516 9.52895 154.71C9.06895 154.903 8.43895 155 7.63895 155H6.11895ZM4.25895 155V149.05H6.79895C7.27228 149.05 7.66228 149.12 7.96895 149.26C8.28228 149.393 8.51561 149.606 8.66895 149.9C8.82228 150.186 8.89895 150.556 8.89895 151.01V153.1H7.90895V151.19C7.90895 150.89 7.86228 150.656 7.76895 150.49C7.68228 150.316 7.55561 150.193 7.38895 150.12C7.22895 150.046 7.04228 150.01 6.82895 150.01H5.32895V155H4.25895ZM17.9007 155H16.8507V150.26C16.8507 150.093 16.8507 149.94 16.8507 149.8C16.8573 149.653 16.864 149.513 16.8707 149.38C16.8773 149.24 16.884 149.106 16.8907 148.98C16.804 149.066 16.714 149.15 16.6207 149.23C16.5273 149.31 16.4207 149.403 16.3007 149.51L15.5207 150.14L14.9807 149.46L17.0207 147.86H17.9007V155ZM22.7233 150.57C23.1967 150.57 23.61 150.653 23.9633 150.82C24.3167 150.986 24.59 151.226 24.7833 151.54C24.9833 151.853 25.0833 152.236 25.0833 152.69C25.0833 153.19 24.9767 153.62 24.7633 153.98C24.55 154.34 24.24 154.616 23.8333 154.81C23.4333 155.003 22.9433 155.1 22.3633 155.1C21.9967 155.1 21.65 155.066 21.3233 155C20.9967 154.933 20.72 154.836 20.4933 154.71V153.74C20.7333 153.88 21.0233 153.993 21.3633 154.08C21.71 154.166 22.04 154.21 22.3533 154.21C22.6933 154.21 22.9833 154.16 23.2233 154.06C23.47 153.953 23.66 153.796 23.7933 153.59C23.9333 153.376 24.0033 153.11 24.0033 152.79C24.0033 152.356 23.8667 152.026 23.5933 151.8C23.3267 151.566 22.9033 151.45 22.3233 151.45C22.1367 151.45 21.9267 151.466 21.6933 151.5C21.4667 151.533 21.2833 151.566 21.1433 151.6L20.6533 151.31L20.9233 147.86H24.5933V148.8H21.8433L21.6833 150.67C21.7967 150.65 21.94 150.63 22.1133 150.61C22.2867 150.583 22.49 150.57 22.7233 150.57ZM30.896 151.42C30.896 152 30.8493 152.516 30.756 152.97C30.6693 153.423 30.5293 153.81 30.336 154.13C30.1493 154.443 29.8993 154.683 29.586 154.85C29.2793 155.016 28.9093 155.1 28.476 155.1C27.9293 155.1 27.4793 154.953 27.126 154.66C26.7726 154.366 26.5093 153.946 26.336 153.4C26.1626 152.846 26.076 152.186 26.076 151.42C26.076 150.646 26.1526 149.986 26.306 149.44C26.466 148.893 26.7226 148.476 27.076 148.19C27.4293 147.896 27.896 147.75 28.476 147.75C29.0226 147.75 29.4726 147.896 29.826 148.19C30.186 148.476 30.4526 148.893 30.626 149.44C30.806 149.986 30.896 150.646 30.896 151.42ZM27.136 151.42C27.136 152.04 27.1793 152.556 27.266 152.97C27.3526 153.383 27.4926 153.693 27.686 153.9C27.886 154.106 28.1493 154.21 28.476 154.21C28.8026 154.21 29.0626 154.11 29.256 153.91C29.456 153.703 29.5993 153.393 29.686 152.98C29.7793 152.56 29.826 152.04 29.826 151.42C29.826 150.8 29.7793 150.286 29.686 149.88C29.5993 149.466 29.456 149.156 29.256 148.95C29.0626 148.743 28.8026 148.64 28.476 148.64C28.1493 148.64 27.886 148.743 27.686 148.95C27.4926 149.156 27.3526 149.466 27.266 149.88C27.1793 150.286 27.136 150.8 27.136 151.42ZM36.6186 151.42C36.6186 152 36.572 152.516 36.4786 152.97C36.392 153.423 36.252 153.81 36.0586 154.13C35.872 154.443 35.622 154.683 35.3086 154.85C35.002 155.016 34.632 155.1 34.1986 155.1C33.652 155.1 33.202 154.953 32.8486 154.66C32.4953 154.366 32.232 153.946 32.0586 153.4C31.8853 152.846 31.7986 152.186 31.7986 151.42C31.7986 150.646 31.8753 149.986 32.0286 149.44C32.1886 148.893 32.4453 148.476 32.7986 148.19C33.152 147.896 33.6186 147.75 34.1986 147.75C34.7453 147.75 35.1953 147.896 35.5486 148.19C35.9086 148.476 36.1753 148.893 36.3486 149.44C36.5286 149.986 36.6186 150.646 36.6186 151.42ZM32.8586 151.42C32.8586 152.04 32.902 152.556 32.9886 152.97C33.0753 153.383 33.2153 153.693 33.4086 153.9C33.6086 154.106 33.872 154.21 34.1986 154.21C34.5253 154.21 34.7853 154.11 34.9786 153.91C35.1786 153.703 35.322 153.393 35.4086 152.98C35.502 152.56 35.5486 152.04 35.5486 151.42C35.5486 150.8 35.502 150.286 35.4086 149.88C35.322 149.466 35.1786 149.156 34.9786 148.95C34.7853 148.743 34.5253 148.64 34.1986 148.64C33.872 148.64 33.6086 148.743 33.4086 148.95C33.2153 149.156 33.0753 149.466 32.9886 149.88C32.902 150.286 32.8586 150.8 32.8586 151.42ZM42.3413 151.42C42.3413 152 42.2946 152.516 42.2013 152.97C42.1146 153.423 41.9746 153.81 41.7813 154.13C41.5946 154.443 41.3446 154.683 41.0313 154.85C40.7246 155.016 40.3546 155.1 39.9213 155.1C39.3746 155.1 38.9246 154.953 38.5713 154.66C38.218 154.366 37.9546 153.946 37.7813 153.4C37.608 152.846 37.5213 152.186 37.5213 151.42C37.5213 150.646 37.598 149.986 37.7513 149.44C37.9113 148.893 38.168 148.476 38.5213 148.19C38.8746 147.896 39.3413 147.75 39.9213 147.75C40.468 147.75 40.918 147.896 41.2713 148.19C41.6313 148.476 41.898 148.893 42.0713 149.44C42.2513 149.986 42.3413 150.646 42.3413 151.42ZM38.5813 151.42C38.5813 152.04 38.6246 152.556 38.7113 152.97C38.798 153.383 38.938 153.693 39.1313 153.9C39.3313 154.106 39.5946 154.21 39.9213 154.21C40.248 154.21 40.508 154.11 40.7013 153.91C40.9013 153.703 41.0446 153.393 41.1313 152.98C41.2246 152.56 41.2713 152.04 41.2713 151.42C41.2713 150.8 41.2246 150.286 41.1313 149.88C41.0446 149.466 40.9013 149.156 40.7013 148.95C40.508 148.743 40.248 148.64 39.9213 148.64C39.5946 148.64 39.3313 148.743 39.1313 148.95C38.938 149.156 38.798 149.466 38.7113 149.88C38.6246 150.286 38.5813 150.8 38.5813 151.42Z" fill="#63646A"/>
<path d="M6.11895 120V115.88H7.10895V119.04H7.63895C8.06561 119.04 8.41228 119.013 8.67895 118.96C8.95228 118.907 9.16228 118.807 9.30895 118.66C9.46228 118.507 9.56895 118.287 9.62895 118C9.68895 117.713 9.71895 117.337 9.71895 116.87V114.05H10.7989V116.87C10.7989 117.65 10.7023 118.27 10.5089 118.73C10.3156 119.19 9.98895 119.517 9.52895 119.71C9.06895 119.903 8.43895 120 7.63895 120H6.11895ZM4.25895 120V114.05H6.79895C7.27228 114.05 7.66228 114.12 7.96895 114.26C8.28228 114.393 8.51561 114.607 8.66895 114.9C8.82228 115.187 8.89895 115.557 8.89895 116.01V118.1H7.90895V116.19C7.90895 115.89 7.86228 115.657 7.76895 115.49C7.68228 115.317 7.55561 115.193 7.38895 115.12C7.22895 115.047 7.04228 115.01 6.82895 115.01H5.32895V120H4.25895ZM19.4407 120H14.6407V119.18L16.4807 117.31C16.8407 116.943 17.1407 116.627 17.3807 116.36C17.6207 116.087 17.8007 115.827 17.9207 115.58C18.0407 115.327 18.1007 115.053 18.1007 114.76C18.1007 114.393 17.994 114.12 17.7807 113.94C17.5673 113.753 17.2907 113.66 16.9507 113.66C16.624 113.66 16.3307 113.723 16.0707 113.85C15.8107 113.97 15.5407 114.14 15.2607 114.36L14.6907 113.65C14.884 113.483 15.0907 113.333 15.3107 113.2C15.5373 113.067 15.7873 112.96 16.0607 112.88C16.3407 112.8 16.6473 112.76 16.9807 112.76C17.434 112.76 17.824 112.84 18.1507 113C18.4773 113.153 18.7273 113.373 18.9007 113.66C19.0807 113.947 19.1707 114.283 19.1707 114.67C19.1707 115.05 19.094 115.403 18.9407 115.73C18.7873 116.057 18.5707 116.38 18.2907 116.7C18.0107 117.013 17.6807 117.353 17.3007 117.72L15.9707 119.01V119.06H19.4407V120ZM25.1733 116.42C25.1733 117 25.1267 117.517 25.0333 117.97C24.9467 118.423 24.8067 118.81 24.6133 119.13C24.4267 119.443 24.1767 119.683 23.8633 119.85C23.5567 120.017 23.1867 120.1 22.7533 120.1C22.2067 120.1 21.7567 119.953 21.4033 119.66C21.05 119.367 20.7867 118.947 20.6133 118.4C20.44 117.847 20.3533 117.187 20.3533 116.42C20.3533 115.647 20.43 114.987 20.5833 114.44C20.7433 113.893 21 113.477 21.3533 113.19C21.7067 112.897 22.1733 112.75 22.7533 112.75C23.3 112.75 23.75 112.897 24.1033 113.19C24.4633 113.477 24.73 113.893 24.9033 114.44C25.0833 114.987 25.1733 115.647 25.1733 116.42ZM21.4133 116.42C21.4133 117.04 21.4567 117.557 21.5433 117.97C21.63 118.383 21.77 118.693 21.9633 118.9C22.1633 119.107 22.4267 119.21 22.7533 119.21C23.08 119.21 23.34 119.11 23.5333 118.91C23.7333 118.703 23.8767 118.393 23.9633 117.98C24.0567 117.56 24.1033 117.04 24.1033 116.42C24.1033 115.8 24.0567 115.287 23.9633 114.88C23.8767 114.467 23.7333 114.157 23.5333 113.95C23.34 113.743 23.08 113.64 22.7533 113.64C22.4267 113.64 22.1633 113.743 21.9633 113.95C21.77 114.157 21.63 114.467 21.5433 114.88C21.4567 115.287 21.4133 115.8 21.4133 116.42ZM30.896 116.42C30.896 117 30.8493 117.517 30.756 117.97C30.6693 118.423 30.5293 118.81 30.336 119.13C30.1493 119.443 29.8993 119.683 29.586 119.85C29.2793 120.017 28.9093 120.1 28.476 120.1C27.9293 120.1 27.4793 119.953 27.126 119.66C26.7726 119.367 26.5093 118.947 26.336 118.4C26.1626 117.847 26.076 117.187 26.076 116.42C26.076 115.647 26.1526 114.987 26.306 114.44C26.466 113.893 26.7226 113.477 27.076 113.19C27.4293 112.897 27.896 112.75 28.476 112.75C29.0226 112.75 29.4726 112.897 29.826 113.19C30.186 113.477 30.4526 113.893 30.626 114.44C30.806 114.987 30.896 115.647 30.896 116.42ZM27.136 116.42C27.136 117.04 27.1793 117.557 27.266 117.97C27.3526 118.383 27.4926 118.693 27.686 118.9C27.886 119.107 28.1493 119.21 28.476 119.21C28.8026 119.21 29.0626 119.11 29.256 118.91C29.456 118.703 29.5993 118.393 29.686 117.98C29.7793 117.56 29.826 117.04 29.826 116.42C29.826 115.8 29.7793 115.287 29.686 114.88C29.5993 114.467 29.456 114.157 29.256 113.95C29.0626 113.743 28.8026 113.64 28.476 113.64C28.1493 113.64 27.886 113.743 27.686 113.95C27.4926 114.157 27.3526 114.467 27.266 114.88C27.1793 115.287 27.136 115.8 27.136 116.42ZM36.6186 116.42C36.6186 117 36.572 117.517 36.4786 117.97C36.392 118.423 36.252 118.81 36.0586 119.13C35.872 119.443 35.622 119.683 35.3086 119.85C35.002 120.017 34.632 120.1 34.1986 120.1C33.652 120.1 33.202 119.953 32.8486 119.66C32.4953 119.367 32.232 118.947 32.0586 118.4C31.8853 117.847 31.7986 117.187 31.7986 116.42C31.7986 115.647 31.8753 114.987 32.0286 114.44C32.1886 113.893 32.4453 113.477 32.7986 113.19C33.152 112.897 33.6186 112.75 34.1986 112.75C34.7453 112.75 35.1953 112.897 35.5486 113.19C35.9086 113.477 36.1753 113.893 36.3486 114.44C36.5286 114.987 36.6186 115.647 36.6186 116.42ZM32.8586 116.42C32.8586 117.04 32.902 117.557 32.9886 117.97C33.0753 118.383 33.2153 118.693 33.4086 118.9C33.6086 119.107 33.872 119.21 34.1986 119.21C34.5253 119.21 34.7853 119.11 34.9786 118.91C35.1786 118.703 35.322 118.393 35.4086 117.98C35.502 117.56 35.5486 117.04 35.5486 116.42C35.5486 115.8 35.502 115.287 35.4086 114.88C35.322 114.467 35.1786 114.157 34.9786 113.95C34.7853 113.743 34.5253 113.64 34.1986 113.64C33.872 113.64 33.6086 113.743 33.4086 113.95C33.2153 114.157 33.0753 114.467 32.9886 114.88C32.902 115.287 32.8586 115.8 32.8586 116.42ZM42.3413 116.42C42.3413 117 42.2946 117.517 42.2013 117.97C42.1146 118.423 41.9746 118.81 41.7813 119.13C41.5946 119.443 41.3446 119.683 41.0313 119.85C40.7246 120.017 40.3546 120.1 39.9213 120.1C39.3746 120.1 38.9246 119.953 38.5713 119.66C38.218 119.367 37.9546 118.947 37.7813 118.4C37.608 117.847 37.5213 117.187 37.5213 116.42C37.5213 115.647 37.598 114.987 37.7513 114.44C37.9113 113.893 38.168 113.477 38.5213 113.19C38.8746 112.897 39.3413 112.75 39.9213 112.75C40.468 112.75 40.918 112.897 41.2713 113.19C41.6313 113.477 41.898 113.893 42.0713 114.44C42.2513 114.987 42.3413 115.647 42.3413 116.42ZM38.5813 116.42C38.5813 117.04 38.6246 117.557 38.7113 117.97C38.798 118.383 38.938 118.693 39.1313 118.9C39.3313 119.107 39.5946 119.21 39.9213 119.21C40.248 119.21 40.508 119.11 40.7013 118.91C40.9013 118.703 41.0446 118.393 41.1313 117.98C41.2246 117.56 41.2713 117.04 41.2713 116.42C41.2713 115.8 41.2246 115.287 41.1313 114.88C41.0446 114.467 40.9013 114.157 40.7013 113.95C40.508 113.743 40.248 113.64 39.9213 113.64C39.5946 113.64 39.3313 113.743 39.1313 113.95C38.938 114.157 38.798 114.467 38.7113 114.88C38.6246 115.287 38.5813 115.8 38.5813 116.42Z" fill="#63646A"/>
<path d="M6.11895 83.9998V79.8798H7.10895V83.0398H7.63895C8.06561 83.0398 8.41228 83.0131 8.67895 82.9598C8.95228 82.9064 9.16228 82.8064 9.30895 82.6598C9.46228 82.5064 9.56895 82.2864 9.62895 81.9998C9.68895 81.7131 9.71895 81.3364 9.71895 80.8698V78.0498H10.7989V80.8698C10.7989 81.6498 10.7023 82.2698 10.5089 82.7298C10.3156 83.1898 9.98895 83.5164 9.52895 83.7098C9.06895 83.9031 8.43895 83.9998 7.63895 83.9998H6.11895ZM4.25895 83.9998V78.0498H6.79895C7.27228 78.0498 7.66228 78.1198 7.96895 78.2598C8.28228 78.3931 8.51561 78.6064 8.66895 78.8998C8.82228 79.1864 8.89895 79.5564 8.89895 80.0098V82.0998H7.90895V80.1898C7.90895 79.8898 7.86228 79.6564 7.76895 79.4898C7.68228 79.3164 7.55561 79.1931 7.38895 79.1198C7.22895 79.0464 7.04228 79.0098 6.82895 79.0098H5.32895V83.9998H4.25895ZM19.4407 83.9998H14.6407V83.1798L16.4807 81.3098C16.8407 80.9431 17.1407 80.6264 17.3807 80.3598C17.6207 80.0864 17.8007 79.8264 17.9207 79.5798C18.0407 79.3264 18.1007 79.0531 18.1007 78.7598C18.1007 78.3931 17.994 78.1198 17.7807 77.9398C17.5673 77.7531 17.2907 77.6598 16.9507 77.6598C16.624 77.6598 16.3307 77.7231 16.0707 77.8498C15.8107 77.9698 15.5407 78.1398 15.2607 78.3598L14.6907 77.6498C14.884 77.4831 15.0907 77.3331 15.3107 77.1998C15.5373 77.0664 15.7873 76.9598 16.0607 76.8798C16.3407 76.7998 16.6473 76.7598 16.9807 76.7598C17.434 76.7598 17.824 76.8398 18.1507 76.9998C18.4773 77.1531 18.7273 77.3731 18.9007 77.6598C19.0807 77.9464 19.1707 78.2831 19.1707 78.6698C19.1707 79.0498 19.094 79.4031 18.9407 79.7298C18.7873 80.0564 18.5707 80.3798 18.2907 80.6998C18.0107 81.0131 17.6807 81.3531 17.3007 81.7198L15.9707 83.0098V83.0598H19.4407V83.9998ZM22.7233 79.5698C23.1967 79.5698 23.61 79.6531 23.9633 79.8198C24.3167 79.9864 24.59 80.2264 24.7833 80.5398C24.9833 80.8531 25.0833 81.2364 25.0833 81.6898C25.0833 82.1898 24.9767 82.6198 24.7633 82.9798C24.55 83.3398 24.24 83.6164 23.8333 83.8098C23.4333 84.0031 22.9433 84.0998 22.3633 84.0998C21.9967 84.0998 21.65 84.0664 21.3233 83.9998C20.9967 83.9331 20.72 83.8364 20.4933 83.7098V82.7398C20.7333 82.8798 21.0233 82.9931 21.3633 83.0798C21.71 83.1664 22.04 83.2098 22.3533 83.2098C22.6933 83.2098 22.9833 83.1598 23.2233 83.0598C23.47 82.9531 23.66 82.7964 23.7933 82.5898C23.9333 82.3764 24.0033 82.1098 24.0033 81.7898C24.0033 81.3564 23.8667 81.0264 23.5933 80.7998C23.3267 80.5664 22.9033 80.4498 22.3233 80.4498C22.1367 80.4498 21.9267 80.4664 21.6933 80.4998C21.4667 80.5331 21.2833 80.5664 21.1433 80.5998L20.6533 80.3098L20.9233 76.8598H24.5933V77.7998H21.8433L21.6833 79.6698C21.7967 79.6498 21.94 79.6298 22.1133 79.6098C22.2867 79.5831 22.49 79.5698 22.7233 79.5698ZM30.896 80.4198C30.896 80.9998 30.8493 81.5164 30.756 81.9698C30.6693 82.4231 30.5293 82.8098 30.336 83.1298C30.1493 83.4431 29.8993 83.6831 29.586 83.8498C29.2793 84.0164 28.9093 84.0998 28.476 84.0998C27.9293 84.0998 27.4793 83.9531 27.126 83.6598C26.7726 83.3664 26.5093 82.9464 26.336 82.3998C26.1626 81.8464 26.076 81.1864 26.076 80.4198C26.076 79.6464 26.1526 78.9864 26.306 78.4398C26.466 77.8931 26.7226 77.4764 27.076 77.1898C27.4293 76.8964 27.896 76.7498 28.476 76.7498C29.0226 76.7498 29.4726 76.8964 29.826 77.1898C30.186 77.4764 30.4526 77.8931 30.626 78.4398C30.806 78.9864 30.896 79.6464 30.896 80.4198ZM27.136 80.4198C27.136 81.0398 27.1793 81.5564 27.266 81.9698C27.3526 82.3831 27.4926 82.6931 27.686 82.8998C27.886 83.1064 28.1493 83.2098 28.476 83.2098C28.8026 83.2098 29.0626 83.1098 29.256 82.9098C29.456 82.7031 29.5993 82.3931 29.686 81.9798C29.7793 81.5598 29.826 81.0398 29.826 80.4198C29.826 79.7998 29.7793 79.2864 29.686 78.8798C29.5993 78.4664 29.456 78.1564 29.256 77.9498C29.0626 77.7431 28.8026 77.6398 28.476 77.6398C28.1493 77.6398 27.886 77.7431 27.686 77.9498C27.4926 78.1564 27.3526 78.4664 27.266 78.8798C27.1793 79.2864 27.136 79.7998 27.136 80.4198ZM36.6186 80.4198C36.6186 80.9998 36.572 81.5164 36.4786 81.9698C36.392 82.4231 36.252 82.8098 36.0586 83.1298C35.872 83.4431 35.622 83.6831 35.3086 83.8498C35.002 84.0164 34.632 84.0998 34.1986 84.0998C33.652 84.0998 33.202 83.9531 32.8486 83.6598C32.4953 83.3664 32.232 82.9464 32.0586 82.3998C31.8853 81.8464 31.7986 81.1864 31.7986 80.4198C31.7986 79.6464 31.8753 78.9864 32.0286 78.4398C32.1886 77.8931 32.4453 77.4764 32.7986 77.1898C33.152 76.8964 33.6186 76.7498 34.1986 76.7498C34.7453 76.7498 35.1953 76.8964 35.5486 77.1898C35.9086 77.4764 36.1753 77.8931 36.3486 78.4398C36.5286 78.9864 36.6186 79.6464 36.6186 80.4198ZM32.8586 80.4198C32.8586 81.0398 32.902 81.5564 32.9886 81.9698C33.0753 82.3831 33.2153 82.6931 33.4086 82.8998C33.6086 83.1064 33.872 83.2098 34.1986 83.2098C34.5253 83.2098 34.7853 83.1098 34.9786 82.9098C35.1786 82.7031 35.322 82.3931 35.4086 81.9798C35.502 81.5598 35.5486 81.0398 35.5486 80.4198C35.5486 79.7998 35.502 79.2864 35.4086 78.8798C35.322 78.4664 35.1786 78.1564 34.9786 77.9498C34.7853 77.7431 34.5253 77.6398 34.1986 77.6398C33.872 77.6398 33.6086 77.7431 33.4086 77.9498C33.2153 78.1564 33.0753 78.4664 32.9886 78.8798C32.902 79.2864 32.8586 79.7998 32.8586 80.4198ZM42.3413 80.4198C42.3413 80.9998 42.2946 81.5164 42.2013 81.9698C42.1146 82.4231 41.9746 82.8098 41.7813 83.1298C41.5946 83.4431 41.3446 83.6831 41.0313 83.8498C40.7246 84.0164 40.3546 84.0998 39.9213 84.0998C39.3746 84.0998 38.9246 83.9531 38.5713 83.6598C38.218 83.3664 37.9546 82.9464 37.7813 82.3998C37.608 81.8464 37.5213 81.1864 37.5213 80.4198C37.5213 79.6464 37.598 78.9864 37.7513 78.4398C37.9113 77.8931 38.168 77.4764 38.5213 77.1898C38.8746 76.8964 39.3413 76.7498 39.9213 76.7498C40.468 76.7498 40.918 76.8964 41.2713 77.1898C41.6313 77.4764 41.898 77.8931 42.0713 78.4398C42.2513 78.9864 42.3413 79.6464 42.3413 80.4198ZM38.5813 80.4198C38.5813 81.0398 38.6246 81.5564 38.7113 81.9698C38.798 82.3831 38.938 82.6931 39.1313 82.8998C39.3313 83.1064 39.5946 83.2098 39.9213 83.2098C40.248 83.2098 40.508 83.1098 40.7013 82.9098C40.9013 82.7031 41.0446 82.3931 41.1313 81.9798C41.2246 81.5598 41.2713 81.0398 41.2713 80.4198C41.2713 79.7998 41.2246 79.2864 41.1313 78.8798C41.0446 78.4664 40.9013 78.1564 40.7013 77.9498C40.508 77.7431 40.248 77.6398 39.9213 77.6398C39.5946 77.6398 39.3313 77.7431 39.1313 77.9498C38.938 78.1564 38.798 78.4664 38.7113 78.8798C38.6246 79.2864 38.5813 79.7998 38.5813 80.4198Z" fill="#63646A"/>
<path d="M6.11895 47.9998V43.8798H7.10895V47.0398H7.63895C8.06561 47.0398 8.41228 47.0131 8.67895 46.9598C8.95228 46.9064 9.16228 46.8064 9.30895 46.6598C9.46228 46.5064 9.56895 46.2864 9.62895 45.9998C9.68895 45.7131 9.71895 45.3364 9.71895 44.8698V42.0498H10.7989V44.8698C10.7989 45.6498 10.7023 46.2698 10.5089 46.7298C10.3156 47.1898 9.98895 47.5164 9.52895 47.7098C9.06895 47.9031 8.43895 47.9998 7.63895 47.9998H6.11895ZM4.25895 47.9998V42.0498H6.79895C7.27228 42.0498 7.66228 42.1198 7.96895 42.2598C8.28228 42.3931 8.51561 42.6064 8.66895 42.8998C8.82228 43.1864 8.89895 43.5564 8.89895 44.0098V46.0998H7.90895V44.1898C7.90895 43.8898 7.86228 43.6564 7.76895 43.4898C7.68228 43.3164 7.55561 43.1931 7.38895 43.1198C7.22895 43.0464 7.04228 43.0098 6.82895 43.0098H5.32895V47.9998H4.25895ZM19.1607 42.5098C19.1607 42.8298 19.0973 43.1098 18.9707 43.3498C18.8507 43.5831 18.6773 43.7731 18.4507 43.9198C18.224 44.0664 17.964 44.1731 17.6707 44.2398V44.2798C18.244 44.3464 18.6707 44.5264 18.9507 44.8198C19.2373 45.1064 19.3807 45.4864 19.3807 45.9598C19.3807 46.3731 19.2807 46.7431 19.0807 47.0698C18.8873 47.3898 18.584 47.6431 18.1707 47.8298C17.764 48.0098 17.2407 48.0998 16.6007 48.0998C16.2207 48.0998 15.8673 48.0698 15.5407 48.0098C15.214 47.9498 14.904 47.8498 14.6107 47.7098V46.7498C14.9107 46.9031 15.2307 47.0198 15.5707 47.0998C15.9173 47.1798 16.2473 47.2198 16.5607 47.2198C17.1673 47.2198 17.604 47.1064 17.8707 46.8798C18.1373 46.6464 18.2707 46.3231 18.2707 45.9098C18.2707 45.6431 18.2007 45.4264 18.0607 45.2598C17.9207 45.0864 17.7073 44.9598 17.4207 44.8798C17.134 44.7931 16.7773 44.7498 16.3507 44.7498H15.7007V43.8798H16.3607C16.7673 43.8798 17.0973 43.8298 17.3507 43.7298C17.604 43.6231 17.7907 43.4764 17.9107 43.2898C18.0307 43.1031 18.0907 42.8898 18.0907 42.6498C18.0907 42.3298 17.984 42.0831 17.7707 41.9098C17.564 41.7298 17.264 41.6398 16.8707 41.6398C16.6307 41.6398 16.4073 41.6664 16.2007 41.7198C16.0007 41.7731 15.8173 41.8431 15.6507 41.9298C15.484 42.0164 15.3207 42.1131 15.1607 42.2198L14.6407 41.4898C14.9007 41.2898 15.2173 41.1198 15.5907 40.9798C15.9707 40.8331 16.4073 40.7598 16.9007 40.7598C17.6407 40.7598 18.2007 40.9231 18.5807 41.2498C18.9673 41.5698 19.1607 41.9898 19.1607 42.5098ZM25.1733 44.4198C25.1733 44.9998 25.1267 45.5164 25.0333 45.9698C24.9467 46.4231 24.8067 46.8098 24.6133 47.1298C24.4267 47.4431 24.1767 47.6831 23.8633 47.8498C23.5567 48.0164 23.1867 48.0998 22.7533 48.0998C22.2067 48.0998 21.7567 47.9531 21.4033 47.6598C21.05 47.3664 20.7867 46.9464 20.6133 46.3998C20.44 45.8464 20.3533 45.1864 20.3533 44.4198C20.3533 43.6464 20.43 42.9864 20.5833 42.4398C20.7433 41.8931 21 41.4764 21.3533 41.1898C21.7067 40.8964 22.1733 40.7498 22.7533 40.7498C23.3 40.7498 23.75 40.8964 24.1033 41.1898C24.4633 41.4764 24.73 41.8931 24.9033 42.4398C25.0833 42.9864 25.1733 43.6464 25.1733 44.4198ZM21.4133 44.4198C21.4133 45.0398 21.4567 45.5564 21.5433 45.9698C21.63 46.3831 21.77 46.6931 21.9633 46.8998C22.1633 47.1064 22.4267 47.2098 22.7533 47.2098C23.08 47.2098 23.34 47.1098 23.5333 46.9098C23.7333 46.7031 23.8767 46.3931 23.9633 45.9798C24.0567 45.5598 24.1033 45.0398 24.1033 44.4198C24.1033 43.7998 24.0567 43.2864 23.9633 42.8798C23.8767 42.4664 23.7333 42.1564 23.5333 41.9498C23.34 41.7431 23.08 41.6398 22.7533 41.6398C22.4267 41.6398 22.1633 41.7431 21.9633 41.9498C21.77 42.1564 21.63 42.4664 21.5433 42.8798C21.4567 43.2864 21.4133 43.7998 21.4133 44.4198ZM30.896 44.4198C30.896 44.9998 30.8493 45.5164 30.756 45.9698C30.6693 46.4231 30.5293 46.8098 30.336 47.1298C30.1493 47.4431 29.8993 47.6831 29.586 47.8498C29.2793 48.0164 28.9093 48.0998 28.476 48.0998C27.9293 48.0998 27.4793 47.9531 27.126 47.6598C26.7726 47.3664 26.5093 46.9464 26.336 46.3998C26.1626 45.8464 26.076 45.1864 26.076 44.4198C26.076 43.6464 26.1526 42.9864 26.306 42.4398C26.466 41.8931 26.7226 41.4764 27.076 41.1898C27.4293 40.8964 27.896 40.7498 28.476 40.7498C29.0226 40.7498 29.4726 40.8964 29.826 41.1898C30.186 41.4764 30.4526 41.8931 30.626 42.4398C30.806 42.9864 30.896 43.6464 30.896 44.4198ZM27.136 44.4198C27.136 45.0398 27.1793 45.5564 27.266 45.9698C27.3526 46.3831 27.4926 46.6931 27.686 46.8998C27.886 47.1064 28.1493 47.2098 28.476 47.2098C28.8026 47.2098 29.0626 47.1098 29.256 46.9098C29.456 46.7031 29.5993 46.3931 29.686 45.9798C29.7793 45.5598 29.826 45.0398 29.826 44.4198C29.826 43.7998 29.7793 43.2864 29.686 42.8798C29.5993 42.4664 29.456 42.1564 29.256 41.9498C29.0626 41.7431 28.8026 41.6398 28.476 41.6398C28.1493 41.6398 27.886 41.7431 27.686 41.9498C27.4926 42.1564 27.3526 42.4664 27.266 42.8798C27.1793 43.2864 27.136 43.7998 27.136 44.4198ZM36.6186 44.4198C36.6186 44.9998 36.572 45.5164 36.4786 45.9698C36.392 46.4231 36.252 46.8098 36.0586 47.1298C35.872 47.4431 35.622 47.6831 35.3086 47.8498C35.002 48.0164 34.632 48.0998 34.1986 48.0998C33.652 48.0998 33.202 47.9531 32.8486 47.6598C32.4953 47.3664 32.232 46.9464 32.0586 46.3998C31.8853 45.8464 31.7986 45.1864 31.7986 44.4198C31.7986 43.6464 31.8753 42.9864 32.0286 42.4398C32.1886 41.8931 32.4453 41.4764 32.7986 41.1898C33.152 40.8964 33.6186 40.7498 34.1986 40.7498C34.7453 40.7498 35.1953 40.8964 35.5486 41.1898C35.9086 41.4764 36.1753 41.8931 36.3486 42.4398C36.5286 42.9864 36.6186 43.6464 36.6186 44.4198ZM32.8586 44.4198C32.8586 45.0398 32.902 45.5564 32.9886 45.9698C33.0753 46.3831 33.2153 46.6931 33.4086 46.8998C33.6086 47.1064 33.872 47.2098 34.1986 47.2098C34.5253 47.2098 34.7853 47.1098 34.9786 46.9098C35.1786 46.7031 35.322 46.3931 35.4086 45.9798C35.502 45.5598 35.5486 45.0398 35.5486 44.4198C35.5486 43.7998 35.502 43.2864 35.4086 42.8798C35.322 42.4664 35.1786 42.1564 34.9786 41.9498C34.7853 41.7431 34.5253 41.6398 34.1986 41.6398C33.872 41.6398 33.6086 41.7431 33.4086 41.9498C33.2153 42.1564 33.0753 42.4664 32.9886 42.8798C32.902 43.2864 32.8586 43.7998 32.8586 44.4198ZM42.3413 44.4198C42.3413 44.9998 42.2946 45.5164 42.2013 45.9698C42.1146 46.4231 41.9746 46.8098 41.7813 47.1298C41.5946 47.4431 41.3446 47.6831 41.0313 47.8498C40.7246 48.0164 40.3546 48.0998 39.9213 48.0998C39.3746 48.0998 38.9246 47.9531 38.5713 47.6598C38.218 47.3664 37.9546 46.9464 37.7813 46.3998C37.608 45.8464 37.5213 45.1864 37.5213 44.4198C37.5213 43.6464 37.598 42.9864 37.7513 42.4398C37.9113 41.8931 38.168 41.4764 38.5213 41.1898C38.8746 40.8964 39.3413 40.7498 39.9213 40.7498C40.468 40.7498 40.918 40.8964 41.2713 41.1898C41.6313 41.4764 41.898 41.8931 42.0713 42.4398C42.2513 42.9864 42.3413 43.6464 42.3413 44.4198ZM38.5813 44.4198C38.5813 45.0398 38.6246 45.5564 38.7113 45.9698C38.798 46.3831 38.938 46.6931 39.1313 46.8998C39.3313 47.1064 39.5946 47.2098 39.9213 47.2098C40.248 47.2098 40.508 47.1098 40.7013 46.9098C40.9013 46.7031 41.0446 46.3931 41.1313 45.9798C41.2246 45.5598 41.2713 45.0398 41.2713 44.4198C41.2713 43.7998 41.2246 43.2864 41.1313 42.8798C41.0446 42.4664 40.9013 42.1564 40.7013 41.9498C40.508 41.7431 40.248 41.6398 39.9213 41.6398C39.5946 41.6398 39.3313 41.7431 39.1313 41.9498C38.938 42.1564 38.798 42.4664 38.7113 42.8798C38.6246 43.2864 38.5813 43.7998 38.5813 44.4198Z" fill="#63646A"/>
<path d="M6.11895 11.7946V7.67465H7.10895V10.8346H7.63895C8.06561 10.8346 8.41228 10.808 8.67895 10.7546C8.95228 10.7013 9.16228 10.6013 9.30895 10.4546C9.46228 10.3013 9.56895 10.0813 9.62895 9.79465C9.68895 9.50798 9.71895 9.13131 9.71895 8.66465V5.84465H10.7989V8.66465C10.7989 9.44465 10.7023 10.0646 10.5089 10.5246C10.3156 10.9846 9.98895 11.3113 9.52895 11.5046C9.06895 11.698 8.43895 11.7946 7.63895 11.7946H6.11895ZM4.25895 11.7946V5.84465H6.79895C7.27228 5.84465 7.66228 5.91465 7.96895 6.05465C8.28228 6.18798 8.51561 6.40131 8.66895 6.69465C8.82228 6.98131 8.89895 7.35131 8.89895 7.80465V9.89465H7.90895V7.98465C7.90895 7.68465 7.86228 7.45131 7.76895 7.28465C7.68228 7.11131 7.55561 6.98798 7.38895 6.91465C7.22895 6.84131 7.04228 6.80465 6.82895 6.80465H5.32895V11.7946H4.25895ZM19.1607 6.30465C19.1607 6.62465 19.0973 6.90465 18.9707 7.14465C18.8507 7.37798 18.6773 7.56798 18.4507 7.71465C18.224 7.86131 17.964 7.96798 17.6707 8.03465V8.07465C18.244 8.14131 18.6707 8.32131 18.9507 8.61465C19.2373 8.90131 19.3807 9.28131 19.3807 9.75465C19.3807 10.168 19.2807 10.538 19.0807 10.8646C18.8873 11.1846 18.584 11.438 18.1707 11.6246C17.764 11.8046 17.2407 11.8946 16.6007 11.8946C16.2207 11.8946 15.8673 11.8646 15.5407 11.8046C15.214 11.7446 14.904 11.6446 14.6107 11.5046V10.5446C14.9107 10.698 15.2307 10.8146 15.5707 10.8946C15.9173 10.9746 16.2473 11.0146 16.5607 11.0146C17.1673 11.0146 17.604 10.9013 17.8707 10.6746C18.1373 10.4413 18.2707 10.118 18.2707 9.70465C18.2707 9.43798 18.2007 9.22131 18.0607 9.05465C17.9207 8.88131 17.7073 8.75465 17.4207 8.67465C17.134 8.58798 16.7773 8.54465 16.3507 8.54465H15.7007V7.67465H16.3607C16.7673 7.67465 17.0973 7.62465 17.3507 7.52465C17.604 7.41798 17.7907 7.27131 17.9107 7.08465C18.0307 6.89798 18.0907 6.68465 18.0907 6.44465C18.0907 6.12465 17.984 5.87798 17.7707 5.70465C17.564 5.52465 17.264 5.43465 16.8707 5.43465C16.6307 5.43465 16.4073 5.46131 16.2007 5.51465C16.0007 5.56798 15.8173 5.63798 15.6507 5.72465C15.484 5.81131 15.3207 5.90798 15.1607 6.01465L14.6407 5.28465C14.9007 5.08465 15.2173 4.91465 15.5907 4.77465C15.9707 4.62798 16.4073 4.55465 16.9007 4.55465C17.6407 4.55465 18.2007 4.71798 18.5807 5.04465C18.9673 5.36465 19.1607 5.78465 19.1607 6.30465ZM22.7233 7.36465C23.1967 7.36465 23.61 7.44798 23.9633 7.61465C24.3167 7.78131 24.59 8.02131 24.7833 8.33465C24.9833 8.64798 25.0833 9.03131 25.0833 9.48465C25.0833 9.98465 24.9767 10.4146 24.7633 10.7746C24.55 11.1346 24.24 11.4113 23.8333 11.6046C23.4333 11.798 22.9433 11.8946 22.3633 11.8946C21.9967 11.8946 21.65 11.8613 21.3233 11.7946C20.9967 11.728 20.72 11.6313 20.4933 11.5046V10.5346C20.7333 10.6746 21.0233 10.788 21.3633 10.8746C21.71 10.9613 22.04 11.0046 22.3533 11.0046C22.6933 11.0046 22.9833 10.9546 23.2233 10.8546C23.47 10.748 23.66 10.5913 23.7933 10.3846C23.9333 10.1713 24.0033 9.90465 24.0033 9.58465C24.0033 9.15131 23.8667 8.82131 23.5933 8.59465C23.3267 8.36131 22.9033 8.24465 22.3233 8.24465C22.1367 8.24465 21.9267 8.26131 21.6933 8.29465C21.4667 8.32798 21.2833 8.36131 21.1433 8.39465L20.6533 8.10465L20.9233 4.65465H24.5933V5.59465H21.8433L21.6833 7.46465C21.7967 7.44465 21.94 7.42465 22.1133 7.40465C22.2867 7.37798 22.49 7.36465 22.7233 7.36465ZM30.896 8.21465C30.896 8.79465 30.8493 9.31131 30.756 9.76465C30.6693 10.218 30.5293 10.6046 30.336 10.9246C30.1493 11.238 29.8993 11.478 29.586 11.6446C29.2793 11.8113 28.9093 11.8946 28.476 11.8946C27.9293 11.8946 27.4793 11.748 27.126 11.4546C26.7726 11.1613 26.5093 10.7413 26.336 10.1946C26.1626 9.64131 26.076 8.98131 26.076 8.21465C26.076 7.44131 26.1526 6.78131 26.306 6.23465C26.466 5.68798 26.7226 5.27131 27.076 4.98465C27.4293 4.69131 27.896 4.54465 28.476 4.54465C29.0226 4.54465 29.4726 4.69131 29.826 4.98465C30.186 5.27131 30.4526 5.68798 30.626 6.23465C30.806 6.78131 30.896 7.44131 30.896 8.21465ZM27.136 8.21465C27.136 8.83465 27.1793 9.35131 27.266 9.76465C27.3526 10.178 27.4926 10.488 27.686 10.6946C27.886 10.9013 28.1493 11.0046 28.476 11.0046C28.8026 11.0046 29.0626 10.9046 29.256 10.7046C29.456 10.498 29.5993 10.188 29.686 9.77465C29.7793 9.35465 29.826 8.83465 29.826 8.21465C29.826 7.59465 29.7793 7.08131 29.686 6.67465C29.5993 6.26131 29.456 5.95131 29.256 5.74465C29.0626 5.53798 28.8026 5.43465 28.476 5.43465C28.1493 5.43465 27.886 5.53798 27.686 5.74465C27.4926 5.95131 27.3526 6.26131 27.266 6.67465C27.1793 7.08131 27.136 7.59465 27.136 8.21465ZM36.6186 8.21465C36.6186 8.79465 36.572 9.31131 36.4786 9.76465C36.392 10.218 36.252 10.6046 36.0586 10.9246C35.872 11.238 35.622 11.478 35.3086 11.6446C35.002 11.8113 34.632 11.8946 34.1986 11.8946C33.652 11.8946 33.202 11.748 32.8486 11.4546C32.4953 11.1613 32.232 10.7413 32.0586 10.1946C31.8853 9.64131 31.7986 8.98131 31.7986 8.21465C31.7986 7.44131 31.8753 6.78131 32.0286 6.23465C32.1886 5.68798 32.4453 5.27131 32.7986 4.98465C33.152 4.69131 33.6186 4.54465 34.1986 4.54465C34.7453 4.54465 35.1953 4.69131 35.5486 4.98465C35.9086 5.27131 36.1753 5.68798 36.3486 6.23465C36.5286 6.78131 36.6186 7.44131 36.6186 8.21465ZM32.8586 8.21465C32.8586 8.83465 32.902 9.35131 32.9886 9.76465C33.0753 10.178 33.2153 10.488 33.4086 10.6946C33.6086 10.9013 33.872 11.0046 34.1986 11.0046C34.5253 11.0046 34.7853 10.9046 34.9786 10.7046C35.1786 10.498 35.322 10.188 35.4086 9.77465C35.502 9.35465 35.5486 8.83465 35.5486 8.21465C35.5486 7.59465 35.502 7.08131 35.4086 6.67465C35.322 6.26131 35.1786 5.95131 34.9786 5.74465C34.7853 5.53798 34.5253 5.43465 34.1986 5.43465C33.872 5.43465 33.6086 5.53798 33.4086 5.74465C33.2153 5.95131 33.0753 6.26131 32.9886 6.67465C32.902 7.08131 32.8586 7.59465 32.8586 8.21465ZM42.3413 8.21465C42.3413 8.79465 42.2946 9.31131 42.2013 9.76465C42.1146 10.218 41.9746 10.6046 41.7813 10.9246C41.5946 11.238 41.3446 11.478 41.0313 11.6446C40.7246 11.8113 40.3546 11.8946 39.9213 11.8946C39.3746 11.8946 38.9246 11.748 38.5713 11.4546C38.218 11.1613 37.9546 10.7413 37.7813 10.1946C37.608 9.64131 37.5213 8.98131 37.5213 8.21465C37.5213 7.44131 37.598 6.78131 37.7513 6.23465C37.9113 5.68798 38.168 5.27131 38.5213 4.98465C38.8746 4.69131 39.3413 4.54465 39.9213 4.54465C40.468 4.54465 40.918 4.69131 41.2713 4.98465C41.6313 5.27131 41.898 5.68798 42.0713 6.23465C42.2513 6.78131 42.3413 7.44131 42.3413 8.21465ZM38.5813 8.21465C38.5813 8.83465 38.6246 9.35131 38.7113 9.76465C38.798 10.178 38.938 10.488 39.1313 10.6946C39.3313 10.9013 39.5946 11.0046 39.9213 11.0046C40.248 11.0046 40.508 10.9046 40.7013 10.7046C40.9013 10.498 41.0446 10.188 41.1313 9.77465C41.2246 9.35465 41.2713 8.83465 41.2713 8.21465C41.2713 7.59465 41.2246 7.08131 41.1313 6.67465C41.0446 6.26131 40.9013 5.95131 40.7013 5.74465C40.508 5.53798 40.248 5.43465 39.9213 5.43465C39.5946 5.43465 39.3313 5.53798 39.1313 5.74465C38.938 5.95131 38.798 6.26131 38.7113 6.67465C38.6246 7.08131 38.5813 7.59465 38.5813 8.21465Z" fill="#63646A"/>
<path d="M109.527 238.149C109.527 238.729 109.484 239.246 109.397 239.699C109.31 240.153 109.17 240.539 108.977 240.859C108.79 241.173 108.544 241.413 108.237 241.579C107.937 241.746 107.574 241.829 107.147 241.829C106.614 241.829 106.17 241.683 105.817 241.389C105.47 241.096 105.21 240.676 105.037 240.129C104.87 239.576 104.787 238.916 104.787 238.149C104.787 237.376 104.864 236.716 105.017 236.169C105.177 235.623 105.43 235.206 105.777 234.919C106.124 234.626 106.58 234.479 107.147 234.479C107.68 234.479 108.124 234.626 108.477 234.919C108.83 235.206 109.094 235.623 109.267 236.169C109.44 236.716 109.527 237.376 109.527 238.149ZM105.667 238.149C105.667 238.803 105.714 239.346 105.807 239.779C105.907 240.213 106.064 240.539 106.277 240.759C106.497 240.973 106.787 241.079 107.147 241.079C107.507 241.079 107.794 240.973 108.007 240.759C108.227 240.546 108.387 240.223 108.487 239.789C108.587 239.349 108.637 238.803 108.637 238.149C108.637 237.496 108.587 236.956 108.487 236.529C108.387 236.096 108.227 235.773 108.007 235.559C107.794 235.339 107.507 235.229 107.147 235.229C106.787 235.229 106.497 235.339 106.277 235.559C106.064 235.773 105.907 236.096 105.807 236.529C105.714 236.956 105.667 237.496 105.667 238.149ZM115.22 241.729H110.5V240.999L112.37 239.109C112.73 238.749 113.033 238.429 113.28 238.149C113.526 237.869 113.713 237.596 113.84 237.329C113.966 237.056 114.03 236.759 114.03 236.439C114.03 236.046 113.913 235.749 113.68 235.549C113.446 235.343 113.143 235.239 112.77 235.239C112.423 235.239 112.116 235.299 111.85 235.419C111.59 235.539 111.323 235.706 111.05 235.919L110.58 235.329C110.766 235.169 110.97 235.026 111.19 234.899C111.416 234.773 111.66 234.673 111.92 234.599C112.186 234.526 112.47 234.489 112.77 234.489C113.216 234.489 113.6 234.566 113.92 234.719C114.24 234.873 114.486 235.093 114.66 235.379C114.84 235.659 114.93 235.996 114.93 236.389C114.93 236.669 114.886 236.936 114.8 237.189C114.713 237.436 114.59 237.679 114.43 237.919C114.27 238.159 114.076 238.403 113.85 238.649C113.623 238.896 113.373 239.153 113.1 239.419L111.61 240.889V240.929H115.22V241.729ZM119.362 234.589L116.702 241.729H115.842L118.502 234.589H119.362ZM124.663 241.729H119.943V240.999L121.813 239.109C122.173 238.749 122.476 238.429 122.723 238.149C122.97 237.869 123.156 237.596 123.283 237.329C123.41 237.056 123.473 236.759 123.473 236.439C123.473 236.046 123.356 235.749 123.123 235.549C122.89 235.343 122.586 235.239 122.213 235.239C121.866 235.239 121.56 235.299 121.293 235.419C121.033 235.539 120.766 235.706 120.493 235.919L120.023 235.329C120.21 235.169 120.413 235.026 120.633 234.899C120.86 234.773 121.103 234.673 121.363 234.599C121.63 234.526 121.913 234.489 122.213 234.489C122.66 234.489 123.043 234.566 123.363 234.719C123.683 234.873 123.93 235.093 124.103 235.379C124.283 235.659 124.373 235.996 124.373 236.389C124.373 236.669 124.33 236.936 124.243 237.189C124.156 237.436 124.033 237.679 123.873 237.919C123.713 238.159 123.52 238.403 123.293 238.649C123.066 238.896 122.816 239.153 122.543 239.419L121.053 240.889V240.929H124.663V241.729ZM130.386 241.729H125.666V240.999L127.536 239.109C127.896 238.749 128.199 238.429 128.446 238.149C128.692 237.869 128.879 237.596 129.006 237.329C129.132 237.056 129.196 236.759 129.196 236.439C129.196 236.046 129.079 235.749 128.846 235.549C128.612 235.343 128.309 235.239 127.936 235.239C127.589 235.239 127.282 235.299 127.016 235.419C126.756 235.539 126.489 235.706 126.216 235.919L125.746 235.329C125.932 235.169 126.136 235.026 126.356 234.899C126.582 234.773 126.826 234.673 127.086 234.599C127.352 234.526 127.636 234.489 127.936 234.489C128.382 234.489 128.766 234.566 129.086 234.719C129.406 234.873 129.652 235.093 129.826 235.379C130.006 235.659 130.096 235.996 130.096 236.389C130.096 236.669 130.052 236.936 129.966 237.189C129.879 237.436 129.756 237.679 129.596 237.919C129.436 238.159 129.242 238.403 129.016 238.649C128.789 238.896 128.539 239.153 128.266 239.419L126.776 240.889V240.929H130.386V241.729Z" fill="#63646A"/>
<path d="M70.7681 238.149C70.7681 238.729 70.7248 239.246 70.6381 239.699C70.5514 240.153 70.4114 240.539 70.2181 240.859C70.0314 241.173 69.7848 241.413 69.4781 241.579C69.1781 241.746 68.8148 241.829 68.3881 241.829C67.8548 241.829 67.4114 241.683 67.0581 241.389C66.7114 241.096 66.4514 240.676 66.2781 240.129C66.1114 239.576 66.0281 238.916 66.0281 238.149C66.0281 237.376 66.1048 236.716 66.2581 236.169C66.4181 235.623 66.6714 235.206 67.0181 234.919C67.3648 234.626 67.8214 234.479 68.3881 234.479C68.9214 234.479 69.3648 234.626 69.7181 234.919C70.0714 235.206 70.3348 235.623 70.5081 236.169C70.6814 236.716 70.7681 237.376 70.7681 238.149ZM66.9081 238.149C66.9081 238.803 66.9548 239.346 67.0481 239.779C67.1481 240.213 67.3048 240.539 67.5181 240.759C67.7381 240.973 68.0281 241.079 68.3881 241.079C68.7481 241.079 69.0348 240.973 69.2481 240.759C69.4681 240.546 69.6281 240.223 69.7281 239.789C69.8281 239.349 69.8781 238.803 69.8781 238.149C69.8781 237.496 69.8281 236.956 69.7281 236.529C69.6281 236.096 69.4681 235.773 69.2481 235.559C69.0348 235.339 68.7481 235.229 68.3881 235.229C68.0281 235.229 67.7381 235.339 67.5181 235.559C67.3048 235.773 67.1481 236.096 67.0481 236.529C66.9548 236.956 66.9081 237.496 66.9081 238.149ZM74.8107 241.729H73.9507V236.739C73.9507 236.546 73.9507 236.383 73.9507 236.249C73.9574 236.116 73.9641 235.993 73.9707 235.879C73.9774 235.759 73.9841 235.636 73.9907 235.509C73.8841 235.616 73.7874 235.706 73.7007 235.779C73.6141 235.853 73.5041 235.946 73.3707 236.059L72.6107 236.679L72.1507 236.089L74.0807 234.589H74.8107V241.729ZM80.6034 234.589L77.9434 241.729H77.0834L79.7434 234.589H80.6034ZM85.9041 241.729H81.1841V240.999L83.0541 239.109C83.4141 238.749 83.7174 238.429 83.9641 238.149C84.2108 237.869 84.3974 237.596 84.5241 237.329C84.6508 237.056 84.7141 236.759 84.7141 236.439C84.7141 236.046 84.5974 235.749 84.3641 235.549C84.1308 235.343 83.8274 235.239 83.4541 235.239C83.1074 235.239 82.8008 235.299 82.5341 235.419C82.2741 235.539 82.0074 235.706 81.7341 235.919L81.2641 235.329C81.4508 235.169 81.6541 235.026 81.8741 234.899C82.1008 234.773 82.3441 234.673 82.6041 234.599C82.8708 234.526 83.1541 234.489 83.4541 234.489C83.9008 234.489 84.2841 234.566 84.6041 234.719C84.9241 234.873 85.1708 235.093 85.3441 235.379C85.5241 235.659 85.6141 235.996 85.6141 236.389C85.6141 236.669 85.5708 236.936 85.4841 237.189C85.3974 237.436 85.2741 237.679 85.1141 237.919C84.9541 238.159 84.7608 238.403 84.5341 238.649C84.3074 238.896 84.0574 239.153 83.7841 239.419L82.2941 240.889V240.929H85.9041V241.729ZM91.6268 241.729H86.9068V240.999L88.7768 239.109C89.1368 238.749 89.4401 238.429 89.6868 238.149C89.9334 237.869 90.1201 237.596 90.2468 237.329C90.3734 237.056 90.4368 236.759 90.4368 236.439C90.4368 236.046 90.3201 235.749 90.0868 235.549C89.8534 235.343 89.5501 235.239 89.1768 235.239C88.8301 235.239 88.5234 235.299 88.2568 235.419C87.9968 235.539 87.7301 235.706 87.4568 235.919L86.9868 235.329C87.1734 235.169 87.3768 235.026 87.5968 234.899C87.8234 234.773 88.0668 234.673 88.3268 234.599C88.5934 234.526 88.8768 234.489 89.1768 234.489C89.6234 234.489 90.0068 234.566 90.3268 234.719C90.6468 234.873 90.8934 235.093 91.0668 235.379C91.2468 235.659 91.3368 235.996 91.3368 236.389C91.3368 236.669 91.2934 236.936 91.2068 237.189C91.1201 237.436 90.9968 237.679 90.8368 237.919C90.6768 238.159 90.4834 238.403 90.2568 238.649C90.0301 238.896 89.7801 239.153 89.5068 239.419L88.0168 240.889V240.929H91.6268V241.729Z" fill="#63646A"/>
<path d="M148.286 238.149C148.286 238.729 148.242 239.246 148.156 239.699C148.069 240.153 147.929 240.539 147.736 240.859C147.549 241.173 147.302 241.413 146.996 241.579C146.696 241.746 146.332 241.829 145.906 241.829C145.372 241.829 144.929 241.683 144.576 241.389C144.229 241.096 143.969 240.676 143.796 240.129C143.629 239.576 143.546 238.916 143.546 238.149C143.546 237.376 143.622 236.716 143.776 236.169C143.936 235.623 144.189 235.206 144.536 234.919C144.882 234.626 145.339 234.479 145.906 234.479C146.439 234.479 146.882 234.626 147.236 234.919C147.589 235.206 147.852 235.623 148.026 236.169C148.199 236.716 148.286 237.376 148.286 238.149ZM144.426 238.149C144.426 238.803 144.472 239.346 144.566 239.779C144.666 240.213 144.822 240.539 145.036 240.759C145.256 240.973 145.546 241.079 145.906 241.079C146.266 241.079 146.552 240.973 146.766 240.759C146.986 240.546 147.146 240.223 147.246 239.789C147.346 239.349 147.396 238.803 147.396 238.149C147.396 237.496 147.346 236.956 147.246 236.529C147.146 236.096 146.986 235.773 146.766 235.559C146.552 235.339 146.266 235.229 145.906 235.229C145.546 235.229 145.256 235.339 145.036 235.559C144.822 235.773 144.666 236.096 144.566 236.529C144.472 236.956 144.426 237.496 144.426 238.149ZM153.708 236.259C153.708 236.579 153.648 236.856 153.528 237.089C153.408 237.323 153.235 237.513 153.008 237.659C152.788 237.806 152.528 237.909 152.228 237.969V238.009C152.802 238.076 153.228 238.256 153.508 238.549C153.788 238.843 153.928 239.226 153.928 239.699C153.928 240.113 153.832 240.483 153.638 240.809C153.445 241.129 153.145 241.379 152.738 241.559C152.338 241.739 151.822 241.829 151.188 241.829C150.815 241.829 150.468 241.799 150.148 241.739C149.828 241.686 149.522 241.586 149.228 241.439V240.619C149.528 240.766 149.852 240.883 150.198 240.969C150.545 241.049 150.878 241.089 151.198 241.089C151.838 241.089 152.298 240.966 152.578 240.719C152.865 240.466 153.008 240.119 153.008 239.679C153.008 239.379 152.928 239.139 152.768 238.959C152.615 238.773 152.388 238.636 152.088 238.549C151.788 238.463 151.428 238.419 151.008 238.419H150.318V237.669H151.018C151.412 237.669 151.738 237.613 151.998 237.499C152.265 237.386 152.465 237.229 152.598 237.029C152.738 236.823 152.808 236.586 152.808 236.319C152.808 235.973 152.692 235.706 152.458 235.519C152.225 235.326 151.908 235.229 151.508 235.229C151.255 235.229 151.025 235.256 150.818 235.309C150.612 235.356 150.418 235.426 150.238 235.519C150.065 235.606 149.888 235.709 149.708 235.829L149.268 235.229C149.442 235.096 149.638 234.973 149.858 234.859C150.085 234.746 150.335 234.656 150.608 234.589C150.882 234.523 151.178 234.489 151.498 234.489C152.245 234.489 152.798 234.656 153.158 234.989C153.525 235.323 153.708 235.746 153.708 236.259ZM158.121 234.589L155.461 241.729H154.601L157.261 234.589H158.121ZM163.422 241.729H158.702V240.999L160.572 239.109C160.932 238.749 161.235 238.429 161.482 238.149C161.728 237.869 161.915 237.596 162.042 237.329C162.168 237.056 162.232 236.759 162.232 236.439C162.232 236.046 162.115 235.749 161.882 235.549C161.648 235.343 161.345 235.239 160.972 235.239C160.625 235.239 160.318 235.299 160.052 235.419C159.792 235.539 159.525 235.706 159.252 235.919L158.782 235.329C158.968 235.169 159.172 235.026 159.392 234.899C159.618 234.773 159.862 234.673 160.122 234.599C160.388 234.526 160.672 234.489 160.972 234.489C161.418 234.489 161.802 234.566 162.122 234.719C162.442 234.873 162.688 235.093 162.862 235.379C163.042 235.659 163.132 235.996 163.132 236.389C163.132 236.669 163.088 236.936 163.002 237.189C162.915 237.436 162.792 237.679 162.632 237.919C162.472 238.159 162.278 238.403 162.052 238.649C161.825 238.896 161.575 239.153 161.302 239.419L159.812 240.889V240.929H163.422V241.729ZM169.144 241.729H164.424V240.999L166.294 239.109C166.654 238.749 166.958 238.429 167.204 238.149C167.451 237.869 167.638 237.596 167.764 237.329C167.891 237.056 167.954 236.759 167.954 236.439C167.954 236.046 167.838 235.749 167.604 235.549C167.371 235.343 167.068 235.239 166.694 235.239C166.348 235.239 166.041 235.299 165.774 235.419C165.514 235.539 165.248 235.706 164.974 235.919L164.504 235.329C164.691 235.169 164.894 235.026 165.114 234.899C165.341 234.773 165.584 234.673 165.844 234.599C166.111 234.526 166.394 234.489 166.694 234.489C167.141 234.489 167.524 234.566 167.844 234.719C168.164 234.873 168.411 235.093 168.584 235.379C168.764 235.659 168.854 235.996 168.854 236.389C168.854 236.669 168.811 236.936 168.724 237.189C168.638 237.436 168.514 237.679 168.354 237.919C168.194 238.159 168.001 238.403 167.774 238.649C167.548 238.896 167.298 239.153 167.024 239.419L165.534 240.889V240.929H169.144V241.729Z" fill="#63646A"/>
<path d="M187.044 238.149C187.044 238.729 187.001 239.246 186.914 239.699C186.828 240.153 186.688 240.539 186.494 240.859C186.308 241.173 186.061 241.413 185.754 241.579C185.454 241.746 185.091 241.829 184.664 241.829C184.131 241.829 183.688 241.683 183.334 241.389C182.988 241.096 182.728 240.676 182.554 240.129C182.388 239.576 182.304 238.916 182.304 238.149C182.304 237.376 182.381 236.716 182.534 236.169C182.694 235.623 182.948 235.206 183.294 234.919C183.641 234.626 184.098 234.479 184.664 234.479C185.198 234.479 185.641 234.626 185.994 234.919C186.348 235.206 186.611 235.623 186.784 236.169C186.958 236.716 187.044 237.376 187.044 238.149ZM183.184 238.149C183.184 238.803 183.231 239.346 183.324 239.779C183.424 240.213 183.581 240.539 183.794 240.759C184.014 240.973 184.304 241.079 184.664 241.079C185.024 241.079 185.311 240.973 185.524 240.759C185.744 240.546 185.904 240.223 186.004 239.789C186.104 239.349 186.154 238.803 186.154 238.149C186.154 237.496 186.104 236.956 186.004 236.529C185.904 236.096 185.744 235.773 185.524 235.559C185.311 235.339 185.024 235.229 184.664 235.229C184.304 235.229 184.014 235.339 183.794 235.559C183.581 235.773 183.424 236.096 183.324 236.529C183.231 236.956 183.184 237.496 183.184 238.149ZM193.057 240.109H192.017V241.729H191.167V240.109H187.747V239.359L191.107 234.549H192.017V239.319H193.057V240.109ZM191.167 237.069C191.167 236.896 191.167 236.739 191.167 236.599C191.174 236.453 191.18 236.316 191.187 236.189C191.194 236.063 191.197 235.943 191.197 235.829C191.204 235.709 191.21 235.596 191.217 235.489H191.177C191.124 235.616 191.057 235.753 190.977 235.899C190.897 236.046 190.82 236.169 190.747 236.269L188.607 239.319H191.167V237.069ZM196.88 234.589L194.22 241.729H193.36L196.02 234.589H196.88ZM202.18 241.729H197.46V240.999L199.33 239.109C199.69 238.749 199.994 238.429 200.24 238.149C200.487 237.869 200.674 237.596 200.8 237.329C200.927 237.056 200.99 236.759 200.99 236.439C200.99 236.046 200.874 235.749 200.64 235.549C200.407 235.343 200.104 235.239 199.73 235.239C199.384 235.239 199.077 235.299 198.81 235.419C198.55 235.539 198.284 235.706 198.01 235.919L197.54 235.329C197.727 235.169 197.93 235.026 198.15 234.899C198.377 234.773 198.62 234.673 198.88 234.599C199.147 234.526 199.43 234.489 199.73 234.489C200.177 234.489 200.56 234.566 200.88 234.719C201.2 234.873 201.447 235.093 201.62 235.379C201.8 235.659 201.89 235.996 201.89 236.389C201.89 236.669 201.847 236.936 201.76 237.189C201.674 237.436 201.55 237.679 201.39 237.919C201.23 238.159 201.037 238.403 200.81 238.649C200.584 238.896 200.334 239.153 200.06 239.419L198.57 240.889V240.929H202.18V241.729ZM207.903 241.729H203.183V240.999L205.053 239.109C205.413 238.749 205.716 238.429 205.963 238.149C206.21 237.869 206.396 237.596 206.523 237.329C206.65 237.056 206.713 236.759 206.713 236.439C206.713 236.046 206.596 235.749 206.363 235.549C206.13 235.343 205.826 235.239 205.453 235.239C205.106 235.239 204.8 235.299 204.533 235.419C204.273 235.539 204.006 235.706 203.733 235.919L203.263 235.329C203.45 235.169 203.653 235.026 203.873 234.899C204.1 234.773 204.343 234.673 204.603 234.599C204.87 234.526 205.153 234.489 205.453 234.489C205.9 234.489 206.283 234.566 206.603 234.719C206.923 234.873 207.17 235.093 207.343 235.379C207.523 235.659 207.613 235.996 207.613 236.389C207.613 236.669 207.57 236.936 207.483 237.189C207.396 237.436 207.273 237.679 207.113 237.919C206.953 238.159 206.76 238.403 206.533 238.649C206.306 238.896 206.056 239.153 205.783 239.419L204.293 240.889V240.929H207.903V241.729Z" fill="#63646A"/>
<path d="M225.803 238.149C225.803 238.729 225.76 239.246 225.673 239.699C225.587 240.153 225.447 240.539 225.253 240.859C225.067 241.173 224.82 241.413 224.513 241.579C224.213 241.746 223.85 241.829 223.423 241.829C222.89 241.829 222.447 241.683 222.093 241.389C221.747 241.096 221.487 240.676 221.313 240.129C221.147 239.576 221.063 238.916 221.063 238.149C221.063 237.376 221.14 236.716 221.293 236.169C221.453 235.623 221.707 235.206 222.053 234.919C222.4 234.626 222.857 234.479 223.423 234.479C223.957 234.479 224.4 234.626 224.753 234.919C225.107 235.206 225.37 235.623 225.543 236.169C225.717 236.716 225.803 237.376 225.803 238.149ZM221.943 238.149C221.943 238.803 221.99 239.346 222.083 239.779C222.183 240.213 222.34 240.539 222.553 240.759C222.773 240.973 223.063 241.079 223.423 241.079C223.783 241.079 224.07 240.973 224.283 240.759C224.503 240.546 224.663 240.223 224.763 239.789C224.863 239.349 224.913 238.803 224.913 238.149C224.913 237.496 224.863 236.956 224.763 236.529C224.663 236.096 224.503 235.773 224.283 235.559C224.07 235.339 223.783 235.229 223.423 235.229C223.063 235.229 222.773 235.339 222.553 235.559C222.34 235.773 222.183 236.096 222.083 236.529C221.99 236.956 221.943 237.496 221.943 238.149ZM229.046 237.349C229.533 237.349 229.956 237.433 230.316 237.599C230.676 237.766 230.953 238.006 231.146 238.319C231.346 238.626 231.446 239.003 231.446 239.449C231.446 239.943 231.339 240.369 231.126 240.729C230.913 241.083 230.606 241.356 230.206 241.549C229.813 241.736 229.336 241.829 228.776 241.829C228.409 241.829 228.063 241.796 227.736 241.729C227.416 241.663 227.146 241.566 226.926 241.439V240.609C227.166 240.756 227.456 240.873 227.796 240.959C228.143 241.039 228.473 241.079 228.786 241.079C229.139 241.079 229.446 241.026 229.706 240.919C229.973 240.806 230.179 240.636 230.326 240.409C230.473 240.176 230.546 239.886 230.546 239.539C230.546 239.073 230.403 238.716 230.116 238.469C229.829 238.216 229.376 238.089 228.756 238.089C228.569 238.089 228.356 238.106 228.116 238.139C227.876 238.173 227.683 238.206 227.536 238.239L227.096 237.959L227.366 234.589H230.946V235.389H228.116L227.946 237.459C228.059 237.439 228.213 237.416 228.406 237.389C228.599 237.363 228.813 237.349 229.046 237.349ZM235.639 234.589L232.979 241.729H232.119L234.779 234.589H235.639ZM240.939 241.729H236.219V240.999L238.089 239.109C238.449 238.749 238.753 238.429 238.999 238.149C239.246 237.869 239.433 237.596 239.559 237.329C239.686 237.056 239.749 236.759 239.749 236.439C239.749 236.046 239.633 235.749 239.399 235.549C239.166 235.343 238.863 235.239 238.489 235.239C238.143 235.239 237.836 235.299 237.569 235.419C237.309 235.539 237.043 235.706 236.769 235.919L236.299 235.329C236.486 235.169 236.689 235.026 236.909 234.899C237.136 234.773 237.379 234.673 237.639 234.599C237.906 234.526 238.189 234.489 238.489 234.489C238.936 234.489 239.319 234.566 239.639 234.719C239.959 234.873 240.206 235.093 240.379 235.379C240.559 235.659 240.649 235.996 240.649 236.389C240.649 236.669 240.606 236.936 240.519 237.189C240.433 237.436 240.309 237.679 240.149 237.919C239.989 238.159 239.796 238.403 239.569 238.649C239.343 238.896 239.093 239.153 238.819 239.419L237.329 240.889V240.929H240.939V241.729ZM246.662 241.729H241.942V240.999L243.812 239.109C244.172 238.749 244.475 238.429 244.722 238.149C244.969 237.869 245.155 237.596 245.282 237.329C245.409 237.056 245.472 236.759 245.472 236.439C245.472 236.046 245.355 235.749 245.122 235.549C244.889 235.343 244.585 235.239 244.212 235.239C243.865 235.239 243.559 235.299 243.292 235.419C243.032 235.539 242.765 235.706 242.492 235.919L242.022 235.329C242.209 235.169 242.412 235.026 242.632 234.899C242.859 234.773 243.102 234.673 243.362 234.599C243.629 234.526 243.912 234.489 244.212 234.489C244.659 234.489 245.042 234.566 245.362 234.719C245.682 234.873 245.929 235.093 246.102 235.379C246.282 235.659 246.372 235.996 246.372 236.389C246.372 236.669 246.329 236.936 246.242 237.189C246.155 237.436 246.032 237.679 245.872 237.919C245.712 238.159 245.519 238.403 245.292 238.649C245.065 238.896 244.815 239.153 244.542 239.419L243.052 240.889V240.929H246.662V241.729Z" fill="#63646A"/>
<path d="M264.562 238.149C264.562 238.729 264.519 239.246 264.432 239.699C264.345 240.153 264.205 240.539 264.012 240.859C263.825 241.173 263.579 241.413 263.272 241.579C262.972 241.746 262.609 241.829 262.182 241.829C261.649 241.829 261.205 241.683 260.852 241.389C260.505 241.096 260.245 240.676 260.072 240.129C259.905 239.576 259.822 238.916 259.822 238.149C259.822 237.376 259.899 236.716 260.052 236.169C260.212 235.623 260.465 235.206 260.812 234.919C261.159 234.626 261.615 234.479 262.182 234.479C262.715 234.479 263.159 234.626 263.512 234.919C263.865 235.206 264.129 235.623 264.302 236.169C264.475 236.716 264.562 237.376 264.562 238.149ZM260.702 238.149C260.702 238.803 260.749 239.346 260.842 239.779C260.942 240.213 261.099 240.539 261.312 240.759C261.532 240.973 261.822 241.079 262.182 241.079C262.542 241.079 262.829 240.973 263.042 240.759C263.262 240.546 263.422 240.223 263.522 239.789C263.622 239.349 263.672 238.803 263.672 238.149C263.672 237.496 263.622 236.956 263.522 236.529C263.422 236.096 263.262 235.773 263.042 235.559C262.829 235.339 262.542 235.229 262.182 235.229C261.822 235.229 261.532 235.339 261.312 235.559C261.099 235.773 260.942 236.096 260.842 236.529C260.749 236.956 260.702 237.496 260.702 238.149ZM265.605 238.679C265.605 238.266 265.631 237.859 265.685 237.459C265.745 237.059 265.845 236.683 265.985 236.329C266.125 235.969 266.318 235.653 266.565 235.379C266.811 235.099 267.121 234.883 267.495 234.729C267.875 234.569 268.335 234.489 268.875 234.489C269.015 234.489 269.168 234.496 269.335 234.509C269.508 234.523 269.648 234.546 269.755 234.579V235.329C269.635 235.289 269.498 235.259 269.345 235.239C269.198 235.219 269.048 235.209 268.895 235.209C268.435 235.209 268.051 235.286 267.745 235.439C267.438 235.593 267.195 235.803 267.015 236.069C266.841 236.336 266.715 236.643 266.635 236.989C266.555 237.336 266.505 237.706 266.485 238.099H266.545C266.645 237.939 266.771 237.796 266.925 237.669C267.078 237.543 267.261 237.443 267.475 237.369C267.695 237.296 267.948 237.259 268.235 237.259C268.648 237.259 269.008 237.346 269.315 237.519C269.628 237.686 269.871 237.933 270.045 238.259C270.218 238.579 270.305 238.969 270.305 239.429C270.305 239.923 270.211 240.349 270.025 240.709C269.838 241.069 269.575 241.346 269.235 241.539C268.901 241.733 268.501 241.829 268.035 241.829C267.695 241.829 267.378 241.766 267.085 241.639C266.791 241.513 266.531 241.319 266.305 241.059C266.085 240.799 265.911 240.473 265.785 240.079C265.665 239.679 265.605 239.213 265.605 238.679ZM268.025 241.089C268.445 241.089 268.785 240.956 269.045 240.689C269.305 240.416 269.435 239.996 269.435 239.429C269.435 238.976 269.318 238.616 269.085 238.349C268.858 238.083 268.515 237.949 268.055 237.949C267.741 237.949 267.468 238.016 267.235 238.149C267.001 238.276 266.818 238.439 266.685 238.639C266.558 238.839 266.495 239.046 266.495 239.259C266.495 239.479 266.525 239.696 266.585 239.909C266.651 240.123 266.748 240.319 266.875 240.499C267.008 240.679 267.168 240.823 267.355 240.929C267.548 241.036 267.771 241.089 268.025 241.089ZM274.397 234.589L271.737 241.729H270.877L273.537 234.589H274.397ZM279.698 241.729H274.978V240.999L276.848 239.109C277.208 238.749 277.511 238.429 277.758 238.149C278.005 237.869 278.191 237.596 278.318 237.329C278.445 237.056 278.508 236.759 278.508 236.439C278.508 236.046 278.391 235.749 278.158 235.549C277.925 235.343 277.621 235.239 277.248 235.239C276.901 235.239 276.595 235.299 276.328 235.419C276.068 235.539 275.801 235.706 275.528 235.919L275.058 235.329C275.245 235.169 275.448 235.026 275.668 234.899C275.895 234.773 276.138 234.673 276.398 234.599C276.665 234.526 276.948 234.489 277.248 234.489C277.695 234.489 278.078 234.566 278.398 234.719C278.718 234.873 278.965 235.093 279.138 235.379C279.318 235.659 279.408 235.996 279.408 236.389C279.408 236.669 279.365 236.936 279.278 237.189C279.191 237.436 279.068 237.679 278.908 237.919C278.748 238.159 278.555 238.403 278.328 238.649C278.101 238.896 277.851 239.153 277.578 239.419L276.088 240.889V240.929H279.698V241.729ZM285.421 241.729H280.701V240.999L282.571 239.109C282.931 238.749 283.234 238.429 283.481 238.149C283.727 237.869 283.914 237.596 284.041 237.329C284.167 237.056 284.231 236.759 284.231 236.439C284.231 236.046 284.114 235.749 283.881 235.549C283.647 235.343 283.344 235.239 282.971 235.239C282.624 235.239 282.317 235.299 282.051 235.419C281.791 235.539 281.524 235.706 281.251 235.919L280.781 235.329C280.967 235.169 281.171 235.026 281.391 234.899C281.617 234.773 281.861 234.673 282.121 234.599C282.387 234.526 282.671 234.489 282.971 234.489C283.417 234.489 283.801 234.566 284.121 234.719C284.441 234.873 284.687 235.093 284.861 235.379C285.041 235.659 285.131 235.996 285.131 236.389C285.131 236.669 285.087 236.936 285.001 237.189C284.914 237.436 284.791 237.679 284.631 237.919C284.471 238.159 284.277 238.403 284.051 238.649C283.824 238.896 283.574 239.153 283.301 239.419L281.811 240.889V240.929H285.421V241.729Z" fill="#63646A"/>
<path d="M303.321 238.149C303.321 238.729 303.277 239.246 303.191 239.699C303.104 240.153 302.964 240.539 302.771 240.859C302.584 241.173 302.337 241.413 302.031 241.579C301.731 241.746 301.367 241.829 300.941 241.829C300.407 241.829 299.964 241.683 299.611 241.389C299.264 241.096 299.004 240.676 298.831 240.129C298.664 239.576 298.581 238.916 298.581 238.149C298.581 237.376 298.657 236.716 298.811 236.169C298.971 235.623 299.224 235.206 299.571 234.919C299.917 234.626 300.374 234.479 300.941 234.479C301.474 234.479 301.917 234.626 302.271 234.919C302.624 235.206 302.887 235.623 303.061 236.169C303.234 236.716 303.321 237.376 303.321 238.149ZM299.461 238.149C299.461 238.803 299.507 239.346 299.601 239.779C299.701 240.213 299.857 240.539 300.071 240.759C300.291 240.973 300.581 241.079 300.941 241.079C301.301 241.079 301.587 240.973 301.801 240.759C302.021 240.546 302.181 240.223 302.281 239.789C302.381 239.349 302.431 238.803 302.431 238.149C302.431 237.496 302.381 236.956 302.281 236.529C302.181 236.096 302.021 235.773 301.801 235.559C301.587 235.339 301.301 235.229 300.941 235.229C300.581 235.229 300.291 235.339 300.071 235.559C299.857 235.773 299.701 236.096 299.601 236.529C299.507 236.956 299.461 237.496 299.461 238.149ZM305.173 241.729L308.103 235.389H304.253V234.589H309.043V235.269L306.143 241.729H305.173ZM313.156 234.589L310.496 241.729H309.636L312.296 234.589H313.156ZM318.457 241.729H313.737V240.999L315.607 239.109C315.967 238.749 316.27 238.429 316.517 238.149C316.764 237.869 316.95 237.596 317.077 237.329C317.204 237.056 317.267 236.759 317.267 236.439C317.267 236.046 317.15 235.749 316.917 235.549C316.684 235.343 316.38 235.239 316.007 235.239C315.66 235.239 315.354 235.299 315.087 235.419C314.827 235.539 314.56 235.706 314.287 235.919L313.817 235.329C314.004 235.169 314.207 235.026 314.427 234.899C314.654 234.773 314.897 234.673 315.157 234.599C315.424 234.526 315.707 234.489 316.007 234.489C316.454 234.489 316.837 234.566 317.157 234.719C317.477 234.873 317.724 235.093 317.897 235.379C318.077 235.659 318.167 235.996 318.167 236.389C318.167 236.669 318.124 236.936 318.037 237.189C317.95 237.436 317.827 237.679 317.667 237.919C317.507 238.159 317.314 238.403 317.087 238.649C316.86 238.896 316.61 239.153 316.337 239.419L314.847 240.889V240.929H318.457V241.729ZM324.179 241.729H319.459V240.999L321.329 239.109C321.689 238.749 321.993 238.429 322.239 238.149C322.486 237.869 322.673 237.596 322.799 237.329C322.926 237.056 322.989 236.759 322.989 236.439C322.989 236.046 322.873 235.749 322.639 235.549C322.406 235.343 322.103 235.239 321.729 235.239C321.383 235.239 321.076 235.299 320.809 235.419C320.549 235.539 320.283 235.706 320.009 235.919L319.539 235.329C319.726 235.169 319.929 235.026 320.149 234.899C320.376 234.773 320.619 234.673 320.879 234.599C321.146 234.526 321.429 234.489 321.729 234.489C322.176 234.489 322.559 234.566 322.879 234.719C323.199 234.873 323.446 235.093 323.619 235.379C323.799 235.659 323.889 235.996 323.889 236.389C323.889 236.669 323.846 236.936 323.759 237.189C323.673 237.436 323.549 237.679 323.389 237.919C323.229 238.159 323.036 238.403 322.809 238.649C322.583 238.896 322.333 239.153 322.059 239.419L320.569 240.889V240.929H324.179V241.729Z" fill="#63646A"/>
<path d="M342.08 238.149C342.08 238.729 342.036 239.246 341.95 239.699C341.863 240.153 341.723 240.539 341.53 240.859C341.343 241.173 341.096 241.413 340.79 241.579C340.49 241.746 340.126 241.829 339.7 241.829C339.166 241.829 338.723 241.683 338.37 241.389C338.023 241.096 337.763 240.676 337.59 240.129C337.423 239.576 337.34 238.916 337.34 238.149C337.34 237.376 337.416 236.716 337.57 236.169C337.73 235.623 337.983 235.206 338.33 234.919C338.676 234.626 339.133 234.479 339.7 234.479C340.233 234.479 340.676 234.626 341.03 234.919C341.383 235.206 341.646 235.623 341.82 236.169C341.993 236.716 342.08 237.376 342.08 238.149ZM338.22 238.149C338.22 238.803 338.266 239.346 338.36 239.779C338.46 240.213 338.616 240.539 338.83 240.759C339.05 240.973 339.34 241.079 339.7 241.079C340.06 241.079 340.346 240.973 340.56 240.759C340.78 240.546 340.94 240.223 341.04 239.789C341.14 239.349 341.19 238.803 341.19 238.149C341.19 237.496 341.14 236.956 341.04 236.529C340.94 236.096 340.78 235.773 340.56 235.559C340.346 235.339 340.06 235.229 339.7 235.229C339.34 235.229 339.05 235.339 338.83 235.559C338.616 235.773 338.46 236.096 338.36 236.529C338.266 236.956 338.22 237.496 338.22 238.149ZM345.422 234.489C345.842 234.489 346.212 234.556 346.532 234.689C346.852 234.816 347.102 235.006 347.282 235.259C347.469 235.513 347.562 235.826 347.562 236.199C347.562 236.486 347.499 236.736 347.372 236.949C347.252 237.163 347.089 237.353 346.882 237.519C346.676 237.679 346.449 237.823 346.202 237.949C346.496 238.089 346.762 238.249 347.002 238.429C347.242 238.603 347.432 238.806 347.572 239.039C347.719 239.273 347.792 239.553 347.792 239.879C347.792 240.279 347.696 240.626 347.502 240.919C347.309 241.206 347.036 241.429 346.682 241.589C346.336 241.749 345.926 241.829 345.452 241.829C344.939 241.829 344.502 241.753 344.142 241.599C343.789 241.446 343.519 241.229 343.332 240.949C343.152 240.663 343.062 240.316 343.062 239.909C343.062 239.583 343.129 239.299 343.262 239.059C343.402 238.819 343.586 238.613 343.812 238.439C344.039 238.266 344.282 238.119 344.542 237.999C344.309 237.866 344.096 237.716 343.902 237.549C343.716 237.376 343.566 237.179 343.452 236.959C343.346 236.739 343.292 236.483 343.292 236.189C343.292 235.823 343.386 235.516 343.572 235.269C343.759 235.016 344.012 234.823 344.332 234.689C344.652 234.556 345.016 234.489 345.422 234.489ZM343.922 239.919C343.922 240.266 344.046 240.556 344.292 240.789C344.539 241.016 344.919 241.129 345.432 241.129C345.759 241.129 346.032 241.076 346.252 240.969C346.472 240.863 346.639 240.716 346.752 240.529C346.872 240.343 346.932 240.129 346.932 239.889C346.932 239.656 346.869 239.453 346.742 239.279C346.622 239.099 346.449 238.939 346.222 238.799C346.002 238.659 345.739 238.533 345.432 238.419L345.272 238.359C344.979 238.486 344.732 238.623 344.532 238.769C344.332 238.916 344.179 239.083 344.072 239.269C343.972 239.456 343.922 239.673 343.922 239.919ZM345.412 235.199C345.046 235.199 344.742 235.289 344.502 235.469C344.269 235.643 344.152 235.896 344.152 236.229C344.152 236.476 344.209 236.683 344.322 236.849C344.442 237.016 344.602 237.159 344.802 237.279C345.002 237.393 345.222 237.503 345.462 237.609C345.696 237.509 345.902 237.399 346.082 237.279C346.269 237.159 346.416 237.016 346.522 236.849C346.636 236.676 346.692 236.469 346.692 236.229C346.692 235.896 346.576 235.643 346.342 235.469C346.109 235.289 345.799 235.199 345.412 235.199ZM351.915 234.589L349.255 241.729H348.395L351.055 234.589H351.915ZM357.216 241.729H352.496V240.999L354.366 239.109C354.726 238.749 355.029 238.429 355.276 238.149C355.522 237.869 355.709 237.596 355.836 237.329C355.962 237.056 356.026 236.759 356.026 236.439C356.026 236.046 355.909 235.749 355.676 235.549C355.442 235.343 355.139 235.239 354.766 235.239C354.419 235.239 354.112 235.299 353.846 235.419C353.586 235.539 353.319 235.706 353.046 235.919L352.576 235.329C352.762 235.169 352.966 235.026 353.186 234.899C353.412 234.773 353.656 234.673 353.916 234.599C354.182 234.526 354.466 234.489 354.766 234.489C355.212 234.489 355.596 234.566 355.916 234.719C356.236 234.873 356.482 235.093 356.656 235.379C356.836 235.659 356.926 235.996 356.926 236.389C356.926 236.669 356.882 236.936 356.796 237.189C356.709 237.436 356.586 237.679 356.426 237.919C356.266 238.159 356.072 238.403 355.846 238.649C355.619 238.896 355.369 239.153 355.096 239.419L353.606 240.889V240.929H357.216V241.729ZM362.938 241.729H358.218V240.999L360.088 239.109C360.448 238.749 360.752 238.429 360.998 238.149C361.245 237.869 361.432 237.596 361.558 237.329C361.685 237.056 361.748 236.759 361.748 236.439C361.748 236.046 361.632 235.749 361.398 235.549C361.165 235.343 360.862 235.239 360.488 235.239C360.142 235.239 359.835 235.299 359.568 235.419C359.308 235.539 359.042 235.706 358.768 235.919L358.298 235.329C358.485 235.169 358.688 235.026 358.908 234.899C359.135 234.773 359.378 234.673 359.638 234.599C359.905 234.526 360.188 234.489 360.488 234.489C360.935 234.489 361.318 234.566 361.638 234.719C361.958 234.873 362.205 235.093 362.378 235.379C362.558 235.659 362.648 235.996 362.648 236.389C362.648 236.669 362.605 236.936 362.518 237.189C362.432 237.436 362.308 237.679 362.148 237.919C361.988 238.159 361.795 238.403 361.568 238.649C361.342 238.896 361.092 239.153 360.818 239.419L359.328 240.889V240.929H362.938V241.729Z" fill="#63646A"/>
<path d="M380.838 238.149C380.838 238.729 380.795 239.246 380.708 239.699C380.622 240.153 380.482 240.539 380.288 240.859C380.102 241.173 379.855 241.413 379.548 241.579C379.248 241.746 378.885 241.829 378.458 241.829C377.925 241.829 377.482 241.683 377.128 241.389C376.782 241.096 376.522 240.676 376.348 240.129C376.182 239.576 376.098 238.916 376.098 238.149C376.098 237.376 376.175 236.716 376.328 236.169C376.488 235.623 376.742 235.206 377.088 234.919C377.435 234.626 377.892 234.479 378.458 234.479C378.992 234.479 379.435 234.626 379.788 234.919C380.142 235.206 380.405 235.623 380.578 236.169C380.752 236.716 380.838 237.376 380.838 238.149ZM376.978 238.149C376.978 238.803 377.025 239.346 377.118 239.779C377.218 240.213 377.375 240.539 377.588 240.759C377.808 240.973 378.098 241.079 378.458 241.079C378.818 241.079 379.105 240.973 379.318 240.759C379.538 240.546 379.698 240.223 379.798 239.789C379.898 239.349 379.948 238.803 379.948 238.149C379.948 237.496 379.898 236.956 379.798 236.529C379.698 236.096 379.538 235.773 379.318 235.559C379.105 235.339 378.818 235.229 378.458 235.229C378.098 235.229 377.808 235.339 377.588 235.559C377.375 235.773 377.218 236.096 377.118 236.529C377.025 236.956 376.978 237.496 376.978 238.149ZM386.531 237.639C386.531 238.046 386.501 238.453 386.441 238.859C386.388 239.259 386.291 239.639 386.151 239.999C386.011 240.353 385.818 240.669 385.571 240.949C385.324 241.223 385.011 241.439 384.631 241.599C384.251 241.753 383.791 241.829 383.251 241.829C383.118 241.829 382.961 241.819 382.781 241.799C382.608 241.786 382.464 241.763 382.351 241.729V240.979C382.471 241.019 382.611 241.053 382.771 241.079C382.931 241.099 383.084 241.109 383.231 241.109C383.698 241.109 384.081 241.033 384.381 240.879C384.688 240.726 384.931 240.519 385.111 240.259C385.291 239.993 385.421 239.686 385.501 239.339C385.581 238.986 385.628 238.616 385.641 238.229H385.581C385.481 238.383 385.354 238.523 385.201 238.649C385.048 238.776 384.861 238.876 384.641 238.949C384.428 239.023 384.174 239.059 383.881 239.059C383.474 239.059 383.114 238.976 382.801 238.809C382.494 238.636 382.254 238.389 382.081 238.069C381.914 237.749 381.831 237.359 381.831 236.899C381.831 236.399 381.924 235.969 382.111 235.609C382.304 235.249 382.571 234.973 382.911 234.779C383.251 234.586 383.651 234.489 384.111 234.489C384.451 234.489 384.768 234.556 385.061 234.689C385.354 234.816 385.611 235.009 385.831 235.269C386.051 235.529 386.221 235.856 386.341 236.249C386.468 236.643 386.531 237.106 386.531 237.639ZM384.111 235.229C383.698 235.229 383.358 235.366 383.091 235.639C382.831 235.913 382.701 236.329 382.701 236.889C382.701 237.349 382.811 237.713 383.031 237.979C383.258 238.239 383.604 238.369 384.071 238.369C384.391 238.369 384.668 238.306 384.901 238.179C385.134 238.046 385.314 237.879 385.441 237.679C385.574 237.479 385.641 237.273 385.641 237.059C385.641 236.846 385.608 236.633 385.541 236.419C385.481 236.199 385.388 235.999 385.261 235.819C385.134 235.639 384.974 235.496 384.781 235.389C384.588 235.283 384.364 235.229 384.111 235.229ZM390.674 234.589L388.014 241.729H387.154L389.814 234.589H390.674ZM395.974 241.729H391.254V240.999L393.124 239.109C393.484 238.749 393.788 238.429 394.034 238.149C394.281 237.869 394.468 237.596 394.594 237.329C394.721 237.056 394.784 236.759 394.784 236.439C394.784 236.046 394.668 235.749 394.434 235.549C394.201 235.343 393.898 235.239 393.524 235.239C393.178 235.239 392.871 235.299 392.604 235.419C392.344 235.539 392.078 235.706 391.804 235.919L391.334 235.329C391.521 235.169 391.724 235.026 391.944 234.899C392.171 234.773 392.414 234.673 392.674 234.599C392.941 234.526 393.224 234.489 393.524 234.489C393.971 234.489 394.354 234.566 394.674 234.719C394.994 234.873 395.241 235.093 395.414 235.379C395.594 235.659 395.684 235.996 395.684 236.389C395.684 236.669 395.641 236.936 395.554 237.189C395.468 237.436 395.344 237.679 395.184 237.919C395.024 238.159 394.831 238.403 394.604 238.649C394.378 238.896 394.128 239.153 393.854 239.419L392.364 240.889V240.929H395.974V241.729ZM401.697 241.729H396.977V240.999L398.847 239.109C399.207 238.749 399.51 238.429 399.757 238.149C400.004 237.869 400.19 237.596 400.317 237.329C400.444 237.056 400.507 236.759 400.507 236.439C400.507 236.046 400.39 235.749 400.157 235.549C399.924 235.343 399.62 235.239 399.247 235.239C398.9 235.239 398.594 235.299 398.327 235.419C398.067 235.539 397.8 235.706 397.527 235.919L397.057 235.329C397.244 235.169 397.447 235.026 397.667 234.899C397.894 234.773 398.137 234.673 398.397 234.599C398.664 234.526 398.947 234.489 399.247 234.489C399.694 234.489 400.077 234.566 400.397 234.719C400.717 234.873 400.964 235.093 401.137 235.379C401.317 235.659 401.407 235.996 401.407 236.389C401.407 236.669 401.364 236.936 401.277 237.189C401.19 237.436 401.067 237.679 400.907 237.919C400.747 238.159 400.554 238.403 400.327 238.649C400.1 238.896 399.85 239.153 399.577 239.419L398.087 240.889V240.929H401.697V241.729Z" fill="#63646A"/>
<path d="M417.917 241.729H417.057V236.739C417.057 236.546 417.057 236.383 417.057 236.249C417.064 236.116 417.071 235.993 417.077 235.879C417.084 235.759 417.091 235.636 417.097 235.509C416.991 235.616 416.894 235.706 416.807 235.779C416.721 235.853 416.611 235.946 416.477 236.059L415.717 236.679L415.257 236.089L417.187 234.589H417.917V241.729ZM425.32 238.149C425.32 238.729 425.277 239.246 425.19 239.699C425.103 240.153 424.963 240.539 424.77 240.859C424.583 241.173 424.337 241.413 424.03 241.579C423.73 241.746 423.367 241.829 422.94 241.829C422.407 241.829 421.963 241.683 421.61 241.389C421.263 241.096 421.003 240.676 420.83 240.129C420.663 239.576 420.58 238.916 420.58 238.149C420.58 237.376 420.657 236.716 420.81 236.169C420.97 235.623 421.223 235.206 421.57 234.919C421.917 234.626 422.373 234.479 422.94 234.479C423.473 234.479 423.917 234.626 424.27 234.919C424.623 235.206 424.887 235.623 425.06 236.169C425.233 236.716 425.32 237.376 425.32 238.149ZM421.46 238.149C421.46 238.803 421.507 239.346 421.6 239.779C421.7 240.213 421.857 240.539 422.07 240.759C422.29 240.973 422.58 241.079 422.94 241.079C423.3 241.079 423.587 240.973 423.8 240.759C424.02 240.546 424.18 240.223 424.28 239.789C424.38 239.349 424.43 238.803 424.43 238.149C424.43 237.496 424.38 236.956 424.28 236.529C424.18 236.096 424.02 235.773 423.8 235.559C423.587 235.339 423.3 235.229 422.94 235.229C422.58 235.229 422.29 235.339 422.07 235.559C421.857 235.773 421.7 236.096 421.6 236.529C421.507 236.956 421.46 237.496 421.46 238.149ZM429.433 234.589L426.773 241.729H425.913L428.573 234.589H429.433ZM434.733 241.729H430.013V240.999L431.883 239.109C432.243 238.749 432.547 238.429 432.793 238.149C433.04 237.869 433.227 237.596 433.353 237.329C433.48 237.056 433.543 236.759 433.543 236.439C433.543 236.046 433.427 235.749 433.193 235.549C432.96 235.343 432.657 235.239 432.283 235.239C431.937 235.239 431.63 235.299 431.363 235.419C431.103 235.539 430.837 235.706 430.563 235.919L430.093 235.329C430.28 235.169 430.483 235.026 430.703 234.899C430.93 234.773 431.173 234.673 431.433 234.599C431.7 234.526 431.983 234.489 432.283 234.489C432.73 234.489 433.113 234.566 433.433 234.719C433.753 234.873 434 235.093 434.173 235.379C434.353 235.659 434.443 235.996 434.443 236.389C434.443 236.669 434.4 236.936 434.313 237.189C434.227 237.436 434.103 237.679 433.943 237.919C433.783 238.159 433.59 238.403 433.363 238.649C433.137 238.896 432.887 239.153 432.613 239.419L431.123 240.889V240.929H434.733V241.729ZM440.456 241.729H435.736V240.999L437.606 239.109C437.966 238.749 438.269 238.429 438.516 238.149C438.763 237.869 438.949 237.596 439.076 237.329C439.203 237.056 439.266 236.759 439.266 236.439C439.266 236.046 439.149 235.749 438.916 235.549C438.683 235.343 438.379 235.239 438.006 235.239C437.659 235.239 437.353 235.299 437.086 235.419C436.826 235.539 436.559 235.706 436.286 235.919L435.816 235.329C436.003 235.169 436.206 235.026 436.426 234.899C436.653 234.773 436.896 234.673 437.156 234.599C437.423 234.526 437.706 234.489 438.006 234.489C438.453 234.489 438.836 234.566 439.156 234.719C439.476 234.873 439.723 235.093 439.896 235.379C440.076 235.659 440.166 235.996 440.166 236.389C440.166 236.669 440.123 236.936 440.036 237.189C439.949 237.436 439.826 237.679 439.666 237.919C439.506 238.159 439.313 238.403 439.086 238.649C438.859 238.896 438.609 239.153 438.336 239.419L436.846 240.889V240.929H440.456V241.729Z" fill="#63646A"/>
<path d="M456.676 241.729H455.816V236.739C455.816 236.546 455.816 236.383 455.816 236.249C455.823 236.116 455.829 235.993 455.836 235.879C455.843 235.759 455.849 235.636 455.856 235.509C455.749 235.616 455.653 235.706 455.566 235.779C455.479 235.853 455.369 235.946 455.236 236.059L454.476 236.679L454.016 236.089L455.946 234.589H456.676V241.729ZM462.399 241.729H461.539V236.739C461.539 236.546 461.539 236.383 461.539 236.249C461.545 236.116 461.552 235.993 461.559 235.879C461.565 235.759 461.572 235.636 461.579 235.509C461.472 235.616 461.375 235.706 461.289 235.779C461.202 235.853 461.092 235.946 460.959 236.059L460.199 236.679L459.739 236.089L461.669 234.589H462.399V241.729ZM468.191 234.589L465.531 241.729H464.671L467.331 234.589H468.191ZM473.492 241.729H468.772V240.999L470.642 239.109C471.002 238.749 471.305 238.429 471.552 238.149C471.799 237.869 471.985 237.596 472.112 237.329C472.239 237.056 472.302 236.759 472.302 236.439C472.302 236.046 472.185 235.749 471.952 235.549C471.719 235.343 471.415 235.239 471.042 235.239C470.695 235.239 470.389 235.299 470.122 235.419C469.862 235.539 469.595 235.706 469.322 235.919L468.852 235.329C469.039 235.169 469.242 235.026 469.462 234.899C469.689 234.773 469.932 234.673 470.192 234.599C470.459 234.526 470.742 234.489 471.042 234.489C471.489 234.489 471.872 234.566 472.192 234.719C472.512 234.873 472.759 235.093 472.932 235.379C473.112 235.659 473.202 235.996 473.202 236.389C473.202 236.669 473.159 236.936 473.072 237.189C472.985 237.436 472.862 237.679 472.702 237.919C472.542 238.159 472.349 238.403 472.122 238.649C471.895 238.896 471.645 239.153 471.372 239.419L469.882 240.889V240.929H473.492V241.729ZM479.215 241.729H474.495V240.999L476.365 239.109C476.725 238.749 477.028 238.429 477.275 238.149C477.521 237.869 477.708 237.596 477.835 237.329C477.961 237.056 478.025 236.759 478.025 236.439C478.025 236.046 477.908 235.749 477.675 235.549C477.441 235.343 477.138 235.239 476.765 235.239C476.418 235.239 476.111 235.299 475.845 235.419C475.585 235.539 475.318 235.706 475.045 235.919L474.575 235.329C474.761 235.169 474.965 235.026 475.185 234.899C475.411 234.773 475.655 234.673 475.915 234.599C476.181 234.526 476.465 234.489 476.765 234.489C477.211 234.489 477.595 234.566 477.915 234.719C478.235 234.873 478.481 235.093 478.655 235.379C478.835 235.659 478.925 235.996 478.925 236.389C478.925 236.669 478.881 236.936 478.795 237.189C478.708 237.436 478.585 237.679 478.425 237.919C478.265 238.159 478.071 238.403 477.845 238.649C477.618 238.896 477.368 239.153 477.095 239.419L475.605 240.889V240.929H479.215V241.729Z" fill="#63646A"/>
<path d="M495.435 241.729H494.575V236.739C494.575 236.546 494.575 236.383 494.575 236.249C494.581 236.116 494.588 235.993 494.595 235.879C494.601 235.759 494.608 235.636 494.615 235.509C494.508 235.616 494.411 235.706 494.325 235.779C494.238 235.853 494.128 235.946 493.995 236.059L493.235 236.679L492.775 236.089L494.705 234.589H495.435V241.729ZM502.807 241.729H498.087V240.999L499.957 239.109C500.317 238.749 500.621 238.429 500.867 238.149C501.114 237.869 501.301 237.596 501.427 237.329C501.554 237.056 501.617 236.759 501.617 236.439C501.617 236.046 501.501 235.749 501.267 235.549C501.034 235.343 500.731 235.239 500.357 235.239C500.011 235.239 499.704 235.299 499.437 235.419C499.177 235.539 498.911 235.706 498.637 235.919L498.167 235.329C498.354 235.169 498.557 235.026 498.777 234.899C499.004 234.773 499.247 234.673 499.507 234.599C499.774 234.526 500.057 234.489 500.357 234.489C500.804 234.489 501.187 234.566 501.507 234.719C501.827 234.873 502.074 235.093 502.247 235.379C502.427 235.659 502.517 235.996 502.517 236.389C502.517 236.669 502.474 236.936 502.387 237.189C502.301 237.436 502.177 237.679 502.017 237.919C501.857 238.159 501.664 238.403 501.437 238.649C501.211 238.896 500.961 239.153 500.687 239.419L499.197 240.889V240.929H502.807V241.729ZM506.95 234.589L504.29 241.729H503.43L506.09 234.589H506.95ZM512.251 241.729H507.531V240.999L509.401 239.109C509.761 238.749 510.064 238.429 510.311 238.149C510.557 237.869 510.744 237.596 510.871 237.329C510.997 237.056 511.061 236.759 511.061 236.439C511.061 236.046 510.944 235.749 510.711 235.549C510.477 235.343 510.174 235.239 509.801 235.239C509.454 235.239 509.147 235.299 508.881 235.419C508.621 235.539 508.354 235.706 508.081 235.919L507.611 235.329C507.797 235.169 508.001 235.026 508.221 234.899C508.447 234.773 508.691 234.673 508.951 234.599C509.217 234.526 509.501 234.489 509.801 234.489C510.247 234.489 510.631 234.566 510.951 234.719C511.271 234.873 511.517 235.093 511.691 235.379C511.871 235.659 511.961 235.996 511.961 236.389C511.961 236.669 511.917 236.936 511.831 237.189C511.744 237.436 511.621 237.679 511.461 237.919C511.301 238.159 511.107 238.403 510.881 238.649C510.654 238.896 510.404 239.153 510.131 239.419L508.641 240.889V240.929H512.251V241.729ZM517.973 241.729H513.253V240.999L515.123 239.109C515.483 238.749 515.787 238.429 516.033 238.149C516.28 237.869 516.467 237.596 516.593 237.329C516.72 237.056 516.783 236.759 516.783 236.439C516.783 236.046 516.667 235.749 516.433 235.549C516.2 235.343 515.897 235.239 515.523 235.239C515.177 235.239 514.87 235.299 514.603 235.419C514.343 235.539 514.077 235.706 513.803 235.919L513.333 235.329C513.52 235.169 513.723 235.026 513.943 234.899C514.17 234.773 514.413 234.673 514.673 234.599C514.94 234.526 515.223 234.489 515.523 234.489C515.97 234.489 516.353 234.566 516.673 234.719C516.993 234.873 517.24 235.093 517.413 235.379C517.593 235.659 517.683 235.996 517.683 236.389C517.683 236.669 517.64 236.936 517.553 237.189C517.467 237.436 517.343 237.679 517.183 237.919C517.023 238.159 516.83 238.403 516.603 238.649C516.377 238.896 516.127 239.153 515.853 239.419L514.363 240.889V240.929H517.973V241.729Z" fill="#63646A"/>
</svg>
