<svg width="20" height="20" viewBox="0 0 20 20" fill="none" xmlns="http://www.w3.org/2000/svg">
<path d="M14.1665 10.0001C14.1665 10.4603 14.5396 10.8334 14.9998 10.8334C15.4601 10.8334 15.8332 10.4603 15.8332 10.0001C15.8332 9.53984 15.4601 9.16675 14.9998 9.16675C14.5396 9.16675 14.1665 9.53984 14.1665 10.0001Z" stroke="#2E2F35" stroke-width="2" stroke-linecap="round" stroke-linejoin="round"/>
<path d="M9.1665 10.0001C9.1665 10.4603 9.5396 10.8334 9.99984 10.8334C10.4601 10.8334 10.8332 10.4603 10.8332 10.0001C10.8332 9.53984 10.4601 9.16675 9.99984 9.16675C9.5396 9.16675 9.1665 9.53984 9.1665 10.0001Z" stroke="#2E2F35" stroke-width="2" stroke-linecap="round" stroke-linejoin="round"/>
<path d="M4.1665 10.0001C4.1665 10.4603 4.5396 10.8334 4.99984 10.8334C5.46007 10.8334 5.83317 10.4603 5.83317 10.0001C5.83317 9.53984 5.46007 9.16675 4.99984 9.16675C4.5396 9.16675 4.1665 9.53984 4.1665 10.0001Z" stroke="#2E2F35" stroke-width="2" stroke-linecap="round" stroke-linejoin="round"/>
</svg>
