<svg width="18" height="18" viewBox="0 0 18 18" fill="none" xmlns="http://www.w3.org/2000/svg">
<path d="M15 6V12.6C15 13.4401 15.0002 13.8601 14.8367 14.181C14.6929 14.4632 14.4631 14.6927 14.1808 14.8365C13.86 15 13.4402 15 12.6001 15H5.40015C4.56007 15 4.13972 15 3.81885 14.8365C3.5366 14.6927 3.3073 14.4632 3.16349 14.181C3 13.8601 3 13.4401 3 12.6V6M15 6H3M15 6L13.9768 4.20927C13.7251 3.76885 13.5992 3.54862 13.4224 3.38841C13.2659 3.24666 13.0815 3.13954 12.8808 3.07404C12.654 3 12.4001 3 11.8928 3H6.10693C5.59967 3 5.34646 3 5.11963 3.07404C4.91894 3.13954 4.73396 3.24666 4.57752 3.38841C4.4007 3.54862 4.27495 3.76885 4.02328 4.20927L3 6" stroke="#8C8D92" stroke-width="1.5" stroke-linecap="round" stroke-linejoin="round"/>
<path d="M7.31152 10.9751H10.3115" stroke="#8C8D92" stroke-width="1.5" stroke-linecap="round"/>
</svg>
