<?xml version="1.0" encoding="utf-8"?>
<!-- Generator: Adobe Illustrator 26.5.0, SVG Export Plug-In . SVG Version: 6.00 Build 0)  -->
<svg version="1.1" id="Layer_1" xmlns="http://www.w3.org/2000/svg" xmlns:xlink="http://www.w3.org/1999/xlink" x="0px" y="0px"
	 viewBox="0 0 16 16" style="enable-background:new 0 0 16 16;" xml:space="preserve">
<style type="text/css">
	.st0{fill:none;stroke:#8C8D92;stroke-width:2;stroke-linecap:round;stroke-linejoin:round;}
</style>
<path class="st0" d="M3.3,6.6c0,3.2,2.8,5.9,4.1,6.9l0,0c0.2,0.1,0.3,0.2,0.4,0.3c0.1,0,0.3,0,0.4,0c0.1,0,0.2-0.1,0.4-0.3
	c1.3-1,4.1-3.7,4.1-6.9c0-1.2-0.5-2.4-1.4-3.3C10.4,2.5,9.2,2,8,2S5.6,2.5,4.7,3.4C3.8,4.2,3.3,5.4,3.3,6.6z"/>
<circle class="st0" cx="8" cy="6" r="1.4"/>
</svg>
